/* XPM */
static char *_28afab0726a4df5b80aa381e78493844X9lvGgaoPOG6Jom[] = {
/* columns rows colors chars-per-pixel */
"64 64 242 2 ",
"   c #140505",
".  c #0E1113",
"X  c #1C1B1B",
"o  c #151617",
"O  c #07080F",
"+  c #3C0806",
"@  c #211E1D",
"#  c #330D0D",
"$  c #23211F",
"%  c #2A221C",
"&  c #38251E",
"*  c #1A242C",
"=  c #252321",
"-  c #2B2523",
";  c #2E2926",
":  c #2D2B29",
">  c #322A25",
",  c #332D2A",
"<  c #382A26",
"1  c #36312E",
"2  c #3A322D",
"3  c #3F392F",
"4  c #3A3533",
"5  c #373232",
"6  c #141F1F",
"7  c #541710",
"8  c #671506",
"9  c #771C06",
"0  c #691006",
"q  c #51331B",
"w  c #762E0E",
"e  c #452B25",
"r  c #48372B",
"t  c #563D2D",
"y  c #433B34",
"u  c #453B37",
"i  c #573D32",
"p  c #68352A",
"a  c #643D33",
"s  c #75382C",
"d  c #3B4424",
"f  c #58551A",
"g  c #4E4E1C",
"h  c #6C521A",
"j  c #666A12",
"k  c #6A6E15",
"l  c #6C6E1C",
"z  c #636419",
"x  c #6D7017",
"c  c #6E7219",
"v  c #72751C",
"b  c #75781F",
"n  c #79791F",
"m  c #62650D",
"M  c #4D443B",
"N  c #4B4336",
"B  c #51453B",
"V  c #52493E",
"C  c #594438",
"Z  c #634535",
"A  c #6A4334",
"S  c #6C4C3A",
"D  c #684839",
"F  c #734C3B",
"G  c #794E3C",
"H  c #764539",
"J  c #7C513D",
"K  c #76513D",
"L  c #6B5B2F",
"P  c #6B6824",
"I  c #747621",
"U  c #767921",
"Y  c #7A7C24",
"T  c #7C7C29",
"R  c #797529",
"E  c #7B7835",
"W  c #77672A",
"Q  c #554D48",
"!  c #5C5448",
"~  c #4D4743",
"^  c #665848",
"/  c #7E5441",
"(  c #79554B",
")  c #655A54",
"_  c #714E47",
"`  c #776759",
"'  c #767053",
"]  c #852B08",
"[  c #8A330C",
"{  c #97370D",
"}  c #913512",
"|  c #A93E0B",
" . c #C33F1C",
".. c #D63B2F",
"X. c #AA4508",
"o. c #A74813",
"O. c #B95915",
"+. c #B05311",
"@. c #BF6117",
"#. c #87473B",
"$. c #81513D",
"%. c #8D582D",
"&. c #AB5134",
"*. c #857C2C",
"=. c #85782B",
"-. c #8B7935",
";. c #956F35",
":. c #AA7A39",
">. c #AA693B",
",. c #8A411B",
"<. c #C55C15",
"1. c #CA4E11",
"2. c #CD6B1A",
"3. c #D8761C",
"4. c #D06F16",
"5. c #EA7B1A",
"6. c #EF7718",
"7. c #DD452B",
"8. c #D34829",
"9. c #E24B2A",
"0. c #E55829",
"q. c #F75729",
"w. c #F75C35",
"e. c #EF4C2D",
"r. c #DB6A38",
"t. c #C96D37",
"y. c #E66438",
"u. c #FB6335",
"i. c #FA653B",
"p. c #FD6B3C",
"a. c #F66737",
"s. c #E97A3B",
"d. c #F7743B",
"f. c #FB7229",
"g. c #ED5C1E",
"h. c #845441",
"j. c #8B5A45",
"k. c #885A46",
"l. c #965A47",
"z. c #8D504A",
"x. c #A65C4A",
"c. c #B1574D",
"v. c #8B624D",
"b. c #99634B",
"n. c #817942",
"m. c #846458",
"M. c #9A6751",
"N. c #857E58",
"B. c #99715A",
"V. c #A3664E",
"C. c #BB7A43",
"Z. c #A56B53",
"A. c #AC6C54",
"S. c #A96A56",
"D. c #B66B57",
"F. c #AD735A",
"G. c #AB7455",
"H. c #BB735C",
"J. c #B7775A",
"K. c #B6654D",
"L. c #8E796A",
"P. c #BC7C63",
"I. c #FB5B40",
"U. c #DE7842",
"Y. c #C6775C",
"T. c #CB7452",
"R. c #FA7643",
"E. c #C37B61",
"W. c #7C8027",
"Q. c #7E8129",
"!. c #7F8130",
"~. c #85832C",
"^. c #8A8437",
"/. c #988839",
"(. c #A4873D",
"). c #E7871C",
"_. c #FC8C1B",
"`. c #F6861A",
"'. c #FE931C",
"]. c #FD9A1C",
"[. c #F99618",
"{. c #F78C12",
"}. c #FEA31F",
"|. c #D28A2C",
" X c #F88B23",
".X c #F49422",
"XX c #F89622",
"oX c #FC9C22",
"OX c #F89A27",
"+X c #EF8E2D",
"@X c #FEA324",
"#X c #FFAA25",
"$X c #FFAA2A",
"%X c #FFB228",
"&X c #898254",
"*X c #948E4A",
"=X c #A68D44",
"-X c #AB9646",
";X c #B7944A",
":X c #A99B59",
">X c #948C66",
",X c #B18F6C",
"<X c #B2A572",
"1X c #C48748",
"2X c #C79648",
"3X c #D69654",
"4X c #F88947",
"5X c #E5994E",
"6X c #F99649",
"7X c #E89A55",
"8X c #FB9350",
"9X c #FB9C55",
"0X c #F89B56",
"qX c #E98251",
"wX c #D3A44D",
"eX c #FDA355",
"rX c #FCA45A",
"tX c #FDA959",
"yX c #FFB25E",
"uX c #CA8667",
"iX c #D48B6B",
"pX c #D3866C",
"aX c #CE8E71",
"sX c #CE9372",
"dX c #D79778",
"fX c #D8946C",
"gX c #DFA07F",
"hX c #FCB166",
"jX c #907885",
"kX c #B19496",
"lX c #B194A9",
"zX c #BCABB9",
"xX c #A49C85",
"cX c #DEA784",
"vX c #E2A884",
"bX c #E9B697",
"nX c #C5B7B4",
"mX c #F8D6B8",
"MX c #CCB4C8",
"NX c #F9EAD2",
"BX c #FFFFEA",
"VX c #E2D0DD",
/* pixels */
"v v v v v c v v v v b b c v b x v v v v v v v v v v v v v v v v v v v v v v v v v v v v v v v v v U c v Q.v W.b j W.c c W.W.l c ",
"b b v v v b v v c b v x b x b b v v v v U E v v v v v v v v v v v v v v v v v v v v v v v v v v c v U b m W.b c k c W.W.l l W.v ",
"c v v v v c v b v v Q.x b v v v v v v v &XjXN.c v v v v v v v v v v v v v v v v v v v v v v v v U k v W.I k Y W.v c v W.j k I k ",
"v U v c v ~.~.b b x W.Y v v Y x v v v v L.kXlX*Xv v v v v v v v v v v v v v v v v v v v v v v v c b v j W.I z U v v c k c W.v c ",
"b v v x v b Y W.W.v j U v x W.v v v v &XkXMXzXnXR z I I v v c I n.<XxX>XN.' >X' n.E I v v v v v v c b b j Y c j x W.v k W.v c W.",
"v c v b v k c b W.U k v b W.x v v v v &XjXzXVXlX# E v v v P R &XL.` ) Q Q Q ~ ! Q Q ` E ^.T v v v b x n I x b c v v v v k c v c ",
"v U b x b ~.b j I U U c U W.m v v v v W jXzXkXp L.=.P P L Q Q ) ! ! ! ~ ~ 4 u 4 5 4 5 4 ` I v v v k Y x c v b b v v v v x W.v c ",
"v x v v v k v Y j W.v v l j v v v v v l E m.+ ( VX) C ^ ! M V M ~ ~ 4 5 u u 4 5 5 4 4 5 ~ R v v v n k b b c v c v v v c v v v v ",
"v v v v v c v b j k c v v v v c v v v v R 7 p kXlX^ B V V V M V ~ y 4 4 5 , , , 4 5 5 5 ~ v.c v v v v v v v v v v v v v v v v v ",
"v c v b v c v v c v v v v v v v v v v v q # m.lXjXV B B B N y 3 4 5 5 : - : , 5 5 ; < u B L.v v v v v v v v v v v v v v v v v v ",
"v v c v b v v v v v v v v v v v v v c q 7 W N.! V N y 3 2 > ; ; ; ; : 2 < = = = - : < < C >Xb v v v v v v v v v v v v v v v v v ",
"v c v v v v v v v v v v c v v v ^.v q # R c ' N 1 1 ; , , % $ ; ; $ : Z h.i > - < 5 e D <X<Xv v v v v v v v v v v v v v v v v v ",
"v v v v v v v v v c v v v v U =XrXC.7 R W.>X' y 1 ; ; - * @ $ @ $ $ , D v.M.M.M.F.P.H.cXmXBX~.W.v v v v v v v v v v v v v v v v ",
"v v c v v v v v v v v v v v ~.tXU.t.rX*XW.>XQ y : - $ @ @ X X X 6 $ 2 N ^ G.uXiXaXcXcXcXmXNXxXI v v v v v v v v v v v v v v v v ",
"v v v v v v v v v v v v v n 3XqX1XrXyXwXk N.N 4 - $ $ $ @ X X X X $ 2 r C b.P.P.E.cXaXcXbXNXNXI v v v v v v v v v v v v v v v v ",
"v v c v v v v v v v v v v v 7X>.&.6X6X5XW.' 5 : X = = @ X X X X X $ ; > _ A.E.P.P.aXcXcXbXmXBX&Xv v v v v v v v v v v v v v v v ",
"v v v v v v v v v v v v v L # &.i.w.R.9X-X) 1 = = = $ X X X X X X @ X e M.J.H.P.uXsXB.( m.v.kX:Xv x c W.v v v v v v v v v v v v ",
"v v v v v v v v v v v v f   W U s.q.a.R.rX) * - = $ $ X X X X @ @ @ o _ A.S.D.E.J.J C C %   $.-.v W.;X3Xv v v v v v v v v v v v ",
"v v v v v v v v v v c E   L c v R r.q.d.hXG.* : $ = $ X @ X X X o @ i S.S.S.D.F.k.k.v.N r A ,XI /.5X4X6X;Xv v v v v v v v v v v ",
"v v v v v v v v v b W e h c v v v =.q.a.rXrXN 6 = $ . . @ @ o o . e D.H.F.S.M.j.j.D N : p b.E.:XwX6X0X6X0XT v v v v v v v v v v ",
"v v v v v v v v v v P l v v v v v v t.q.4XyX1X* o . 3 e @ @ X o . e F.H.D.S.M.M.G r m.k.G l.D.dXhX4X8X4X6X/.v v v v v v v v v v ",
"v v v v v v v v v v b v v v v v v v -.q.R.0XyXl.O D Y.l.e @ o . . @ z.H.H.J.J.G.S.G.V.A.F.F.E.pXbXqXq.q.1XT v v v v v v v v v v ",
"v v v v v v v v v v v v v v v v v v v y.w.4XyX9Xr z.&.#.#.s < . @ > H H.Y.uXiXuX,XuX,XfXcXaXH.D.pXbXI.t.b v v v v v v v v v v v ",
"v v v v v v v v v v v v v v v v v v v :.q.R.eXrX9Xc.z.Y.#.p a i D i a A.H.H.iXfXpXiXdXdXbXpXc.Y.Y.cXdXI v v v v v v v v v v v v ",
"v v v v v v v v v v v v v v v v b b v *.w.u.8XrXrX9XK.K.#.s x.F.F H h.l.V.D.Y.E.iXiXfXdXvXH.#.Y.K.#.-.v v v b v v v v v v v v v ",
"v v v v v v v v v v v v v v v v c v c x t.q.R.rXeXtXT.c.c.#.#.K.G C G j.l.l.S.D.J.Y.uXaXfXY.&.H t P b v v c v b v v v v v v v v ",
"v v v v v v v v v v v v v v v v c v b v -.q.w.8XrXeX7Xx.c.D.x.l./ a G j.l.b.l.V.A.A.G.uXuXiXpXr X x v v v v c c v v v v v v v v ",
"v v v v v v v v v v v v v v v v v v v v c y.w.d.rX9XtX;.a H.H.$.D A J / / z.l.A.V.b.K.J.uXJ.$.t y I v x v b v b v v v v v v v v ",
"v v v v v v v v v v v v v v v v b v c v b :.q.w.4XtXhX:.- Z.l.A G K D K F F h.M.G.G.A.J.J.t & s H.U *.W.W.b x v v v v v v v v v ",
"v v v v v v v v v v v v v v v v v v v c n ~.q.u.i.4X8Xr.K B.b.$.J / Z K F H F h.b.V.M.Y.%.t z.K.P.R b b v c v b v v v v v v v v ",
"v v v v v v v v v v v v v v v v v v b b n v r.u.i.w.u.u.T.B.M.$.H S D C F H j.h.J $.J b.Z.H.iXuXS d k v b v v c v v v v v v v v ",
"v v v v v v v v v v v v v v v v c n n W.v v (.q.i.i.i.p.9.h.B.v.$.F t r F G h.h.J F C F V.G.J.iXv.1 k b v c b v v v v v v v v v ",
"v v v v v v v v v v v v v v v v v v b W.~.b *.a.w.w.p.w.g.,.( M.j.$.D r r C Z G G Z S ;.S D $.;XaX_ l c v v v v v v v n c v I c ",
"v v v v v v v v v v v v v v v v v b k k U Y ~.0.p.R.i.9.{.5.s ( v.v.k.i % % < 2 r N A Z t r A G M.C v v v v v v v v v v v v I I ",
"v v v v v v v v v v v v v v v v c v v x v U w o.R.w.9.0.{.].6.&.G h.K _ N 1 @ # 7 % > = @ < r r r g v v v v v v c n v v n v v v ",
"v v v v v v v v v v v v v v v v v n v c c W 0  .e.9...| )._.].'.<.7 7 } 7 w 2.5.1Xl z z f f g g z v v v v v v v c Y U v v v c v ",
"v v v v v v v v v v v v v v v v v c c v W.X.<.0.7.e...w 5.'.XX`.oX@.| 1.{ } #X).v v v v v v v v c v v v v v v v b Y U v c c c n ",
"v v v v v v v v v v v v v v v v v v v v -X{.{.0...9.5.O.5._.`..XoX%X%X$XoX3.@X+.T c v v v v v v v v v v v v v v Y Y v x n v v v ",
"v v v v v v v v v v v v v v v v v b b c -X#X{.0.7.6.'. X_.'.o.o.#X).@.o.@.oX#XX.W c v v v v v v v v v v v v v v U c v v v n v v ",
"v v v v v v v v v v v v v v v v v c v b O.6._.f.6.'._._._._.o.[ #X).9 7 8 +.%XX.-.v v v v v v v v v v v v v v v k x b T b c v v ",
"v v v v v v v v v v v v v v v v v v v h 0 X._._.'.`._._._.'.2.} OX#X3.o.[ @.$X4.%.x x x v v W.x v v v v v v v v c U U U v v v v ",
"v v v v v v v v v v v v v v v v v v c -.] | '._._._._._._.'.XX2.[.OX$X@X[.@X@X[.:.v v b k W.k v v v v v v v v v v c k c v v v c ",
"v v v v v v v v v v v v v v v v v v v =.8 1.oX_._.'.<.} 5.}.@X@XoX@X3.4.}.}.}.[.wXx v b v c W.c v v v v v v v v U v v c v v v b ",
"v v v v v v v v v v v v v v v v v v -.0 ] 3.'._._.XX| 0 3.$X.XoXoX#X{ ,.}.}.[.6.wXv v v W.c j W.v v v v v v v v v v b v v c v v ",
"v v v v v v v v c v v v v v v v v v W ;.+.'._._._._.{ ] .X@XoX.XXX@XO.O.%X).{ ] ^.W.v W.c W.c c v v v v v v v v v v v v v b v x ",
"v v v v v v v v T /.U v v v v v v v v 2X6.{.`._.'.OXo.} OXoX@XoXXX].OX.X$X4.9 w j W.W.l c c k W.v v v v v v v v v v v v v v b b ",
"v v v v v v v v *.-X~./.^.W.I U v v *.6.XX X].@XXX@X).4.@X.X2..XoX].oX@X$X3.] %.j k W.j c k W.c v v v v v v v v c v v v x x v b ",
"v v v v v v v v v v n =X5X0X3X|.(.:.r.u.p. X).O.).oX@X#XoX.X{ ).%XoX.XoX@X.Xw %.W.W.j l W.v k c v v v v v v v v b v v v v b v c ",
"v v v v v v v v v v v v ^.5X6XeX4Xq.u.i.I.d.).3..X}.].OX[..X).@X3.] 2.@XoX@X+.8.:.v v v v v v v v v v v v v v v v v v v v v v v ",
"v v v v v v v v v v v v b Y 1X6X9Xa.u.i.i.f.f. X].[.[.OX}.}.#XOX{ [ ).#XoXoX+Xw.s.T v v v v v v v v v v v v v v v v v v v v v v ",
"v v v v v v v v v v v v v v v ;X5Xf.u.u.u.a.r.s.+X@X@X#X.X.X@X[.+XoX}.).[ 3. XI.6XwXb v v v v v v v v v v v v v v v v v v v v v ",
"v v v v v v v v v v v v v v v b /.s.r.t.:.=.v v v ~.|.+.[ X.).{.].}.].o.0 0.i.R.eX6X;Xv v v v v v v v v v v v v v v v v v v v v ",
"v v v v v v v v v v v v v v v v v b v v v v v v v v T W v ;.|.-XwX.X/.W.>.p.q.d.rX0X0Xv v v v v v v v v v v v v v v v v v v v v ",
"v v v v v v v v v v v v v v v v v v v v v v v v v v v v v c v v n W.v v v *.C.s.9XeX6X=Xv v v v v v v v v v v v v v v v v v v v ",
"v v v v v v v v v v v v v v v v v v v v v v v v v v v v v v v v v v v v v v I ~.2X6X6X2Xv v v v v v v v v v v v v v v v v v v v ",
"v v v v v v v v v v v v v v v v v v v v v v v v v v v v v v v v v v v v b c v c U (.6X8XQ.v v v v v v v v v v v v v v v v v v v ",
"v b c v b b x b v v v v v v v v v v v v v v v v v v v v v v v v x v v x b v v v v v (.+X;XY v c v v v v v v v v c v v v v v v v ",
"v v v v b b b v v v v v v v v v v v v v v v v v v v v v v v v v b v b v v x c v v v c ;X7XU v v v v v v v v v v b v v v v v v v ",
"b x b b v b W.v v v v v v v v v v v v v v v v v v v v v v v v v b v b W.v v b v v v v v (./.T b v v b v v v v v v v v v v v v v ",
"b v b x x v Y Y v v v v v v v v v v v v v v v v v v v v v v v v v x v W.W.b v v v v v v v /.=XU v v v v x v v v v v v v v v v v ",
"v v v x b v v b v v v v v v v v v v v v v v v v v v v v v v v v c v c W.n b c v b b v v v v v v v v v v v v v v b v v v v v v v ",
"v v v v Q.b x x v v v v v v v v v v v v v v v v v v v v v v v v v b x c W.b b W.Y b v v v v v v v x v v v b b v v v v v b v b v ",
"v v v b Y b c c v v v v v v v v v v v v v v v v v v v v v v v v v v c x v b W.W.b b v v v v v v v v v v b b b v v v v v v v v b ",
"v v v v j x v b v v v v v v v v v v v v v v v v v v v v v v v v n c b x x x W.b x v v v v v v v v v v v U b b c ~.W.U v v v v v "
};
