/* XPM */
static char *_7ca95e2dd3e4508f5ba2767350272be4DscP8oeLGfBDvye[] = {
/* columns rows colors chars-per-pixel */
"64 64 244 2 ",
"   c #140505",
".  c #0E1113",
"X  c #1C1B1B",
"o  c #151617",
"O  c #07080F",
"+  c #3C0806",
"@  c #211E1D",
"#  c #330D0D",
"$  c #23211F",
"%  c #2A221C",
"&  c #38251E",
"*  c #1A242C",
"=  c #252321",
"-  c #2B2523",
";  c #2E2926",
":  c #2D2B29",
">  c #322A25",
",  c #332D2A",
"<  c #382A26",
"1  c #36312E",
"2  c #3A322D",
"3  c #3F392F",
"4  c #3A3533",
"5  c #373232",
"6  c #141F1F",
"7  c #541710",
"8  c #671506",
"9  c #771C06",
"0  c #691006",
"q  c #51331B",
"w  c #762E0E",
"e  c #452B25",
"r  c #48372B",
"t  c #563D2D",
"y  c #433B34",
"u  c #453B37",
"i  c #573D32",
"p  c #68352A",
"a  c #643D33",
"s  c #75382C",
"d  c #3B4424",
"f  c #575419",
"g  c #4E4D1C",
"h  c #6C5119",
"j  c #666911",
"k  c #6B6E15",
"l  c #67691B",
"z  c #6D7017",
"x  c #6E7219",
"c  c #72751C",
"v  c #75781F",
"b  c #79791F",
"n  c #62650D",
"m  c #4D443B",
"M  c #4B4336",
"N  c #51453B",
"B  c #52493E",
"V  c #594438",
"C  c #634535",
"Z  c #6A4334",
"A  c #6C4C3A",
"S  c #684839",
"D  c #734C3B",
"F  c #794E3C",
"G  c #764539",
"H  c #7C513D",
"J  c #76513D",
"K  c #6B5B2F",
"L  c #6B6824",
"P  c #747522",
"I  c #767921",
"U  c #7A7C24",
"Y  c #7C7C2A",
"T  c #797527",
"R  c #7B7835",
"E  c #75662B",
"W  c #544C45",
"Q  c #564E4A",
"!  c #5C5448",
"~  c #4D4743",
"^  c #7E5441",
"/  c #79554B",
"(  c #655A54",
")  c #6C5146",
"_  c #6A624E",
"`  c #776759",
"'  c #787355",
"]  c #852B08",
"[  c #8A330C",
"{  c #97370D",
"}  c #913512",
"|  c #A93E0B",
" . c #C33F1C",
".. c #D63B2F",
"X. c #AA4508",
"o. c #A74813",
"O. c #B95915",
"+. c #B05211",
"@. c #BF6117",
"#. c #87473B",
"$. c #81513D",
"%. c #8C552F",
"&. c #AB5134",
"*. c #837D2B",
"=. c #88772E",
"-. c #8B7A35",
";. c #977C33",
":. c #906832",
">. c #AA7A39",
",. c #AA693B",
"<. c #8A411B",
"1. c #C55C15",
"2. c #CA4E11",
"3. c #CD6B1A",
"4. c #D8761C",
"5. c #D06F16",
"6. c #EA7B1A",
"7. c #EF7718",
"8. c #DD452B",
"9. c #D34829",
"0. c #E24B2A",
"q. c #E55829",
"w. c #F75729",
"e. c #F75C35",
"r. c #EF4C2D",
"t. c #DB6A38",
"y. c #C96D37",
"u. c #E66438",
"i. c #FB6335",
"p. c #FA653B",
"a. c #FD6B3C",
"s. c #F66737",
"d. c #E97A3B",
"f. c #F7743B",
"g. c #FB7229",
"h. c #ED5C1E",
"j. c #845441",
"k. c #8B5A45",
"l. c #885A46",
"z. c #965A47",
"x. c #8D504A",
"c. c #A65C4A",
"v. c #B1574D",
"b. c #8B624D",
"n. c #99634B",
"m. c #817942",
"M. c #846458",
"N. c #9A6751",
"B. c #857E58",
"V. c #99715A",
"C. c #A3664E",
"Z. c #BB7A43",
"A. c #A56B53",
"S. c #AC6C54",
"D. c #A96A56",
"F. c #B66B57",
"G. c #AD735A",
"H. c #AB7455",
"J. c #BB745C",
"K. c #B7775A",
"L. c #B6654D",
"P. c #8E796A",
"I. c #BC7C63",
"U. c #FB5B40",
"Y. c #DE7842",
"T. c #C6775C",
"R. c #CB7452",
"E. c #FA7643",
"W. c #C37B61",
"Q. c #7E8129",
"!. c #7C8027",
"~. c #7F8130",
"^. c #84832C",
"/. c #8A8436",
"(. c #968739",
"). c #9C9035",
"_. c #A5863C",
"`. c #E7871C",
"'. c #FC8C1B",
"]. c #F6861A",
"[. c #FE931C",
"{. c #FD9A1C",
"}. c #F99618",
"|. c #F78C12",
" X c #FEA31F",
".X c #CF8F31",
"XX c #F88B23",
"oX c #F49422",
"OX c #F89622",
"+X c #FC9C22",
"@X c #F89A27",
"#X c #EF8E2D",
"$X c #FEA324",
"%X c #FFAA25",
"&X c #FFAA2A",
"*X c #FFB228",
"=X c #898254",
"-X c #948E4A",
";X c #A58D43",
":X c #AB9945",
">X c #B7944B",
",X c #AA9B59",
"<X c #948C66",
"1X c #B18F6C",
"2X c #B2A572",
"3X c #C58848",
"4X c #CF9351",
"5X c #F88947",
"6X c #E5994E",
"7X c #F99649",
"8X c #E89A55",
"9X c #FB9350",
"0X c #FB9C55",
"qX c #F89B56",
"wX c #E98251",
"eX c #DBA055",
"rX c #CEA646",
"tX c #FDA355",
"yX c #FCA45A",
"uX c #FDA959",
"iX c #FFB25E",
"pX c #CA8667",
"aX c #D48B6B",
"sX c #D3866C",
"dX c #CE8E71",
"fX c #CE9372",
"gX c #D79778",
"hX c #D8946C",
"jX c #DFA07F",
"kX c #FCB166",
"lX c #907885",
"zX c #B19496",
"xX c #B194A9",
"cX c #BCABB9",
"vX c #A49C85",
"bX c #DEA784",
"nX c #E2A884",
"mX c #E9B697",
"MX c #C5B7B4",
"NX c #F8D6B8",
"BX c #CCB4C8",
"VX c #F9EAD2",
"CX c #FFFFEA",
"ZX c #E2D0DD",
/* pixels */
"c c c c c c c c c x v v x c v z c c c c c c c c c c c c x !.z c c c c c c c c c c c c c c c c c c !.k c Q.!.c c j !.x x !.!.x c ",
"v v c c c c c c c v c z v x v c c c c c c c c c c c c c x k x c c c c c c c c c c c c c c c c c x c !.c n !.!.z k z !.!.l x !.c ",
"x c c c c x c v c c !.z v v c c c c c c c c c c c c c c x !.k !.c !.k c c c c c c c ' P c c c c I x x !.c l I !.c z !.!.j x c l ",
"c I c x v ^.^.c v z !.U c c b x c c c c c c c c c c c c k !.x x c c x c c c c c c B.P.B.c c c c x c c j ~.P n !.v c j j !.x !.x ",
"v c c z c v U !.I c j !.c z !.c c c c c c c x P c c c c c c !.x c c c c c x c c -XxXzXP.c c c c x x v v j !.x j j !.x k x !.j !.",
"c x c v c k c v !.I j x v !.k v c c c c c P =.m.m.B.' P.<X2X<X=Xc c c c c !.l P MXcXBXzX=Xc c c v v x v c x v x c x !.x x x x x ",
"c I v z v ^.v j !.c I x I !.n x c c Y /.' _ Q W Q Q Q Q Q ( ` P.=XR P c c c R # xXBXcXlX=Xc c c x k I z x x v v !.k !.x x x !.k ",
"c z c c c k c U l !.v v l j v c c c P ` y 2 4 4 4 u 4 ~ ~ Q Q ( ! W B ! L L T P.p zXcXvXv c c c c !.k v v x c x c x x c c !.x x ",
"v x x c v x x v j k x c c c c x c c T u 4 4 4 1 5 5 u u 5 y B B m B B ! ! M _ ZXx.+ M.R c c c c c c c c c c c c c c c c c c c c ",
"c c c v c x c v x c c c c c c c c c ' N 4 5 5 4 5 , 5 5 5 4 u N B m N N ! M ( xXxXp 7 E c c c c c c c c c c c c c c c c c c c c ",
"c x x v v x c c c c c c c c c c c P <XB u , ; 1 1 : > - ; 5 5 4 2 y N N B N Q P.xXM.# t v v c c c c c c c c c c c c c c c c c c ",
"c c c c c c x v c c c c x c c c P P =XB < < ; - = = - < 2 ; - > > > > 2 4 3 y N ! B.P + q c c c c c c c c c c c c c c c c c c c ",
"c c c c c c c c c c c c c v c c c c 2XfX) e 5 < - - i j.S - = ; ; $ = , 1 ; 1 1 r B.c R   q P (.c c c c c c c c c c c c c c c c ",
"c c x c c c c c c c c c c c c c b ^.CXNXbXI.I.G.N.C.A.b.! < @ @ @ $ X = - ; - 1 u ` ,Xc Y 7 R.uX;Xc c c c c c c c c c c c c c c ",
"c c c c c c c x c c c x c c c c c vXVXNXbXbXbXfXdXW.D.) N 2 @ X X X X X @ = - 1 u W <Xc /.tXy.Y.uXQ.c c c c c c c c c c c c c c ",
"c c c x c v c c c c c c c c c c c ZXVXmXbXdXdXpXI.I.N.V r < @ @ X X X = $ $ @ - 4 ~ ' c eXuXyX3X.XeX!.c c c c c c c c c c c c c ",
"c c c c c c c c c c c c c c v x -XCXVXmXjXjXfXJ.I.I.S.) - - @ @ X X @ X X = $ X : 5 ' ^.qX9X9Xo.v.8Xc c c c c c c c c c c c c c ",
"c c c c c c c c c c c c U c x v ,XvXM.M.b.V.fXpXI.I.J.N.e @ @ X X X X X X $ - * * 1 _ ,X0XE.e.e.&.7 K c c c c c c c c c c c c c ",
"c c c c c c c c c c c x 8X>XP x /.F   - i V ^ I.I.F.D.F.G o X @ X X X X X $ = = = * _ yXE.p.w.d.P E   f P x c c c c c c c c c c ",
"c c c c c c c c c c c >X5X5X6X(.b 1XZ q u b.l.j.D.F.D.D.D.a X o X X X X X $ = = : * H.iXf.e.t.v c c K   R c c c c c c c c c c c ",
"c c c c c c c c c c *.qX0X9X7XhX,XpXz.a , M C k.l.N.G.G.I.D.r . o X X @ . . = = 6 u yXyXs.q.^.c c c c f e T c c c c c c c c c c ",
"c c c c c c c c c c (.7X5X9X7XkXgXF.n.F b.M.e F A.N.G.F.J.G.e . o X @ X e y o o * 3XkX5Xw.y.c c c c c c L L c c c c c c c c c c ",
"c c c c c c c c c c U 3Xi.w.E.mXW.W.H.H.S.C.G.D.S.K.J.J.J.k.% . . X @ e x.R.C O n.kXtXE.w.;.c c c c c c c c c c c c c c c c c c ",
"c c c c c c c c c c c c y.E.mXsXT.T.dXnXfXT.1XpXpXpXW.J.T.S - $ . & a #.j.&.#.y 0XyX5Xw.u.c c c c c c c c c c c c c c c c c c c ",
"c c c c c c c c c c c c c hXgXT.T.v.W.mXbXgXdXaXhXaX1XF.F.a i S t Z p #.T.c.v.qXyXyXE.w.>.v c c v k c c c c v c c c c c c c c c ",
"c c c c c c c c c c c c c -.#.L.T.#.W.nXgXhXaXaXpXT.L.C.z.$.G D G.c.s #.v.L.0XyXyX9Xs.q.*.U b c v c c v z c c v c c c c c c c c ",
"c c c c c c c c c c c c c c l V #.z.T.sXdXpXpXJ.F.c.z.z.k.F V H F.#.#.L.v.R.uX0XyXE.w.y.I ^.Y c c c c c v c c k c c c c c c c c ",
"c c c c c c c c c c c c c v l 6 e sXaXW.T.F.C.C.C.C.z.z.k.F C H z.c.L.v.c.8XtXuX9Xe.w.;.c I U b c v c k c v c v c c c c c c c c ",
"c c c c c c c c c c c c c c P r t l.K.pXK.S.C.S.D.z.x.H H $.Z Z $.J.F.a ,.iXtXyXE.w.t.c c z c v j v Y ^.*.v k c c c c c c c c c ",
"c c c c c c c c c c c c c c x I.s & t K.J.C.H.H.N.j.F D J A J J a z.D.- ,.iXuX5Xe.w.Z.x c z z z b I v c c x c I c c c c c c c c ",
"c c c c c c c c c c c c c c P I.v.x.a :.T.C.A.n.^ F D D J C ^ H $.z.V.D Y.9X5Xs.i.w.*.c c c x z U c z c c c c c c c c c c c c c ",
"c c c c c c c c c c c c c c d A pXsXF.C.n.J H H j.x.D D C S A D x.N.V.R.e.e.e.s.i.d.c c c v c c v z z c c c c c c c c c c c c c ",
"c c c c x c c c c c c c c x 3 b.dX3XH.C.Z C D H $.$.D J r t D j.k.V.l.9.f.a.p.p.w._.x c c c c c c c c c c c c c c x c b x P P c ",
"c c c c v c c c c c c c c x A dXK.$.A D :.A C F $.V i r r A j.k.N./ } h.p.a.i.i.s.^.c c c c c c c c c c c c c c c c c c c c c c ",
"c c c c c c c c c c c c c c V N.J S r t V Z V 2 r < % % i j.k.b./ s 7.'.0.p.E.p.q.=.c c c c c c c c c c c c c c P b c x c c c P ",
"c c c c c c c c c c c c c c g 2 r r < % % > % 7 # @ < N A J j.) &.|.}.|.q.8.e.E.+.w c c c c c c c c c c c c c c x I I b c c x c ",
"c c c c c c c c c c c c c c c l f g f f l f x 3X4.4.p 7 w 7 7 1.[.{.'.`.| ..8.r. .0 =.x c c c c c c c c c c c c v U b v c c c c ",
"c c c c c c c c c c c c c c c c z x v v v v c x ].%X[ { 2.| 3.+X].[.[.6.] ..0.8.q.1.| b c c c c c c c c c c c c U I c k c c c c ",
"c c c c c c c c c c c c c c c c v v v z k c I T +.$X4.+X&X*X%X+XoX].'.6.O.7.0...q.'.}._.c c c c c c c c c c c c I x c v c c c c ",
"c c c c c c c c c c c c c c c c c x x v v c v E X.%X+XO.o.O.oX&Xo.o.OX'.XXOX6.8.0.|. X:Xc c c c c c c c c c c c z z v U b c c c ",
"c c c c c c c c c c c c c c c c c c c c c c c :.X.*X+.8 8 9 `.$X[ o.'.'.'.'.'.7.g.[.].+.c c b c c c c c c c c c x P I v v c c v ",
"x c c c c c c c c c c c c c c c c c c c c c x %.5.*X@.[ o.4.%XoX} 3.[.'.'.'.'.'.}.[.+.8 h v x c c c c c c c c c c x z z x c x z ",
"v c c c c c c c c c c c c c c c c c c c c c c _.}.{.+XoX&X*X@XoX3.oX[.'.'.'.'.'.'.'.o.9 ;.z c c c c c c c c c c I v x x x v v v ",
"c c c c c c c c c c c c c c c c c c c c c x x rX}.$X X$X5.4.$X+X$X$X$X6.{ 1.[.'.'.[.O.9 /.c x b c c c c c c c c c c P v c x c c ",
"c c c c c c c c c c c c c c c c c c c c c c c rX7.|.$X%X{ } $X+X+XOX&X4.8 { OX'.'.[.4.] 0 -.c c c c c c c c c c c c c c v v x z ",
"c c c c c c c c c c c c c c c c c c c c c c c (.] { `.*X@.+.%XOXOX{.$XoX[ { '.'.'.'.'.+.%.E x c c c c c c c c c c v c c c c v v ",
"c c c c c v c c c c c c c c c c c c c c c c c v w 9 3.&X+X+X+XoX+X$X+X+X} o.+X'.'.].'.|.rXz v x c c c c v I (.U z c c c z z c v ",
"c c c c c x c c c c c c c c c c c c c c c c c c :.9 4.&X$X$X{.$XoX3.oX$X3.`.$X@X$X+X}.'.7.;.z c c c U (.(./.;X^.v c x c v v c x ",
"c c c c c c c c c c c c c c c c c c c c c c c c %.w }. X+XoX$X*X`.{ oX+X$X%X$X`.O.oXXXa.s.t.>.>.>XeX0X9X;Xv x c c c c c v c c c ",
"c c c c c c c c c c c c c c c c c c c c c c x (.9.+.$X$X$X3.] 4.+X`.OX@X@X}.@XoX3.`.f.e.s.s.w.5XtX#X8X/.c c c c c c c c c c c c ",
"c c c c c c c c c c c c c c c c c c c c c c !.5Xe.XX X+X$X`.[ { @X$X$X+X}.oX}.}.XXXXi.i.s.s.s.0X0X3XU c c c c c c c c c c c c c ",
"c c c c c c c c c c c c c c c c c c c c c c 6X#XU.XX4.[ `.%X{.`.}.$X}.oX*X$XoX@XY.u.s.i.i.e.g.7X>Xc c c c c c c c c c c c c c c ",
"c c c c c c c c c c c c c c c c c c c c v >X7XyXE.U.q.0 o.{. X X}.`.{ [ +..X).c b c =.>.y.t.Y.-Xc c c c c c c c c c c c c c c c ",
"c c c c c c c c c c c c c c c c c c c c v qX8XyXE.w.a.,.*.).oXrX:X.X=.b h =.c c c c c x c c I c c c c c c c c c c c c c c c c c ",
"c c c c c c c c c c c c c c c c c c c c ;X7XtXtXd.R.*.c x c !.b c c c c c c c c c c c c c c c c c c c c c c c c c c c c c c c c ",
"c c c c c c c c c c c c c c c c c c c x 4X7X0X4X^.c x c c c x c c c c c c c c c c c c c c c c c c c c c c c c c c c c c c c c c ",
"c v x c c c z v c c c c c c c c c c c Q.9X7X_.c c c c c c c c c z c c z b c c c c c c c c c c c c c c c c c c c x c c c c c c c ",
"c c c c v !.v z c c c c c c c c c c c >X#X_.c c c c c c c c c c b c c c c z c x c c c c c c c c c c c c c c c c v c c v c c c x ",
"v x v v c v !.z c c c c c c c c x v b 8X>Xc c c c c c c c c c c c z b b c c c c c c c c c z c c c c c c c c c v c c c c c c c v ",
"c c v z z c !.!.c c c c c c c c v Q.(._.I c c c c c c c c c c c c c c ^.U b c c c c c c c c c c c c c c c x c c x c c c c c v c ",
"c c c z v x c v c c c c c c c c c ;X(.c c c c c c c c c c c c c c c x U U b x c v v c c c v c c c c c c c c c c c v v c c c c x ",
"c c x v !.v k c c c c c c c c c c c v c c c c c c c c c c c c c c v z c U U v !.U I c c c c c c c c z c c v c c c x c c c v v v ",
"c c c v !.v x x c c c c c c c c c c c c c c c c c c c c c c c c c c c z c v !.!.v v c c c c c c c c c c v I v x v c c c c c c v ",
"c c c c j x c v c c c c c c c c c c c c c c c c c c c c c c c c v z v z z z U v z z c c c c c c c c c c I I v c Q.!.I v c c x c "
};
