/* XPM */
static char *_f7880d804424266a2c75c97650308a4ItoMEMzc9SdJ1l3D[] = {
/* columns rows colors chars-per-pixel */
"64 64 240 2 ",
"   c #1A1816",
".  c #241E1B",
"X  c #331A16",
"o  c #35251C",
"O  c #231F21",
"+  c #2B2825",
"@  c #342A24",
"#  c #3C2D24",
"$  c #332B28",
"%  c #3C342D",
"&  c #39312A",
"*  c #3D3632",
"=  c #4A311C",
"-  c #422D24",
";  c #43332B",
":  c #4A332A",
">  c #473628",
",  c #553A2E",
"<  c #433B34",
"1  c #413C3A",
"2  c #473C34",
"3  c #5C3D32",
"4  c #523D32",
"5  c #6B3D32",
"6  c #666911",
"7  c #6B6E15",
"8  c #686C17",
"9  c #6D7017",
"0  c #6E7219",
"q  c #72751C",
"w  c #75781F",
"e  c #7B761E",
"r  c #62650D",
"t  c #5A452C",
"y  c #4C443B",
"u  c #4C4237",
"i  c #574538",
"p  c #5F5D27",
"a  c #634935",
"s  c #674838",
"d  c #76493C",
"f  c #66593D",
"g  c #76553C",
"h  c #635425",
"j  c #6B6927",
"k  c #747521",
"l  c #767921",
"z  c #7A7C24",
"x  c #75742C",
"c  c #7C7C29",
"v  c #78732C",
"b  c #746C37",
"n  c #756E2E",
"m  c #4F3D43",
"M  c #4B4743",
"N  c #544B43",
"B  c #574F47",
"V  c #5D534A",
"C  c #5C5344",
"Z  c #644D41",
"A  c #665849",
"S  c #7B5443",
"D  c #7D5B42",
"F  c #795E4A",
"G  c #675C53",
"H  c #6E4A4E",
"J  c #7A674A",
"K  c #6A6358",
"L  c #786556",
"P  c #746C4A",
"I  c #706A63",
"U  c #882A0C",
"Y  c #8C310D",
"T  c #94350E",
"R  c #943511",
"E  c #882D10",
"W  c #A63612",
"Q  c #BC3E22",
"!  c #964A19",
"~  c #AA4A16",
"^  c #B85B17",
"/  c #B14A0E",
"(  c #B9651A",
")  c #894B3A",
"_  c #88543B",
"`  c #984C2D",
"'  c #AC5A32",
"]  c #847A2A",
"[  c #837A39",
"{  c #9A7A36",
"}  c #986B33",
"|  c #B57D3E",
" . c #AA6E39",
".. c #C35817",
"X. c #C66818",
"o. c #CC711A",
"O. c #DB7D1D",
"+. c #D3741B",
"@. c #D46616",
"#. c #E97818",
"$. c #E36016",
"%. c #D24D2A",
"&. c #E75626",
"*. c #F0562E",
"=. c #D36726",
"-. c #CD752F",
";. c #F4753A",
":. c #F36C36",
">. c #845B44",
",. c #895B48",
"<. c #955949",
"1. c #88544E",
"2. c #A65C48",
"3. c #8C634B",
"4. c #866447",
"5. c #94644D",
"6. c #9A684D",
"7. c #896B56",
"8. c #956D53",
"9. c #9B6B53",
"0. c #996754",
"q. c #9A755A",
"w. c #877A4A",
"e. c #A3644A",
"r. c #B67A47",
"t. c #A36A54",
"y. c #A76955",
"u. c #A3715A",
"i. c #AB745B",
"p. c #A5785A",
"a. c #B2765E",
"s. c #B57B5B",
"d. c #8C796A",
"f. c #AC7B61",
"g. c #A77A66",
"h. c #B47C64",
"j. c #B77C63",
"k. c #CF7643",
"l. c #F47842",
"z. c #E37C45",
"x. c #D77E65",
"c. c #7C8027",
"v. c #7E8129",
"b. c #84832C",
"n. c #898236",
"m. c #968738",
"M. c #A68B3E",
"N. c #DE811F",
"B. c #E9871C",
"V. c #F7881D",
"C. c #FB961D",
"Z. c #D48629",
"A. c #E58822",
"S. c #ED9123",
"D. c #F39523",
"F. c #F69C23",
"G. c #FA9D24",
"H. c #FA9426",
"J. c #F7833B",
"K. c #F08628",
"L. c #FEA324",
"P. c #FDA825",
"I. c #EFAA38",
"U. c #968941",
"Y. c #938B50",
"T. c #AA8947",
"R. c #B98448",
"E. c #A6974C",
"W. c #B6805F",
"Q. c #B49853",
"!. c #A78F52",
"~. c #958C75",
"^. c #B48165",
"/. c #BC8366",
"(. c #BC8A6A",
"). c #B88669",
"_. c #BC986A",
"`. c #BC8D74",
"'. c #B99376",
"]. c #A88870",
"[. c #A6A670",
"{. c #C9864B",
"}. c #D8864A",
"|. c #CB8D51",
" X c #CC9B56",
".X c #D99859",
"XX c #D98750",
"oX c #EA8C4C",
"OX c #FA8B4C",
"+X c #F88447",
"@X c #FB954C",
"#X c #FC9C4D",
"$X c #F89448",
"%X c #F58B54",
"&X c #EC9756",
"*X c #FC9C55",
"=X c #F79755",
"-X c #E69651",
";X c #DBA15D",
":X c #FDA45B",
">X c #FFA95E",
",X c #FCA457",
"<X c #EEA64F",
"1X c #C1866B",
"2X c #C38C6C",
"3X c #C88B67",
"4X c #CA936A",
"5X c #CB9374",
"6X c #C79979",
"7X c #DA9D73",
"8X c #D49C7C",
"9X c #D69976",
"0X c #D1906B",
"qX c #E99A6F",
"wX c #DCA37A",
"eX c #D7A67A",
"rX c #E6A87D",
"tX c #F4A667",
"yX c #836882",
"uX c #9B8A80",
"iX c #A98D90",
"pX c #ACA990",
"aX c #B8A5B2",
"sX c #B497A4",
"dX c #C59E84",
"fX c #CA9A90",
"gX c #CCA78A",
"hX c #DAA884",
"jX c #DDB38F",
"kX c #E7AA86",
"lX c #E9B388",
"zX c #FDB78B",
"xX c #E8B894",
"cX c #F5BE94",
"vX c #C1ACB3",
"bX c #FBC291",
"nX c #F7C9A6",
"mX c #FFD8AD",
"MX c #FFE1BC",
"NX c #FFEDC4",
/* pixels */
"q q q q q q q q q 0 w w 0 0 w 0 q q q q q q q q q k [.pXU.P ~.~.Y.w.x w q 0 w 0 q q q q q q q q 0 c.7 q v.q c.w 6 l q 0 c.c.0 k ",
"w w q q q q q q q w q 9 w 0 w w q q q q q q q q [.pX~.K G A u i B K L P b w 0 w q q q q q q q q 0 q c.q r c.l 0 0 0 q c.8 0 k q ",
"0 q q q q 0 q w q q c.0 w w 0 q q q q q q q q Y.pXyXG M V G V V B V V V A G j l q q q q q q q q c.9 0 c.k 8 c.c.q 0 c.c.6 8 c.8 ",
"q l q 0 w b.b.w w 0 c.z q w w 0 q q q q q q q ~.I I K M M M y y y * y y y N y A x q q q q q q q 9 q q 6 c.k r c.q q 8 8 0 c.q 0 ",
"w q q 0 q w z z l q 6 c.0 0 c.q q q q q w w Y.K M M M M * M M & < y y y y u < u K x q q q q q q 0 9 w w 6 c.0 6 7 c.0 7 c.c.8 c.",
"q 0 q w q 7 q w c.l 6 0 w c.9 q q q q q q P 7.M 1 B A L G V V < * * u u y u % % u f q q q q q q q w 0 w q 7 q 0 0 0 c.0 8 0 0 9 ",
"q w w 0 w c.l 6 l l l 0 l c.r q q q q q k L 1 u d.).`.`.g.L N m 1 < * < < < < u % < A w q q q q 0 7 w 9 q q q w c.7 c.0 0 0 c.7 ",
"q 0 q q q 7 q z 8 c.k q 0 6 q q q q q 0 P * < ].hX8X5X5Xh.q.Z * < * % < < & & < u y y b q q q q q c.9 w q 0 q q 0 0 0 q q c.0 0 ",
"q q q q q q 0 l 6 8 0 q q q 0 q q q q x i $ 7.lXhXqX7X9X5Xg.1.3 % & + @ & $ $ % * & * P q q q q q q q q q q q q q q q q q q q q ",
"q 0 q w q 0 q q 0 q q q q q q q q q q P * y hXbXkXkXwX8X9Xj.i.0.D i s t > ; 4 L 7.+ + A q q q q q q q q q q q q q q q q q q q q ",
"q q 0 q w q q q q w q q q 0 q q q q w A O 7.mXbXkXrXhXhX5X1Xa.h.f.u.f.u.6.6.q.hXeXu $ C q q q q q q q q q q q q q q q q q q q q ",
"q q q q q q q q q q q q q q q q q q w i + iXMXxX9XkXhXhX5X1Xh.f.f.^.h.f.p.W.(.eXeXA < A x q q q q q q q q q q q q q q q q q q q ",
"q 0 q q q q q q q 0 q q q q q l q q q G & gXMXjX8XhX9X5X5X/.h.h.f.h.h.f.a.^.4XeXeXP & B b q q q q q q q q q q q q q q q q q q q ",
"q q q q q q q q q q q q q q q q q q q d.* dXnXkX8X5X5X5X5X2Xh.h.f.h.h./.(.4X4XeXrXq.+ # Y.q q q q q q q q q q q q q q q q q q q ",
"q q q 0 q q q q q q q q q q 0 q q q k 7.m dXnXcXkXkXkXhX5X1X/.j.h.1X9XkXeX7XeXrXlX_.& + I q q q q q q q q q q q q q q q q q q q ",
"q q q q q q q q q q q q q q q q q k 0 b m gXiX1.d.g.j.hX5X1X/.j.j.g.F Z A a f 3.6XjXi . K q q q q q q q q q q q q q q q q q q q ",
"q q q q q q q q q q q q q q q q q q q k V g.I 2 & O + Z u.j.j.y.S ; .   . $ i s ].xXL   G q 7 q q q q q q q q q q q q q q q q q ",
"q q q q q q q q q q q q q q q q q q q q G ].dX0.: # @ @ Z y.y.,.3 ; @ # ; ; : S g.nX'.  V q q w q q q q q q q q q q q q q q q q ",
"q q q q q q q q q q q q q q q q q q q q f gX^.@ V A ; # , 0.y.,.d : : M + B 2 X F jXgX+ s q q q q q q q q q q q q q q q 7 c.q q ",
"q q q q q q q q q q q q q q q q q q q q p fXg.3 uXM $ 3 5 0.9Xi.d 3 s A $ C J 3 >.gXhXK ' w q q q q q q q q q q q q q q 0 q q q ",
"q q q q q q q q q q q q q q q q q q q q 0 '.hX`.g.Z 3 S S i.zXrXg a s d d s S q.(.lXjX4.} w q q q q q q q q q q q q q q q q q q ",
"q q q q q q q q q q q q q q q q q q q q q _.jX_.3.,.,.,.0.7XbXzXs.,.S >.>.D 8.).rXbXxX6.[ q q q q q q q q q q q q q q q q q q q ",
"q q q q q q q q q q q q q q q q q q q q q !.hX(.).g.h.^.1XkXzXkX1X0.0.0.9.f.4X7XwXbXjX2Xz q q q q q q q q q q q q q q q q q q q ",
"q q q q q q q q q q q q q q q q q q q q q [ xX5X1X).h./.3XrXzXcX4X,.5.t.h.4XwXeX7XkXgX_.q q q q q q q q q q q q q q q q q q q q ",
"q q q q q q q q q q q q q q q q q q q q q [ hX5X1Xj.j.y.1XzXqXzXzX<.1.y.j.9X7X7X4X'.'.Y.k k w q w 9 q q q q q 9 q q q q q q q q ",
"q q q q q q q q q q q q q q q q q q q q q c 6X2Xj.j.y.<.3XkXx.x.tX3Xd 2.s.3Xs.s.f.].!.k l z w 0 q q w q q 9 q c.q q 0 9 q q q q ",
"q q q q q q q q q q q q q q q q q q q q q q 6X(.a.a.y.2.<.<.0.1.d e.<.e.y.y.e.6.q.^.[ q l b.z w 0 q q q q q q 9 q c.0 c.q q q q ",
"q q q q q q q q q q q q q q q q q q q q q q Q.(.a.a.j.j.2.5 S 5 X ) rX7Xs.6.3.3.8.p.[ q w l z z 0 c.q 9 q w q q q 0 0 0 q q q q ",
"q q q q q q q q q q q q q q q q q q q 0 q q q.p.)./.W.9Xs.3 , : # >.qX3Xp.6.6.4.D 8.[ q q 9 9 c.6 q c.c.c.9 9 7 q q q q q q q q ",
"q q q q q q q q q q q q q q q q q q q q q q n q.(.6.i 4.s @ . . @ % g a = a 6.g t 8.v q q 9 7 9 c.w c.w c.0 q c.q q q q q q q q ",
"q q q q q q q q q q q q q q q q q w w e q q j 8.p.4.o > - - : - # : : - o t 4.t g 4.q q q q 9 9 c.q 6 0 9 0 0 7 q q q q q q q q ",
"q q q q q q q q q q q q q q q q 0 k l z l q q 4.4.8._ 3.0.<.<.<.1.) ) >.4.4.a t J j q q q q q q w 9 9 q c.0 q c.q q q q q q q q ",
"q q q q q q q q q q q q q q q q q q l z b.w q n J 4.6.(.3X0.S d 5 d 3.6.5.4.s a s z q q q q q q q q q q q q q q 0 0 e e 0 q k 0 ",
"q q q q q q q q q q q q q q q q q w 7 7 l z n.}.s _ g W.1X6.:   o d 5.3.D s t , | {.] q q q q q q q q q q q q q q e 0 e q q k q ",
"q q q q q q q q q q q q q q q q 0 w q 7 w b.{.+X.Xu a 3.s.j.3.- 3 5.6.4.f t > g :Xl.R.l q q q q q q q q q q q q 0 e q 0 q q q k ",
"q q q q q q q q q q q q q q q q q w e 0 0 T.+X:X,X .> g >.9.i.>.>.p.u._ a o t ,X>X*X:.n.q q q q q q q q q q q q 0 z z q k q 0 q ",
"q q q q q q q q q q q q q q q q q q 9 q ] XX$X:X,X%X` t a t D 3.3.4.g t # a *X:X:X:X+Xk.z q q q q q q q q q q q q z l q q q q q ",
"q q q q q q q q q q q q q q q q 0 q q q { %X,X:X>XOXK.( > > > u u - o : } :X*X:X*X:X$Xz.v.q q q q q q q q q q q c.c.q 0 q q q q ",
"q q q q q q q q q q q q q q q q w w w q { =X:X:X:X+XV.H.^ ! = o = _ |.>X>X*X:X*X:X:X*Xl.n.w q q q q q q q q q q l 0 q q q q q q ",
"q q q q q q q q q q q q q q q q q 7 q e T.@X:X:X*Xl.V.C.H.L.B.T Q OX>X=X&X*X@X*X:X*X:X;.M.q q q q q q q q q q q 0 8 q c.w q q q ",
"q q q q q q q q q q q q q q q q q q q e R.@X:X:X*XJ.#...B.L.D.^ W &.OXz.z.=Xl.=X:X*X:X+X| 0 l 0 q q q q q q q q 0 l l l q q q q ",
"q q q q q q q q q q q q q q q q q q q ] |.@X>X:X,X;./ E ~ D.P.F.F.B.%.:.%X%Xl.%X:X:X:X+X| w 0 q q q q q q q q q 0 0 9 0 0 q q 0 ",
"q q q q q q q q q q q q q q q q q q q z }.*X:X:X*X=.Y E Y N.P.S.S.F.~ W *.:.:.OX:X:X:XOX| 0 w q q q q q q q q q l q 0 0 q q q l ",
"q q q q q q q q q q q q q q q q q q q ] {.*X>X>X#X..Y Y R N.P.^ R N.A.~ ..&.*.l.:X:X:XOX| q 7 w q q q q q q q q q l l q q 0 q q ",
"q q q q q q q q q q q q q q q q q q q l }.@X:X,X#X@.Y U ^ P.P.o.E +.P.G.L.H.$.%.&X>X:XOXT.w q q q q q q q q q q q q q q q q q 0 ",
"q q q q q q q q q q q q q q q q q q l P 4X-Xs.&X*X#.X...S.A.S.F.N.S.G.o.O.L.B.@.&X>X>X+XT.w q q q q q q q q q q q w q q q q q l ",
"q q q q q q q q q q q q q q q q q q U.iXvXaX7.sXfXK.#.D.F.~ o.P.L.G.H.( X.G.C.D.#X:X:X@X{ 0 l q q q q q q q q q 0 q q q 0 0 q w ",
"q q q q q q q q q q q q q q q q q q v uXaXaX1.yXsXZ./ X.F.O.B.L.L.P.G.G.L.L.V.V.$X:X:X=Xm.w 7 q q q q q q q q q w q 0 q q q q q ",
"q q q q q q q q q q q q q q q q q q q n.uXiXS H 1XH.#.O.G.P.L.F.#.@.D.L.N.N.C...-.>X,X&Xb.q q q q q q q q q q q q q q q q q q q ",
"q q q q q q q q q q q q q q q q q q q q w.:Xe.5 -.K.V.G.F.G.L.G./ 5 o.S.! / C.@.=.*X,X.X] q q q q q q q q q q q q q q q q q q q ",
"q q q q q q q q q q q q q q q q q q q q m.:X}.` ~ W R ^ S.L.F.D.N.^ N.C.^ +.C.C.;.=X,X Xz q q q q q q q q q q q q q q q q q q q ",
"q q q q q q q q q q q q q q q q q q q q n.<XoX) ` T U R B.P.B.^ B.P.L.G.F.B.O.<X%X+X#X;Xz q q q q q q q q q q q q q q q q q q q ",
"q q q q q q q q q q q q q q q q q q q q m.tXoX2.r.r.o.+.F.P.S.X.B.C.C.P.O.R 6.4X%XOX*X;X] q q q q q q q q q q q q q q q q q q q ",
"q q q q q q q q q q q q q q q q q q q q m.:X*Xz.XXT.M.<XC.( o.I.I.M.N.C.#. .b.T.%X=X@X Xe q q q q q q q q q q q q q q q q q q q ",
"q q q q q q q q q q q q q q q q q w q q ] .X*X&X{.q 0 m.-.W ..E.b.] b.}.:.-.q l |.+X=XU.q q q q q q q q q q q q q q q q q q q q ",
"q q q q q q q q q q q q q q q q q q q w w U.;X&Xk.} q q {.&.}.q w q q {.*.M.q q n.|.E.l q q q q q q q q q q q q q q q q q q q q ",
"0 c.0 0 0 q 9 w q q q q q q q q q q q q q q ] Q.) ] q q m.:.|.q 0 w q E.oXm.q q q z 0 q w w q q q q q q q q q q 0 q q q q q q q ",
"0 q q q w c.w 0 q q q q q q q q q q q q q q q ] = n q q q .XQ.q w q c.m. Xl q 0 w q q q q 0 q q 0 q q q q q q q w q q q q q q q ",
"w 0 w w 0 c.c.0 q q q q q q q q q q q q q q q k h h q q q E.E.e w 0 w M.Q.w q q q q q q 0 q q q q q w q q q q q q q q 0 q q q q ",
"w q w 0 0 0 c.w q q q q q q q q q q q q q q q k n h q q q m.T.w 0 0 w m.Q.z q q q 0 q w q q q q q q q q 0 q q q q q q q q q w q ",
"q 0 q 0 q 0 0 c.q q q q q q q q q q q q q q q q v 0 q q q l l q q q 0 c.b.z 0 q w q q q q q q q q q q q q q q q q q q w q q q q ",
"q q q q c.c.9 0 q q q q q q q q q q q q q q q q q q q q q q w q q w 0 q z l l c.c.w w 0 q q w q q q q q w q q q q q q q q w q q ",
"q q q w c.q q 0 q q q q q q q q q q q q q q q q q q q q q q q q q q 0 0 q w z v.w w q q q q q q q q 0 q w w w q w q q q 0 q w w ",
"q q q q 6 0 q q q q q q q q q q q q q q q q q q q q q q q q q q w 0 q 0 9 0 l l 0 0 q q w 0 q q q q q q z w w q c.c.l w q q q q "
};
