/* XPM */
static char *f33627f3eb8b4175fbad4c21890b52e5eUKLvFFzDNpskwUF[] = {
/* columns rows colors chars-per-pixel */
"64 64 245 2 ",
"   c #030000",
".  c #0C0301",
"X  c #150A05",
"o  c #190C06",
"O  c #1C0E09",
"+  c #150A06",
"@  c #1E120A",
"#  c #1D1F0B",
"$  c #1D1010",
"%  c #22140C",
"&  c #2A190E",
"*  c #27150A",
"=  c #33190E",
"-  c #221512",
";  c #261912",
":  c #2C1C12",
">  c #281313",
",  c #311E13",
"<  c #3F1814",
"1  c #270B12",
"2  c #2F2016",
"3  c #332115",
"4  c #3A2315",
"5  c #34231B",
"6  c #3C261A",
"7  c #3C291C",
"8  c #362C13",
"9  c #3A3012",
"0  c #3B1C26",
"q  c #3B2B23",
"w  c #3F3024",
"e  c #531710",
"r  c #442C1C",
"t  c #472A19",
"y  c #4A361A",
"u  c #50331F",
"i  c #7B320E",
"p  c #772816",
"a  c #7C3915",
"s  c #783513",
"d  c #62250E",
"f  c #571D26",
"g  c #422E23",
"h  c #452A22",
"j  c #463124",
"k  c #4C3324",
"l  c #44332A",
"z  c #4B362A",
"x  c #4D3A2C",
"c  c #533524",
"v  c #533926",
"b  c #50372A",
"n  c #533B2C",
"m  c #593E2E",
"M  c #593C25",
"N  c #4D3B31",
"B  c #523D34",
"V  c #5A3F31",
"C  c #503F38",
"Z  c #522326",
"A  c #682E21",
"S  c #57511B",
"D  c #534A1B",
"F  c #62650D",
"G  c #666911",
"H  c #6B6E15",
"J  c #6C6D1C",
"K  c #64641A",
"L  c #6D7017",
"P  c #6E7219",
"I  c #72751C",
"U  c #75781F",
"Y  c #79791F",
"T  c #5D402D",
"R  c #594B25",
"E  c #5C4333",
"W  c #5C4539",
"Q  c #5E493E",
"!  c #554334",
"~  c #4F4037",
"^  c #65462C",
"/  c #665828",
"(  c #624533",
")  c #654934",
"_  c #6B4B34",
"`  c #61463A",
"'  c #644B3C",
"]  c #6B4D3C",
"[  c #714D34",
"{  c #6D523D",
"}  c #695632",
"|  c #78573C",
" . c #686421",
".. c #747422",
"X. c #767921",
"o. c #7A7C24",
"O. c #7E7D2A",
"+. c #79752C",
"@. c #787138",
"#. c #736D2F",
"$. c #5B4941",
"%. c #644D42",
"&. c #694E42",
"*. c #665243",
"=. c #6C5244",
"-. c #68554A",
";. c #745443",
":. c #755947",
">. c #7C5B43",
",. c #745749",
"<. c #745A4B",
"1. c #7C5D4B",
"2. c #795642",
"3. c #795E54",
"4. c #7C6154",
"5. c #7F6459",
"6. c #746346",
"7. c #8B3D0E",
"8. c #8A3B16",
"9. c #973512",
"0. c #A13228",
"q. c #8C4317",
"w. c #964B19",
"e. c #99511A",
"r. c #A35718",
"t. c #B25414",
"y. c #B0621A",
"u. c #935533",
"i. c #8B5130",
"p. c #AA5B23",
"a. c #BF4321",
"s. c #827C2C",
"d. c #9A683E",
"f. c #977D39",
"g. c #886B3E",
"h. c #B76624",
"j. c #A46834",
"k. c #AB6F2E",
"l. c #C15D16",
"z. c #C9691C",
"x. c #DD7918",
"c. c #D14F2C",
"v. c #F05932",
"b. c #CB6924",
"n. c #C97528",
"m. c #D57927",
"M. c #DF733B",
"N. c #CB6632",
"B. c #EE7331",
"V. c #845E45",
"C. c #85634C",
"Z. c #89654E",
"A. c #866749",
"S. c #866552",
"D. c #896A58",
"F. c #916B53",
"G. c #987459",
"H. c #89734A",
"J. c #B56C48",
"K. c #9A7867",
"L. c #8B6F65",
"P. c #A27F6B",
"I. c #EA5C47",
"U. c #CB7B4A",
"Y. c #DA784A",
"T. c #D37A54",
"R. c #CB6948",
"E. c #EF764C",
"W. c #F4734B",
"Q. c #F67948",
"!. c #FA7C55",
"~. c #F16B4C",
"^. c #7C8027",
"/. c #7E8129",
"(. c #81832B",
"). c #8C8337",
"_. c #92843B",
"`. c #DB832B",
"'. c #D7802B",
"]. c #EA8828",
"[. c #F88A2C",
"{. c #EC922D",
"}. c #FE9326",
"|. c #FF942A",
" X c #FE9B2D",
".X c #F79120",
"XX c #E58B31",
"oX c #EA8A37",
"OX c #FE8936",
"+X c #EE9131",
"@X c #ED9B37",
"#X c #F49633",
"$X c #F69932",
"%X c #FC9D33",
"&X c #F89737",
"*X c #FEA435",
"=X c #FFA936",
"-X c #FFAB3A",
";X c #FFA439",
":X c #FFB23B",
">X c #FFA22E",
",X c #8A8A47",
"<X c #9A8A43",
"1X c #97885A",
"2X c #9A904F",
"3X c #A98947",
"4X c #B58C4F",
"5X c #BD8B52",
"6X c #B59155",
"7X c #AD914E",
"8X c #BEA455",
"9X c #A98F6B",
"0X c #BFA46B",
"qX c #DA8849",
"wX c #C98A56",
"eX c #D58856",
"rX c #C49A5B",
"tX c #D6955C",
"yX c #CD854D",
"uX c #F7894B",
"iX c #E98558",
"pX c #FC8C55",
"aX c #F68858",
"sX c #E6965E",
"dX c #FA935B",
"fX c #FA965B",
"gX c #F6924A",
"hX c #D19A62",
"jX c #F68863",
"kX c #E99863",
"lX c #FB9462",
"zX c #FC9D64",
"xX c #FC9E68",
"cX c #F59A66",
"vX c #EF966E",
"bX c #CFA875",
"nX c #FDA166",
"mX c #FDA36A",
"MX c #FEA96D",
"NX c #F6A16A",
"BX c #FEAC71",
"VX c #F0A277",
"CX c #FFB575",
"ZX c #F3B260",
"AX c #D7B65B",
/* pixels */
"I I I I I I I I I P U Y P I U P I I I I I I I I I I I I I I I I I I I I I I I I I I I I I I I P P o.P I /.^.U I G ^.P P ^.^.J U ",
"U U I I I I I I I U I P U P U I I I I I I I I I I I I I I U I I I I I U I I I I I I I I I I I I P U o.U F ^.^.H H L ^.^.H H X.I ",
"P I I I I I I U I I ^.P U U I I I I I I I I I I I I 6.N ~ 5.H.@.@.@.@.^.U I I I I I P U I I I I o.L P ^.X.K X.^.I L ^.^.G G ^.H ",
"I X.I P U (.(.U U H o.o.I I U P I I I I I I I I  .-.$.~ *.:.3.-.-.-.=.6.H.g.O.U I I U P I I I I P I U G ^.I K ^.I I H G I ^.I J ",
"U I I P I U o.o.X.I G ^.I P ^.I I I I I I I I / $.$.*.N ' ' ] ' Q ! ' :.G.G.@.} 1XU P U I I I I P P U I G ^.P G G ^.I G ^.I H ^.",
"I P I U I H I Y ^.X.G I U ^.L I I I I I I ..} C -.~ ! W k E ' ' ' ! ' { :.S.G.Z.2.1XU P I I I I I U P U I L I I I P ^.I H I I I ",
"I U U P U ^.X.G X.X.X.J X.^.F P I I I I I } Q W $.x N ! j V ] m =.' E ] ' T F.K.| i.1XX.I I I I I L Y P P I I U ^.G I I H ^.I P ",
"I P I I I H I o.G ^.I I L G X.P I I I I K $.W Q ~ ! N x n j | ^ { =.m ( ! k | F.C.A.V.1XI I I I I Y H U X.P I P P P I I I I I I ",
"I I P U U P I U G J P I I I I I I I I I R W ' W z V V x ) T ] V.( C.] E x w ] | >.Z.A.A.,XJ I I I I I I I I I I ^.P I I I I I I ",
"I P I I I I P I P I I I I I I I I I I J x ( E m B ( _ k n 2.2.K.;.,.F.| n 7 ( 2.{ A.F.[ 9XX.I I I I I I I I I I P P I I I I I I ",
"I I P U I I I I U I I I I I I I I I Y J z E E n ( &.2.M g { :.V.1.E :.F.n k ( ] :.{ F.{ _ 2XI I I I I I I I I I ^.P ^.P I I I I ",
"I I I I I I I I I I I I I P I I I I I  .l E [ _ ;.&.Z.^ j ' 1.` ' T k ] ( E >.] ] { | A.k 6.I I I I I I I I I I P P P P I I I I ",
"I P I I I I I I I I I I I I I I I I I / z V V.S.3.*.D.2.n $.S.1.&.;.c M ) ' >.1.z =.>.( ( t X.I I I I I I I I I I I I I I P I I ",
"I I I I I I I I I I I I I I I I I I I } n ` G.P.3.$.D.S.N C 3.L.3.4.] V m E M ( x B >._ E v / I I I I I I I I I I I I I ^.L I I ",
"I I P I I I I P I I I P I I I I I I I [ { V K.L.%.N 4.4.l l -.S.3.5.S.E ` M c 5 n j ( A.! n R I I I I I I I I I I I I I I I I I ",
"I I I I I U I I I I I I I I I I I I I _ C.%.3.3.l l *.] q C $.&.&.<.D.%.W [ M : 4 7 T >.E v R I I I I I I I I I I I I I I I I I ",
"I I I I I I I I I I I I I I I I I I ..6.C.S.%.%.t 5 B ' l W V b b c ` %.N V.C.3 : 5 c _ ( E R I I I I I I I I I I I I I ^.I I I ",
"I I I I I I I I I I I I I I I I I I K { V.F.1.B t r n ;.,.' ` V 4 6 t x 4 ` 9Xx * : v b E =.R ..I I I I I I I I I I I I H P I I ",
"I I I I I I I I I I I I I I I I I I P 8 V ;.1.:.V < W D.D.) M &.] r : r , , :.] ; 3 T 7 k ' D I I I I I I I I I I I I I I I I I ",
"I I I I I I I I I I I I I I I I I I I D 5 ] 1.W l j n V.V.M r k Z.P.W , , - 4 u j 5 j : 4 n D P I I I I I I I I I I I I I I I I ",
"I I I I I I I I I I I I I I I I I I I } =.4.j 7 g -.,.t c j 4 t :.L.2.c t 2 X , y g 5 * 5 t S I I I I I I I I I I I I I I I I I ",
"I I I I I I I I I I I I I I I I I I I / :.W @ % l <.S.t = r r ] C.,.E t u v & X 4 5 & - r r / I I I I I I I I I I I I I I I I I ",
"I I I I I I I I I I I I I I I I I I I K j j ; - 5 =.1.c % r =.' W ( n 4 6 u 6 X O : & * j z K I I I I I I I I I I I I I I I I I ",
"I I I I I I I I I I I I I I I I I I P #.j 5 + & 6 W =.( r z W n & X X O : r , O @ O : , w z P I I I I I I I I I I I I I I I I I ",
"I I I I I I I I I I I I I I I I I I I J 9 5 @ 2 $.;.m E n 7 7 6 , 3 & X + , * o 3 % % O 3 ^ I P ^.P I I I I I L I I I I I I I I ",
"I I I I I I I I I I I I I I I I I I I I 9 % ; N -.x k j x k 4 , , & & & % & o o O ; 2 @ y | U P P I I I P P I ^.^.I I I I I I I ",
"I I I I I I I I I I I I I I I I I I I I S @ O 5 l l g 6 k b k r O % n b ( u % 6 3 7 j k ^ 9X^.I P I I I ^.P H P H I I I I I I I ",
"I I I I I I I I I I I I I I I I I I I I P y ; @ ; C ' = : 5 4 ; ; 5 &.k y 3 3 ( v 6 j v R ,X^.^.I I I H I I L ^.P I I I I I I I ",
"I I I I I I I I I I I I I I I I I I I I I J 8 ; + ; , , 5 q + . : j j * @ * * , z v ! ^ H P I U G I ^.^.^.^.H L I I ^.I I I I I ",
"I I I I I I I I I I I I I I I I I I I I I I K ! q , C w , +   . o 6 r % o % % . + 5 j S I L L L ^.^.^.I I P H ^.I P H I I I I I ",
"I I I I I I I I I I I I I I I I I I U ..I I I d.c h N q O   + + > > O + o . o * X   # H I P L L ^.P G P I I P H I I I I I I I I ",
"I I I I I I I I I I I I I I I I P Y X.o.U ..iXE.i.c q , % +   O : 5 % % : O O + . 4 u.I I U I P ^.L L I I I I ^.I I I I I I I I ",
"I I I I I I I I I I I I I I I I I U o.^./.yXpXBXzXJ.A , - q g > + ; : O . O X . c eXpXwXI I I I I I I I I I I I I P Y Y L I I I ",
"I I I I I I I I I I I I I I I I I U ..L 3XQ.MXmXMX!.N.w.< 1 ` q > @ $ . . * g i.cXCXxX!.s.I I I I I I I I I I I I I I I P I I ..",
"I I I I I I I I I I I I I I I I J U P ..iXdXmXmXxX!.OX Xh.e 0 0 q 0 1 < i.J.eXBXMXxXMXpXj.I I I I I I I I I I I I I I I I I I I ",
"I I I I I I I I I I I I I I I I I U I f.Q.mXxXmXlXW.[.}.b.N.p f f f i.T.cXmXmXmXzXmXnXdXW.I I I I I I I I I I I P s.Y I I I I I ",
"I I I I I I I I I I I I I I I I I I H 3XaXmXnXNXcXQ.|.x.w.;Xb.0.R.R.xXBXmXnXmXxXnXzXzXfX~.<XI I I I I I I I I I U o.Y I I I I I ",
"I I I I I I I I I I I I I I I I I I I 3XpXnXNXVXvXB.|.[.n.-Xn.8.E.CXBXxXMXmXzXzXnXzXNXnXW.3XI I I I I I I I I I ^.o.I P I I I I ",
"I I I I I I I I I I I I I I I I U Y I yXfXmXvXVXaX[. X%X-X=X'.s 9.~.CXcXiXcXdXiXmXzXzXmXQ.U.I I I I I I I I I I X.P P I I I I I ",
"I I I I I I I I I I I I I I I I I P I T.zXmXcXmXaXOXz.e.+X*X%Xh.w.c.!.jXh.NXdX!.mXnXnXnXpXU.I I I I I I I I I I H H U s.Y I I I ",
"I I I I I I I I I I I I I I I I I I o.iXzXxXnXmXgXb.8.p h.=X%X*X-X*Xa.I.xXmXaX~.lXnXnXmXpXU.X.P I I I I I I I I P X.X.X.I I I I ",
"I I I I I I I I I I I I I I I I I I O.iXzXmXmXxXOXq.a q.e.$X*X$X#X:Xr.p c.~.!.!.lXmXzXmXaXU.P I I I I I I I I I I P L P P I I P ",
"I I I I I I I I I I I I I I I I I I X.jXnXxXxXmXM.q.q.q.w.#X-Xp.8.@X@Xw.q.c.v.v.lXNXnXmXdXU.X.P I I I I I I I I X.I P P I I U U ",
"I I I I I I I I I I I I I I I I I I J lXnXxXmXmXM.8.q.s h.=X=Xp.e h.:X*X$X$XB.c.Y.BXmXmXdXyXP o.I I I I I I I I P X.X.I I P I I ",
"I I I I I I I I I I I I I I I I I I O.aXzXmXmXlX#Xy.i p.%X-X=X{.r.`.*X$X$X%X>Xz.p.BXmXmXpXwXI P I I I I I I I I I I I I I U I P ",
"I I I I I I I I I I I I I I I I I I X.eXfXmXmXfX[.|.[.;X&Xr.`.=X=X*X*Xh.a +X X].oXxXxXmXuX5XP X.I I I I I I I I I U I I I I I U ",
"I I I I I I I I I I I I I I I I I I I yXmXmXmXfX|.z.b.:XXXa `.=X$X$X%XoXn.#X$X}.&XzXxXxXdXk.o.P I I I I I I I I P I I I P P I U ",
"I I I I I I I I I I I I I I I I I I I tXlXxXmXgX|.z.i '.;X+X$X X=X-X%X%X-X-X%X}.m.kXmXmXdX7XP I I I I I I I I I U I P I I U I P ",
"I I I I I I I I I I I I I I I I I I I 6XfXzXmXgX}. X[.{.*X*X%X%Xn.h.XX*XXXh.{. Xq.U.BXnXfX).I I I I I I I I I I I I I I I I I I ",
"I I I I I I I I I I I I I I I I I I I 3XfXzXmXoX].]. X=X$X$X%X*Xq.e e.:Xy.e n.>Xl.M.mXzXcXs.I I I I I I I I I I I I I I I I I I ",
"I I I I I I I I I I I I I I I I I I U <XfXmXmXN.7.8.w.m.*X$X*X-XXXp.n.=Xn.p.#X X}.Q.lXnXtXU I I I I I I I I I I I I I I I I I I ",
"I I I I I I I I I I I I I I I I I I I ^.lXmXlXT.i i d e.=X=Xn.e.#X:X*X$X%X-X.Xx.ZXaXaXnXkXY I I I I I I I I I I I I I I I I I I ",
"I I I I I I I I I I I I I I I I I I I <XfXzX~.kXd.t.t.`.>X:XXXq.`.-X*X%X=Xy.u.d.bXjX!.mXcX).I I I I I I I I I I I I I I I I I I ",
"I I I I I I I I I I I I I I I I I I I 7XzXlX!.E.bX8X@X>X>X`.XX*X.Xx.]. X&Xw.f.+.T.xXmXlXcXo.I I I I I I I I I I I I I I I I I I ",
"I I I I I I I I I I I I I I I I I I U ).fXlXfXM.P I ^.gXb.a r.AX8X_._.oXOXv._.I _.E.aXpXrXI I I I I I I I I I I I I I I I I I I ",
"I I I I I I I I I I I I I I I I I I I U tXuXpX_.P P I <Xc.c.'...I I I <Xv.W.o.I I 5XpXkXO.I I I I I I I I I I I I I I I I I I I ",
"I Y P I I U P U I I I I I I I I I I I I ^.rXhXI I I I I E.v.6XP P I U s.v.T.I I P (.7Xo.U U I I I I I I I I I P P I I I I I I I ",
"I I P U U o.U P I I I I I I I I I I I I I I I I I I I I <Xv.6XU U I U o.aXrXI P U I I I I I I I P I I I I I I I U I I I I I I I ",
"U P U I P o.^.P I I I I I I I I I I I I I I I I I I I I I kX3XP U I U o.tX<XI I I I I I P I I I I I I I I I I I I I I I I I I I ",
"U I U P P P ^.o.I I I I I I I I I I I I I I I I I I I I P bX3XI I P I O.rXO.I I P I I I I I I I I I U I P I I U I P I I I I I U ",
"I P I P U P I Y I I I I I I I I I I I I I I I I I I I I U 8X7XI I I P ^.bX<XP I I I I I I I U I I I I I I I I I U I I I I I I I ",
"I I P I /.U L P I I I I I I I I I I I I I I I I I I I I I I I I I I P I ^.^.U ^.^.U I I I I I I I I I I I I U P I I I I U I U I ",
"U I I Y Y Y I P I I I I I I I I I I I I I I I I I I I I I I I I I P P P I U ^./.Y U I I I I I I I I P I U U U I I I I I I I I U ",
"I P I U G P I I I I I I I I I I I I I I I I I I I I I I I I I I U P U P H P Y Y P I I I I I I I I P I U o.Y U I /.^.Y U I P I I "
};
