/* XPM */
static char * enemy8ok_xpm[] = {
"64 64 582 2",
"  	c #72751B",
". 	c #7F8226",
"+ 	c #787B21",
"@ 	c #656C17",
"# 	c #71731C",
"$ 	c #534F28",
"% 	c #6F721C",
"& 	c #585526",
"* 	c #6F711D",
"= 	c #666621",
"- 	c #70731C",
"; 	c #555227",
"> 	c #71741C",
", 	c #3A2D2D",
"' 	c #473F2A",
") 	c #666721",
"! 	c #6E701D",
"~ 	c #532C4B",
"{ 	c #707221",
"] 	c #5A4145",
"^ 	c #675E36",
"/ 	c #36083A",
"( 	c #6F721B",
"_ 	c #616122",
": 	c #41223C",
"< 	c #665E36",
"[ 	c #6D6F1E",
"} 	c #29072F",
"| 	c #4E4928",
"1 	c #4F244A",
"2 	c #636226",
"3 	c #6B662F",
"4 	c #382630",
"5 	c #63583B",
"6 	c #5A4344",
"7 	c #6E711C",
"8 	c #4F234B",
"9 	c #39292F",
"0 	c #545127",
"a 	c #37272D",
"b 	c #646520",
"c 	c #5A4244",
"d 	c #565426",
"e 	c #3E183E",
"f 	c #28072E",
"g 	c #320836",
"h 	c #311730",
"i 	c #575426",
"j 	c #605736",
"k 	c #36262D",
"l 	c #645939",
"m 	c #6B682D",
"n 	c #6E6E26",
"o 	c #524F28",
"p 	c #5A552C",
"q 	c #2D0733",
"r 	c #38093C",
"s 	c #350839",
"t 	c #41382C",
"u 	c #2D152F",
"v 	c #69682A",
"w 	c #5C5B24",
"x 	c #4A0B4C",
"y 	c #60523D",
"z 	c #5E4E40",
"A 	c #501E4D",
"B 	c #707220",
"C 	c #5F503E",
"D 	c #4B0C4D",
"E 	c #480B4A",
"F 	c #37093B",
"G 	c #4A0C4C",
"H 	c #37282D",
"I 	c #68682A",
"J 	c #616028",
"K 	c #330837",
"L 	c #4D0C4F",
"M 	c #5E4B41",
"N 	c #553549",
"O 	c #6E6D27",
"P 	c #3E0A41",
"Q 	c #37083B",
"R 	c #452337",
"S 	c #440E3C",
"T 	c #2C0928",
"U 	c #626223",
"V 	c #595726",
"W 	c #535522",
"X 	c #717323",
"Y 	c #352030",
"Z 	c #4E0C50",
"` 	c #73722C",
" .	c #62553B",
"..	c #6A662E",
"+.	c #4C0C4E",
"@.	c #2C0732",
"#.	c #440A47",
"$.	c #3B1021",
"%.	c #2B0A18",
"&.	c #440F42",
"*.	c #2A0C2F",
"=.	c #33212E",
"-.	c #5A4641",
";.	c #636623",
">.	c #403A2A",
",.	c #5A3F47",
"'.	c #696530",
").	c #4D104F",
"!.	c #420A45",
"~.	c #390C30",
"{.	c #360D1E",
"].	c #432531",
"^.	c #4B283C",
"/.	c #563946",
"(.	c #4C4033",
"_.	c #5A4146",
":.	c #5C4742",
"<.	c #35083A",
"[.	c #2A072F",
"}.	c #380E24",
"|.	c #2F0B19",
"1.	c #482040",
"2.	c #452934",
"3.	c #3C1838",
"4.	c #400A43",
"5.	c #3A2832",
"6.	c #64691D",
"7.	c #6A672D",
"8.	c #430A45",
"9.	c #2B082E",
"0.	c #3B0F21",
"a.	c #2A091A",
"b.	c #4B0C4C",
"c.	c #421E3B",
"d.	c #432733",
"e.	c #2E0E31",
"f.	c #310835",
"g.	c #5E5437",
"h.	c #2A092F",
"i.	c #492046",
"j.	c #717220",
"k.	c #4B1A4B",
"l.	c #3A093E",
"m.	c #420A46",
"n.	c #370D25",
"o.	c #3F0D35",
"p.	c #411E3A",
"q.	c #3F2630",
"r.	c #461047",
"s.	c #5C582C",
"t.	c #4B174B",
"u.	c #2B0731",
"v.	c #340D1F",
"w.	c #420E36",
"x.	c #441E3E",
"y.	c #3E252F",
"z.	c #4C104D",
"A.	c #310836",
"B.	c #2D0732",
"C.	c #6B6D1F",
"D.	c #6B6B22",
"E.	c #2E0923",
"F.	c #340D1D",
"G.	c #490F47",
"H.	c #3E2530",
"I.	c #391F30",
"J.	c #2E0833",
"K.	c #381838",
"L.	c #535028",
"M.	c #4B452A",
"N.	c #6C6E1E",
"O.	c #270914",
"P.	c #330C1C",
"Q.	c #3D212C",
"R.	c #481348",
"S.	c #460B48",
"T.	c #512F46",
"U.	c #5B5A25",
"V.	c #39093C",
"W.	c #401739",
"X.	c #270916",
"Y.	c #3B0F20",
"Z.	c #4D0C50",
"`.	c #3A093D",
" +	c #4E0C4F",
".+	c #433B2B",
"++	c #6E701F",
"@+	c #4C1D49",
"#+	c #2A0730",
"$+	c #4C154C",
"%+	c #492B38",
"&+	c #520C17",
"*+	c #280916",
"=+	c #340839",
"-+	c #4A0C4D",
";+	c #543249",
">+	c #4D0B50",
",+	c #4A2939",
"'+	c #B1262C",
")+	c #CD1F21",
"!+	c #410E34",
"~+	c #4E0B50",
"{+	c #3F2433",
"]+	c #CE2529",
"^+	c #CC1F22",
"/+	c #290916",
"(+	c #3E0C33",
"_+	c #2E0733",
":+	c #4C4729",
"<+	c #70722C",
"[+	c #717326",
"}+	c #3B083F",
"|+	c #51242F",
"1+	c #C61E23",
"2+	c #2A0917",
"3+	c #380A33",
"4+	c #6B6945",
"5+	c #5A4772",
"6+	c #5E4F6B",
"7+	c #72741F",
"8+	c #504C28",
"9+	c #2F0734",
"0+	c #461844",
"a+	c #3C1826",
"b+	c #230A18",
"c+	c #270913",
"d+	c #450B48",
"e+	c #3D322C",
"f+	c #504267",
"g+	c #3B3957",
"h+	c #3C3957",
"i+	c #574D62",
"j+	c #4C4629",
"k+	c #410A42",
"l+	c #2C0A17",
"m+	c #280915",
"n+	c #3C0A3B",
"o+	c #34242D",
"p+	c #4E4A29",
"q+	c #70722A",
"r+	c #423A57",
"s+	c #A45537",
"t+	c #8A4527",
"u+	c #4A4851",
"v+	c #321E2E",
"w+	c #67681E",
"x+	c #2A0F16",
"y+	c #2C1416",
"z+	c #33212B",
"A+	c #5E5D23",
"B+	c #6F721D",
"C+	c #5F5269",
"D+	c #4F4166",
"E+	c #694751",
"F+	c #BE6221",
"G+	c #8F461F",
"H+	c #36313C",
"I+	c #6C6E2B",
"J+	c #504C19",
"K+	c #422C1E",
"L+	c #514D18",
"M+	c #938320",
"N+	c #978520",
"O+	c #8E7529",
"P+	c #5A4E6B",
"Q+	c #5B3F46",
"R+	c #C87725",
"S+	c #9F5E22",
"T+	c #2C1F32",
"U+	c #6C6C3D",
"V+	c #71741B",
"W+	c #453A19",
"X+	c #463A1A",
"Y+	c #817A1D",
"Z+	c #CB8026",
"`+	c #BB652E",
" @	c #C37536",
".@	c #975E45",
"+@	c #594057",
"@@	c #5F393B",
"#@	c #3F241D",
"$@	c #2C202A",
"%@	c #736F32",
"&@	c #CB9D29",
"*@	c #BD9726",
"=@	c #494219",
"-@	c #72741B",
";@	c #696A45",
">@	c #56425F",
",@	c #C2732F",
"'@	c #CE7B24",
")@	c #AE6952",
"!@	c #483E5F",
"~@	c #352E46",
"{@	c #644743",
"]@	c #D29E28",
"^@	c #BB7724",
"/@	c #53471E",
"(@	c #4B4618",
"_@	c #4E4166",
":@	c #38334F",
"<@	c #954C31",
"[@	c #B66329",
"}@	c #CE7A26",
"|@	c #CE8427",
"1@	c #7A504E",
"2@	c #7F654E",
"3@	c #BD7533",
"4@	c #B18C24",
"5@	c #50471C",
"6@	c #4A4518",
"7@	c #605661",
"8@	c #413B59",
"9@	c #322941",
"0@	c #955836",
"a@	c #824F3A",
"b@	c #CC7E26",
"c@	c #CD7926",
"d@	c #BE6A23",
"e@	c #C97625",
"f@	c #945031",
"g@	c #6E7123",
"h@	c #72751D",
"i@	c #71711F",
"j@	c #4B1C2B",
"k@	c #6E711B",
"l@	c #707130",
"m@	c #474157",
"n@	c #3B3551",
"o@	c #61632D",
"p@	c #61632C",
"q@	c #1E2242",
"r@	c #BD712C",
"s@	c #703B3A",
"t@	c #824336",
"u@	c #8D4833",
"v@	c #C97425",
"w@	c #202341",
"x@	c #38324D",
"y@	c #53514B",
"z@	c #646538",
"A@	c #8E6D6F",
"B@	c #865275",
"C@	c #514367",
"D@	c #3F3A57",
"E@	c #362F4A",
"F@	c #595A32",
"G@	c #55333E",
"H@	c #C16D25",
"I@	c #5D414A",
"J@	c #3D3855",
"K@	c #A26135",
"L@	c #61652B",
"M@	c #312941",
"N@	c #39334E",
"O@	c #3D3854",
"P@	c #3D3957",
"Q@	c #845268",
"R@	c #8E5975",
"S@	c #686352",
"T@	c #352E48",
"U@	c #555434",
"V@	c #70721E",
"W@	c #332B40",
"X@	c #935C7A",
"Y@	c #96553E",
"Z@	c #403A57",
"`@	c #676828",
" #	c #342C40",
".#	c #322942",
"+#	c #352D47",
"@#	c #50374F",
"##	c #8A566E",
"$#	c #5B5B42",
"%#	c #3E3855",
"&#	c #342C43",
"*#	c #686A26",
"=#	c #575733",
"-#	c #393551",
";#	c #9A6D46",
">#	c #473A4D",
",#	c #4D4B38",
"'#	c #312841",
")#	c #312840",
"!#	c #332B45",
"~#	c #38304B",
"{#	c #290D1E",
"]#	c #71741F",
"^#	c #3C3753",
"/#	c #616331",
"(#	c #3E3956",
"_#	c #955B45",
":#	c #705540",
"<#	c #3C3653",
"[#	c #B28D22",
"}#	c #45423B",
"|#	c #3A1723",
"1#	c #61611A",
"2#	c #3C3652",
"3#	c #A18921",
"4#	c #B38A32",
"5#	c #3C3144",
"6#	c #4D3B55",
"7#	c #CA842A",
"8#	c #6E553D",
"9#	c #B07921",
"0#	c #422421",
"a#	c #64611D",
"b#	c #3D3A56",
"c#	c #2C263E",
"d#	c #7D6129",
"e#	c #C67224",
"f#	c #D19128",
"g#	c #744942",
"h#	c #CA7828",
"i#	c #AA6532",
"j#	c #63303A",
"k#	c #62611A",
"l#	c #717421",
"m#	c #865A7F",
"n#	c #946086",
"o#	c #3B2F44",
"p#	c #3A344F",
"q#	c #59343E",
"r#	c #C46F26",
"s#	c #CC7A26",
"t#	c #CD7A26",
"u#	c #4B4C37",
"v#	c #72751C",
"w#	c #5D2D35",
"x#	c #606119",
"y#	c #747527",
"z#	c #A16891",
"A#	c #8D5872",
"B#	c #915F80",
"C#	c #555449",
"D#	c #312842",
"E#	c #5B353D",
"F#	c #C66F24",
"G#	c #935837",
"H#	c #70731E",
"I#	c #352218",
"J#	c #616119",
"K#	c #737424",
"L#	c #8D5873",
"M#	c #875368",
"N#	c #7F6254",
"O#	c #866A5F",
"P#	c #6F7224",
"Q#	c #464353",
"R#	c #3F3A58",
"S#	c #302842",
"T#	c #895338",
"U#	c #C26722",
"V#	c #C56F24",
"W#	c #CD7B26",
"X#	c #934B32",
"Y#	c #716D24",
"Z#	c #362419",
"`#	c #6A6C1A",
" $	c #737421",
".$	c #865565",
"+$	c #855B62",
"@$	c #747526",
"#$	c #7F761F",
"$$	c #403B53",
"%$	c #38314C",
"&$	c #3D2D40",
"*$	c #AE6831",
"=$	c #2F2A46",
"-$	c #B75C24",
";$	c #BA5E22",
">$	c #302841",
",$	c #6E612C",
"'$	c #462822",
")$	c #75722D",
"!$	c #796F3D",
"~$	c #777529",
"{$	c #C77A25",
"]$	c #A96633",
"^$	c #372E46",
"/$	c #332941",
"($	c #68413D",
"_$	c #734C4B",
":$	c #393958",
"<$	c #B75C26",
"[$	c #B95D23",
"}$	c #292641",
"|$	c #462823",
"1$	c #93771D",
"2$	c #AB6631",
"3$	c #D17C24",
"4$	c #B56C2F",
"5$	c #744E4F",
"6$	c #383858",
"7$	c #B3642F",
"8$	c #2C2F4D",
"9$	c #696026",
"0$	c #452821",
"a$	c #5D5E41",
"b$	c #3F3853",
"c$	c #412F41",
"d$	c #905737",
"e$	c #734D4D",
"f$	c #373858",
"g$	c #BD7133",
"h$	c #38324C",
"i$	c #625F1D",
"j$	c #352517",
"k$	c #71741D",
"l$	c #474353",
"m$	c #865139",
"n$	c #C1732B",
"o$	c #453040",
"p$	c #312740",
"q$	c #5F5F19",
"r$	c #352617",
"s$	c #636539",
"t$	c #3A2D44",
"u$	c #CE7723",
"v$	c #855139",
"w$	c #2D2741",
"x$	c #353554",
"y$	c #B66732",
"z$	c #551E34",
"A$	c #666736",
"B$	c #3D3754",
"C$	c #332B44",
"D$	c #864736",
"E$	c #B55F27",
"F$	c #7E4C3A",
"G$	c #262642",
"H$	c #AB5730",
"I$	c #3B3855",
"J$	c #370E1E",
"K$	c #7F8124",
"L$	c #2E2741",
"M$	c #3D2B40",
"N$	c #B35F29",
"O$	c #B46C2F",
"P$	c #6C3D3C",
"Q$	c #312943",
"R$	c #350C1D",
"S$	c #5A5B44",
"T$	c #B1602A",
"U$	c #242441",
"V$	c #403B57",
"W$	c #362F49",
"X$	c #332A44",
"Y$	c #312942",
"Z$	c #352941",
"`$	c #B35E28",
" %	c #C77628",
".%	c #52363F",
"+%	c #71731E",
"@%	c #6F711B",
"#%	c #35111C",
"$%	c #686F16",
"%%	c #3B3550",
"&%	c #362E49",
"*%	c #37304A",
"=%	c #3C2B40",
"-%	c #B25F2A",
";%	c #C26822",
">%	c #77741B",
",%	c #4B421A",
"'%	c #4D4918",
")%	c #45424B",
"!%	c #3A3450",
"~%	c #372F4A",
"{%	c #3B3450",
"]%	c #2C2741",
"^%	c #2B2741",
"/%	c #4C431A",
"(%	c #696B26",
"_%	c #3C363E",
":%	c #3B3540",
"<%	c #3B353F",
"[%	c #3B3640",
"}%	c #39333F",
"|%	c #4E4919",
"1%	c #514E18",
"                                                                                                        . + +   @ +     .       ",
"                                                                                                        @ + + + @   + + @       ",
"                    .                                                                                 . + @ + +     + + @       ",
"          . . +     + +                                                                               @ + + @ +     @ @         ",
"            . + +   @ +     .                                 # $                                       @ + @ @                 ",
"            @ + + + @   + + @                               % &                                                                 ",
"          . + @ + +     + + @                               * =                                                                 ",
"          @ + + @ +     @ @                           -             ; >                                                         ",
"            @ + @ @                                   ,               '                                                         ",
"                                                                      ) !                                                       ",
"                                                          ~ {     ]                                                             ",
"                                                        ^ / (   _ :   <                                                         ",
"                                                      [ } | 1 2 3 4 5 6                                                         ",
"                                                      [ } 7 8 9 0 a b c >                                                       ",
"                                                      [ } d e f g h i j k     l m                                               ",
"                                                    n   o p q r r s } t u v w x y                                               ",
"                                                  z A B C D E F G D f   H I J K L M   . .                                       ",
"                                                n L N O L L P Q R S T U V W X Y Z L ` .                                         ",
"                                                n L  ...L +.@.#.$.%.&.*.=.-.;.>.P ,.+ +                                         ",
"                                                n L '.).L !.} ~.{.].^.} } !.A /.f (.+ @                                         ",
"                                                  _.:.L L <.[.}.|.1.2.3.q 4.L +.g 5.6.                                          ",
"                                                7.s D L L 8.9.0.a.b.c.d.e.f.s +.g.h.i.j.                                        ",
"                                                k.f l.L L m.n.0.o.L p.q.r.Z } K } } h.s.                                        ",
"                                                t.f } u.x m.v.0.w.L x.y.z.L A.B.} } C.                                          ",
"                                                D.} } } !.4.E.F.0.G.H.I.J.Z <.K.L.M.                                            ",
"                                                N.} } } } s G O.P.$.Q.R.S.Z / L T.      + .                                     ",
"                                                  U.} f } V.L W.X.F.Y.Z.L `./ L  +.+      . .                                   ",
"                                                    ++@+#++.$+%+&+*+F.w.L r =+G -+M.      + + +                                 ",
"                                                    ;+L F >+,+'+)+*+X.!++.f } f f         @ + + @ + + . .                       ",
"                                                    L L F ~+{+]+^+/+*+(+_+} } :+            @ @ + + +                           ",
"                                    <+<+[+          l.G [.}+{+|+1+2+*+3+_+} } N.                + + @                           ",
"                                  4+5+5+6+7+    + + 8+/ } 9+0+a+b+*+c+d+} } e+-                 + @                             ",
"                                7+5+f+g+h+i+  + +     j+} f k+l+*+m+n+o+p+                                                      ",
"                                q+f+r+s+t+u+  + +       M.v+w+x+y+z+A+B+                                                        ",
"                                C+D+E+F+G+H+I+@ @           J+K+K+L+                                                            ",
"                          M+N+O+P+h+Q+R+S+T+U+              V+W+X+V+                                                .           ",
"                          Y+Z+`+ @.@+@@@#@$@%@&@*@          V+=@=@-@                                              .             ",
"                            ;@>@,@'@)@!@~@{@]@^@              /@(@                                              + +             ",
"                          7+_@:@<@[@}@|@1@2@3@4@              5@6@                                              + + @           ",
"                          7@8@9@9@0@a@b@c@d@e@f@g@h@        i@j@k@                                              @ @ + .         ",
"                        l@m@n@o@p@q@r@s@t@u@v@w@x@y@z@      A@B@                                                    + +         ",
"                        C@D@E@>   F@G@H@I@J@K@L@M@N@O@D@D@P@Q@R@                                                    @ @         ",
"                      S@D@T@U@    V@W@X@Y@Z@J@  `@ #.#+#D@D@@###                                                                ",
"                      $#%#&#*#      =#-#;#>#D@      ,#'#)#!#~#{#          . .           .                                       ",
"                    ]#D@^# #        /#(#_#:#<#[#      >   }#|#1#            . + +   + .                                         ",
"                    ]#D@2# #      3#4#5#6#7#8#9#            0#a#      + . . @ + @ + + @                                         ",
"                    ]#b#c# #      d#e#f#g#h#i#9#            j#k#        . + + @ @ + + @                                         ",
"                    l#m#n#o#    h@p#q#r#s#t#t#u#v#          w#x#        @ + +     + @                                           ",
"                    y#z#A#B#    C#D@D#E#F#t#t#G#H#          I#J#          @ +                                                   ",
"                    K#L#M#N#O#P#Q#R#S#T#U#V#W#X#H#        Y#Z#`#                                                                ",
"                     $.$+$@$#$$$D@%$&$*$=$-$;$>$H#        ,$'$                                                                  ",
"                      )$!$~${$]$^$/$($_$:$<$[$}$H#        ,$|$                                                                  ",
"                            1$2$3$4$t#5$6$7$8$+#H#        9$0$                                                                  ",
"                            a$b$c$d$t#e$f$g$g+h$H#        i$j$                                                                  ",
"                          k$l$O@.#m$n$o$f$g$g+p$H#        q$r$                                                                  ",
"                          s$D@(#t$u$v$w$x$y$h+'#H#        z$(                                                                   ",
"                        A$D@D@B$C$D$E$F$G$H$I$'#H#        J$k@                                                                  ",
"          K$            D@D@D@D@D@L$M$N$O$P$Q$'#H#        R$k@                                                                  ",
"            K$        S$D@D@D@D@D@)#'#L$T$v$U$'#H#        R$k@      + +                                                         ",
"            + +     ]#V$D@D@D@D@W$X$X$Y$Z$`$ %.%+%      @%#%@%      $%K$K$                                                      ",
"          $%+ +     ]#D@D@D@%%&%J@D@D@2#*%=%-%;%>%      ,%'%          K$+ +       +                                             ",
"        K$+ $%$%    )%O@!%X$'#~%%#D@{%!%!%N@]%^%H#      /%'%          $%+ +   K$+                                               ",
"        + +       (%_%:%<%<%<%[%[%[%<%<%<%<%<%}%H#      |%1%          $%+ + + K$K$                        K$                    ",
"        $%$%                                                            $%$%+ + $%                      + +     K$K$+           "};
