/* XPM */
static char * enemy5ok_xpm[] = {
"64 64 545 2",
"  	c #72751B",
". 	c #7F8226",
"+ 	c #787B21",
"@ 	c #656C17",
"# 	c #514E27",
"$ 	c #676820",
"% 	c #646422",
"& 	c #6E701D",
"* 	c #686233",
"= 	c #4D0C4F",
"- 	c #39093C",
"; 	c #686920",
"> 	c #606023",
", 	c #321E2E",
"' 	c #392C2D",
") 	c #3E1F3B",
"! 	c #4A0C4D",
"~ 	c #49422A",
"{ 	c #6A6C1F",
"] 	c #460B49",
"^ 	c #3C093F",
"/ 	c #524B2E",
"( 	c #646522",
"_ 	c #696B1F",
": 	c #3D0941",
"< 	c #4C452B",
"[ 	c #48412A",
"} 	c #71741B",
"| 	c #60513E",
"1 	c #512B4A",
"2 	c #6F6F25",
"3 	c #5C4644",
"4 	c #646521",
"5 	c #707221",
"6 	c #4E0C50",
"7 	c #3B302C",
"8 	c #6F721C",
"9 	c #4A442A",
"0 	c #70721C",
"a 	c #442340",
"b 	c #463734",
"c 	c #71741C",
"d 	c #6D6F1E",
"e 	c #6E711C",
"f 	c #450B48",
"g 	c #3D322C",
"h 	c #5F5F22",
"i 	c #545126",
"j 	c #565425",
"k 	c #4A0B4C",
"l 	c #331A31",
"m 	c #696924",
"n 	c #50214D",
"o 	c #4D0E4F",
"p 	c #4B0C4D",
"q 	c #2C0732",
"r 	c #6B6D1F",
"s 	c #351B33",
"t 	c #543249",
"u 	c #301B2E",
"v 	c #616122",
"w 	c #4C1C4A",
"x 	c #4F1C4D",
"y 	c #3F0A42",
"z 	c #2B0731",
"A 	c #29072F",
"B 	c #350839",
"C 	c #4C0C4E",
"D 	c #5A5924",
"E 	c #62553B",
"F 	c #58542A",
"G 	c #3A093D",
"H 	c #4E134E",
"I 	c #502A48",
"J 	c #72751C",
"K 	c #616023",
"L 	c #40362C",
"M 	c #3A093E",
"N 	c #4D0D4F",
"O 	c #300835",
"P 	c #33202E",
"Q 	c #470D4A",
"R 	c #320837",
"S 	c #64632A",
"T 	c #585626",
"U 	c #4D0B4F",
"V 	c #452337",
"W 	c #440E3C",
"X 	c #440C41",
"Y 	c #727523",
"Z 	c #460B48",
"` 	c #56532A",
" .	c #392B2D",
"..	c #470B49",
"+.	c #3B1021",
"@.	c #2B0A18",
"#.	c #440F42",
"$.	c #60651B",
"%.	c #420A45",
"&.	c #717223",
"*.	c #666721",
"=.	c #47402A",
"-.	c #360D1E",
";.	c #432531",
">.	c #4B283C",
",.	c #41372C",
"'.	c #616027",
").	c #443B2C",
"!.	c #545127",
"~.	c #311D2E",
"{.	c #28072E",
"].	c #450B47",
"^.	c #3F0F2D",
"/.	c #2F0B19",
"(.	c #482040",
"_.	c #452934",
":.	c #4C1A49",
"<.	c #6C6E1E",
"[.	c #32212D",
"}.	c #3D312C",
"|.	c #606022",
"1.	c #4B104D",
"2.	c #4C0C4C",
"3.	c #3B0F20",
"4.	c #2A091A",
"5.	c #4B0C4C",
"6.	c #441F3D",
"7.	c #422733",
"8.	c #4D124D",
"9.	c #686628",
"0.	c #71731C",
"a.	c #50204D",
"b.	c #410E33",
"c.	c #3B0F21",
"d.	c #3F0D35",
"e.	c #4B0C4E",
"f.	c #3A1E33",
"g.	c #3F2630",
"h.	c #4C114C",
"i.	c #351834",
"j.	c #4D0C50",
"k.	c #370D24",
"l.	c #350D26",
"m.	c #371D30",
"n.	c #3E252F",
"o.	c #4C104C",
"p.	c #2F0834",
"q.	c #5B5A25",
"r.	c #71731F",
"s.	c #501E4D",
"t.	c #310A28",
"u.	c #340D1D",
"v.	c #2F0C2D",
"w.	c #3E2530",
"x.	c #43203B",
"y.	c #430A46",
"z.	c #5C5B25",
"A.	c #482F3C",
"B.	c #270914",
"C.	c #330C1C",
"D.	c #3D212C",
"E.	c #4B134A",
"F.	c #28072F",
"G.	c #2D152F",
"H.	c #401739",
"I.	c #270916",
"J.	c #35083A",
"K.	c #27072D",
"L.	c #4D4829",
"M.	c #2A0730",
"N.	c #4C154C",
"O.	c #492B38",
"P.	c #520C17",
"Q.	c #280916",
"R.	c #410E35",
"S.	c #453D2B",
"T.	c #514D28",
"U.	c #330837",
"V.	c #4E0B50",
"W.	c #4A2939",
"X.	c #B1262C",
"Y.	c #CD1F21",
"Z.	c #410E34",
"`.	c #33212E",
" +	c #28062E",
".+	c #3C2330",
"++	c #CE2529",
"@+	c #CC1F22",
"#+	c #290916",
"$+	c #3D0C32",
"%+	c #29062F",
"&+	c #3D2430",
"*+	c #51242F",
"=+	c #C61E23",
"-+	c #2A0917",
";+	c #390A34",
">+	c #410A44",
",+	c #6E711D",
"'+	c #35242E",
")+	c #461843",
"!+	c #3C1826",
"~+	c #230A18",
"{+	c #270913",
"]+	c #6F7033",
"^+	c #5A4872",
"/+	c #5A4772",
"(+	c #665D63",
"_+	c #490C4A",
":+	c #2C0A17",
"<+	c #430B41",
"[+	c #34232E",
"}+	c #72741F",
"|+	c #5B4971",
"1+	c #55446D",
"2+	c #423B5A",
"3+	c #423B59",
"4+	c #605564",
"5+	c #490B4A",
"6+	c #290917",
"7+	c #290918",
"8+	c #480C49",
"9+	c #2E0733",
"0+	c #2D0733",
"a+	c #4B452A",
"b+	c #72751D",
"c+	c #53436B",
"d+	c #3D3A57",
"e+	c #8D4E43",
"f+	c #7A423A",
"g+	c #4A4850",
"h+	c #70731C",
"i+	c #3F352C",
"j+	c #390A33",
"k+	c #3A0D28",
"l+	c #4E4A29",
"m+	c #5F5268",
"n+	c #4E4166",
"o+	c #664451",
"p+	c #BC5F21",
"q+	c #8F461E",
"r+	c #3E3A47",
"s+	c #6F7223",
"t+	c #473F2A",
"u+	c #2D0A1F",
"v+	c #2F0A20",
"w+	c #36272D",
"x+	c #49432A",
"y+	c #79781C",
"z+	c #7B791C",
"A+	c #78751D",
"B+	c #5E5268",
"C+	c #403B58",
"D+	c #68484F",
"E+	c #CB7725",
"F+	c #9C5B22",
"G+	c #2D2033",
"H+	c #6C6C3E",
"I+	c #494219",
"J+	c #6F711D",
"K+	c #9D8621",
"L+	c #CF8C28",
"M+	c #BF6B2E",
"N+	c #AA694F",
"O+	c #7E534D",
"P+	c #453348",
"Q+	c #824C30",
"R+	c #693D1E",
"S+	c #251B2B",
"T+	c #656932",
"U+	c #B49425",
"V+	c #AE9024",
"W+	c #53471E",
"X+	c #4B4618",
"Y+	c #6F7131",
"Z+	c #694863",
"`+	c #C67429",
" @	c #CE7B24",
".@	c #9D6063",
"+@	c #554364",
"@@	c #2B2133",
"#@	c #5F4633",
"$@	c #D2A129",
"%@	c #C67825",
"&@	c #76751B",
"*@	c #50471C",
"=@	c #4A4518",
"-@	c #727420",
";@	c #514464",
">@	c #3B3653",
",@	c #A9582D",
"'@	c #C26D25",
")@	c #CB7928",
"!@	c #C17630",
"~@	c #4A3D56",
"{@	c #544555",
"]@	c #BC7635",
"^@	c #B08D25",
"/@	c #71711F",
"(@	c #4B1C2B",
"_@	c #6E711B",
":@	c #676254",
"<@	c #463D5E",
"[@	c #312841",
"}@	c #2A2741",
"|@	c #935435",
"1@	c #9C5E35",
"2@	c #CF8A27",
"3@	c #CF7B24",
"4@	c #C68124",
"5@	c #CB7C25",
"6@	c #9A5532",
"7@	c #535338",
"8@	c #6C6F2B",
"9@	c #8E6D6F",
"0@	c #865275",
"a@	c #717425",
"b@	c #4A4654",
"c@	c #3E3855",
"d@	c #525136",
"e@	c #262441",
"f@	c #BB702D",
"g@	c #934B32",
"h@	c #A5542C",
"i@	c #A9552A",
"j@	c #C97425",
"k@	c #272541",
"l@	c #39334E",
"m@	c #3D3854",
"n@	c #3F3A57",
"o@	c #3D3957",
"p@	c #845268",
"q@	c #8E5975",
"r@	c #584C66",
"s@	c #403A58",
"t@	c #38314C",
"u@	c #545434",
"v@	c #71423B",
"w@	c #BA6B2B",
"x@	c #38304A",
"y@	c #413751",
"z@	c #B66C2E",
"A@	c #6B6E23",
"B@	c #39333F",
"C@	c #352E40",
"D@	c #322942",
"E@	c #352D47",
"F@	c #50374F",
"G@	c #8A566E",
"H@	c #6C6A45",
"I@	c #39324E",
"J@	c #4A4739",
"K@	c #686A26",
"L@	c #302A41",
"M@	c #9C5A68",
"N@	c #9B593F",
"O@	c #343351",
"P@	c #4D4B38",
"Q@	c #312840",
"R@	c #332B45",
"S@	c #38304B",
"T@	c #290D1E",
"U@	c #5B5B43",
"V@	c #3E3956",
"W@	c #342C44",
"X@	c #60612D",
"Y@	c #45423B",
"Z@	c #3E3753",
"`@	c #9A7446",
" #	c #4A3E52",
".#	c #3A1723",
"+#	c #61611A",
"@#	c #71741F",
"##	c #444055",
"$#	c #3C3753",
"%#	c #342C40",
"&#	c #4B4440",
"*#	c #985F45",
"=#	c #4A3744",
"-#	c #403A57",
";#	c #AA8D21",
">#	c #422421",
",#	c #64611D",
"'#	c #A37D20",
")#	c #C1862D",
"!#	c #282A4B",
"~#	c #684150",
"{#	c #C88C2B",
"]#	c #5C483E",
"^#	c #B07921",
"/#	c #63303A",
"(#	c #62611A",
"_#	c #302841",
":#	c #535339",
"<#	c #AE5B2A",
"[#	c #CA7827",
"}#	c #4F3949",
"|#	c #CA7929",
"1#	c #8C5538",
"2#	c #5D2D35",
"3#	c #606119",
"4#	c #775275",
"5#	c #85577B",
"6#	c #3A2B41",
"7#	c #AE5C2A",
"8#	c #C57629",
"9#	c #CC7A26",
"0#	c #CD7A26",
"a#	c #5A3F3D",
"b#	c #70731D",
"c#	c #352218",
"d#	c #616119",
"e#	c #747527",
"f#	c #A26992",
"g#	c #965F80",
"h#	c #7F5474",
"i#	c #4C4950",
"j#	c #262541",
"k#	c #C56D23",
"l#	c #9C5833",
"m#	c #70731E",
"n#	c #716D24",
"o#	c #362419",
"p#	c #6A6C1A",
"q#	c #747427",
"r#	c #925C7A",
"s#	c #875368",
"t#	c #885568",
"u#	c #656637",
"v#	c #2F2842",
"w#	c #B66D2E",
"x#	c #AB5629",
"y#	c #BC6223",
"z#	c #CA7625",
"A#	c #874635",
"B#	c #6E612C",
"C#	c #462822",
"D#	c #806156",
"E#	c #7A6B42",
"F#	c #A1781E",
"G#	c #3F334A",
"H#	c #332A43",
"I#	c #5D3C3E",
"J#	c #84513A",
"K#	c #313554",
"L#	c #B75C25",
"M#	c #BA5D22",
"N#	c #272642",
"O#	c #462823",
"P#	c #74751B",
"Q#	c #C07A23",
"R#	c #C67628",
"S#	c #935936",
"T#	c #6E443C",
"U#	c #9E5F34",
"V#	c #744E4F",
"W#	c #393958",
"X#	c #B15928",
"Y#	c #904A32",
"Z#	c #2D2741",
"`#	c #696026",
" $	c #452821",
".$	c #605E41",
"+$	c #6F4C50",
"@$	c #C0732C",
"#$	c #C57529",
"$$	c #373858",
"%$	c #BC7033",
"&$	c #3B3857",
"*$	c #625F1D",
"=$	c #352517",
"-$	c #71741D",
";$	c #474353",
">$	c #3C3854",
",$	c #2D2742",
"'$	c #54373F",
")$	c #CC7927",
"!$	c #704742",
"~$	c #BD7133",
"{$	c #3B3957",
"]$	c #332B44",
"^$	c #5F5F19",
"/$	c #352617",
"($	c #636539",
"_$	c #362C44",
":$	c #B46C2F",
"<$	c #965A36",
"[$	c #BD7233",
"}$	c #551E34",
"|$	c #6F721B",
"1$	c #666736",
"2$	c #3D3754",
"3$	c #392C44",
"4$	c #BF6A26",
"5$	c #BA6D2C",
"6$	c #3B2C41",
"7$	c #302F4C",
"8$	c #AC5931",
"9$	c #3C3957",
"0$	c #370E1E",
"a$	c #7F8124",
"b$	c #54323D",
"c$	c #814537",
"d$	c #B66A2D",
"e$	c #1B2242",
"f$	c #AB5730",
"g$	c #35314C",
"h$	c #350C1D",
"i$	c #5A5B44",
"j$	c #2F2741",
"k$	c #894735",
"l$	c #CE7823",
"m$	c #362B41",
"n$	c #403B57",
"o$	c #362F49",
"p$	c #332A44",
"q$	c #854636",
"r$	c #B96D2C",
"s$	c #6F711B",
"t$	c #35111C",
"u$	c #686F16",
"v$	c #3B3550",
"w$	c #362E49",
"x$	c #3D3855",
"y$	c #3C3652",
"z$	c #322F4A",
"A$	c #CC7725",
"B$	c #B06930",
"C$	c #76751C",
"D$	c #4B421A",
"E$	c #4D4918",
"F$	c #45424B",
"G$	c #3A3450",
"H$	c #372F4A",
"I$	c #3B3450",
"J$	c #38334E",
"K$	c #9A4E30",
"L$	c #74741C",
"M$	c #4C431A",
"N$	c #696B26",
"O$	c #3C363E",
"P$	c #3B3540",
"Q$	c #3B353F",
"R$	c #3B3640",
"S$	c #4E4919",
"T$	c #514E18",
"                                                                                                        . + +   @ +     .       ",
"                                                                                                        @ + + + @   + + @       ",
"                    .                                             # $                                 . + @ + +     + + @       ",
"          . . +     + +                               % &       * = - ;                               @ + + @ +     @ @         ",
"            . + +   @ +     .                       > , '       ) = ! ~                                 @ + @ @                 ",
"            @ + + + @   + + @                       {           ] ^ / (                                                         ",
"          . + @ + +     + + @                                 _ : &                                                             ",
"          @ + + @ +     @ @                                   < [ }       | 1 2                                                 ",
"            @ + @ @                                           3 4       5 6 7 8                                                 ",
"                                                              9         0 a b c                                                 ",
"                                                              d           e f g                                                 ",
"                                                              h i j         k l                                                 ",
"                                                          m n o = p q r     = s                                                 ",
"                                                      2 t k = = = = ! u g v = w                                                 ",
"                                                      x = = = = = = = y z A B C D 2 E                                           ",
"                                                    F C = = = = = = = = p q G s   H = I J                                       ",
"                                              K L $ M = = = = = N = = = = M O P   Q R S .                                       ",
"                                              [ , T M = = = = U V W X = = M A Y   Z ` .                                         ",
"                                              A  .[ A ..C = = = +.@.#.= = M A $.  %.&.+                                         ",
"                                              A *.=.A A O = = W -.;.>.= = k ,.c   '.).@                                         ",
"                                              !.~.& A {.].= C ^./.(._.:.= = f <.  $.[.                                          ",
"                                                r }.|.1.= = 2.3.4.5.6.7.8.= = 9.    0.                                          ",
"                                                      a.= = b.c.d.e.f.g.h.= = i.                                                ",
"                                                      a.= j.k.c.l.{.m.n.o.= = p.q.                                              ",
"                                                    r.s.= j.t.u.c.v.w.x.= = y.A z.                                              ",
"                                                    A.= = = 5.B.C.+.D.E.= 6 F.G.d       + .                                     ",
"                                                  % ..= = = = H.I.u.3.J.K.{.A <.          . .                                   ",
"                                                  L.M.O C = N.O.P.Q.u.R.k M.S.            + + +                                 ",
"                                                    T.A U.V.W.X.Y.Q.I.Z.= M `.&           @ + + @ + + . .                       ",
"                                                      L.A  +.+++@+#+Q.$+= M {.<.            @ @ + + +                           ",
"                                                        =.%+&+*+=+-+Q.;+= ^ >+<.                + + @                           ",
"                                    + .         + +   ,+'+{.)+!+~+Q.{+6 = 6 {.<.                + @                             ",
"                                  ]+^+/+(+    + +     d A {._+:+Q.B.<+= = B [+&                                                 ",
"                                }+|+1+2+3+4+  + +     d A {.5+6+7+8+- 9+0+A a+                                                  ",
"                                b+c+d+e+f+g+  @ @     h+i+A j+k+k+j+F.A A l+                                                    ",
"                                m+n+o+p+q+r+s+          T ~ t+u+v+t+w+A x+                                          .           ",
"                          y+z+A+B+C+D+E+F+G+H+                I+I+  J+d }                                         .             ",
"                          K+L+M+N+O+P+Q+R+S+T+U+V+            W+X+                                              + +             ",
"                            Y+Z+`+ @.@+@@@#@$@%@&@            *@=@                                              + + @           ",
"                          -@;@>@,@'@)@!@~@{@]@^@            /@(@_@                                              @ @ + .         ",
"                          :@<@[@}@|@1@2@3@4@5@6@7@8@        9@0@                                                    + +         ",
"                        a@b@c@d@d@e@f@g@h@i@j@k@[@l@m@n@n@o@p@q@                                                    @ @         ",
"                        r@s@t@c   u@v@w@x@y@z@A@B@C@D@E@n@n@F@G@                                                                ",
"                      H@n@I@J@J   K@L@M@N@n@O@      P@[@Q@R@S@T@          . .           .                                       ",
"                      U@V@W@X@      Y@Z@`@ #n@        c   Y@.#+#            . + +   + .                                         ",
"                    @###$#%#        &#V@*#=#-#;#            >#,#      + . . @ + @ + + @                                         ",
"                    @#n@$#%#      '#)#!#~#{#]#^#            /#(#        . + + @ @ + + @                                         ",
"                    @#n@_#%#    J :#<#[#}#|#1#^#            2#3#        @ + +     + @                                           ",
"                    @#4#5#%#    @#V@6#7#8#9#0#a#b#          c#d#          @ +                                                   ",
"                    e#f#g#h#    i#n@D@j#k#0#0#l#m#        n#o#p#                                                                ",
"                    q#r#s#t#  u#n@V@v#w#x#y#z#A#m#        B#C#                                                                  ",
"                    J D#s#E#F#G#n@H#I#J#K#L#M#N#m#        B#O#                                                                  ",
"                          P#Q#R#S#T#U#V#W#X#Y#Z#m#        `# $                                                                  ",
"                            .$+$@$#$0#V#$$%$&$l@m#        *$=$                                                                  ",
"                          -$;$>$,$'$)$!$$$~${$]$m#        ^$/$                                                                  ",
"                          ($n@V@_$:$<$Z#$$[${$[@m#        }$|$                                                                  ",
"                        1$n@n@2$3$4$5$6$7$8$9$[@m#        0$_@                                                                  ",
"          a$            n@n@n@n@n@b$c$d$e$f$g$[@m#        h$_@                                                                  ",
"            a$        i$n@n@n@n@n@Q@j$k$l$m$[@[@m#        h$_@      + +                                                         ",
"            + +     @#n$n@n@n@n@o$p$p$D@q$r$'$_#m#      s$t$s$      u$a$a$                                                      ",
"          u$+ +     @#n@n@n@v$w$x$n@n@y$z$c$A$B$C$      D$E$          a$+ +       +                                             ",
"        a$+ u$u$    F$m@G$p$[@H$c@n@I$G$G$J$k$K$L$      M$E$          u$+ +   a$+                                               ",
"        + +       N$O$P$Q$Q$Q$R$R$R$Q$Q$Q$Q$Q$B@m#      S$T$          u$+ + + a$a$                        a$                    ",
"        u$u$                                                            u$u$+ + u$                      + +     a$a$+           "};
