/* XPM */
static char * enemy3ok_xpm[] = {
"64 64 518 2",
"  	c #72751B",
". 	c #636422",
"+ 	c #7F8226",
"@ 	c #787B21",
"# 	c #656C17",
"$ 	c #6E711D",
"% 	c #71731C",
"& 	c #646422",
"* 	c #696A20",
"= 	c #29072F",
"- 	c #5F5E24",
"; 	c #70721C",
"> 	c #4E4A29",
", 	c #70731C",
"' 	c #4F4B28",
") 	c #6D6F1E",
"! 	c #4D4829",
"~ 	c #49422A",
"{ 	c #666721",
"] 	c #6E701D",
"^ 	c #606023",
"/ 	c #71741B",
"( 	c #656621",
"_ 	c #6F721C",
": 	c #666621",
"< 	c #6C6E1E",
"[ 	c #2A0C2F",
"} 	c #463F2B",
"| 	c #534F28",
"1 	c #54304A",
"2 	c #504C29",
"3 	c #3F352C",
"4 	c #656522",
"5 	c #62553C",
"6 	c #480B4A",
"7 	c #5E513B",
"8 	c #470B4A",
"9 	c #450B47",
"0 	c #6B6D1F",
"a 	c #6B692B",
"b 	c #6F711C",
"c 	c #5F5F23",
"d 	c #4B0C4D",
"e 	c #490B4B",
"f 	c #676821",
"g 	c #55403E",
"h 	c #535027",
"i 	c #4E4929",
"j 	c #72741D",
"k 	c #543249",
"l 	c #4C104E",
"m 	c #67632F",
"n 	c #5E5E24",
"o 	c #350839",
"p 	c #4A0C4D",
"q 	c #2A0730",
"r 	c #40372C",
"s 	c #565427",
"t 	c #583E46",
"u 	c #3F193F",
"v 	c #575526",
"w 	c #28072E",
"x 	c #4B0C4E",
"y 	c #4D0C4F",
"z 	c #4E0C50",
"A 	c #400A43",
"B 	c #38093C",
"C 	c #3B093F",
"D 	c #28072F",
"E 	c #37292D",
"F 	c #6F711D",
"G 	c #594045",
"H 	c #361F33",
"I 	c #443B2B",
"J 	c #3D0941",
"K 	c #4C0C4E",
"L 	c #2C0732",
"M 	c #4A4031",
"N 	c #52244D",
"O 	c #3F322F",
"P 	c #4D0D4F",
"Q 	c #3A093E",
"R 	c #2A0A2F",
"S 	c #616123",
"T 	c #605F23",
"U 	c #2B0731",
"V 	c #4D0B4F",
"W 	c #452337",
"X 	c #440E3C",
"Y 	c #440C41",
"Z 	c #5B5A25",
"` 	c #48422A",
" .	c #3F0A42",
"..	c #490B4C",
"+.	c #430A46",
"@.	c #3B1021",
"#.	c #2B0A18",
"$.	c #440F42",
"%.	c #38093B",
"&.	c #2E172E",
"*.	c #473F2A",
"=.	c #360D1E",
"-.	c #432531",
";.	c #4B283C",
">.	c #626222",
",.	c #453E2B",
"'.	c #330837",
").	c #410A44",
"!.	c #3F0F2D",
"~.	c #2F0B19",
"{.	c #482040",
"].	c #452934",
"^.	c #4C1A49",
"/.	c #450B48",
"(.	c #71741C",
"_.	c #33212E",
":.	c #420A45",
"<.	c #4A0C4A",
"[.	c #3B0F20",
"}.	c #2A091A",
"|.	c #4B0C4C",
"1.	c #441F3D",
"2.	c #432733",
"3.	c #300E32",
"4.	c #440A46",
"5.	c #301A2E",
"6.	c #310836",
"7.	c #3E0E30",
"8.	c #3B0F21",
"9.	c #3F0D35",
"0.	c #441E3D",
"a.	c #3F2631",
"b.	c #2D0D30",
"c.	c #340D1F",
"d.	c #420E36",
"e.	c #441E3E",
"f.	c #3E2530",
"g.	c #3D0E3F",
"h.	c #2D152F",
"i.	c #2E0923",
"j.	c #340D1D",
"k.	c #490F47",
"l.	c #43203B",
"m.	c #4A0C4C",
"n.	c #270914",
"o.	c #330C1C",
"p.	c #3D212C",
"q.	c #4A134A",
"r.	c #2E0733",
"s.	c #4A0B4D",
"t.	c #331629",
"u.	c #270916",
"v.	c #4D0C50",
"w.	c #321E2E",
"x.	c #2D0732",
"y.	c #4C154B",
"z.	c #482B37",
"A.	c #520C17",
"B.	c #280916",
"C.	c #420E37",
"D.	c #4A2939",
"E.	c #B1262C",
"F.	c #CD1F21",
"G.	c #410E34",
"H.	c #463E2B",
"I.	c #440B47",
"J.	c #3F2433",
"K.	c #CE2529",
"L.	c #CC1F22",
"M.	c #290916",
"N.	c #3D0C32",
"O.	c #51242F",
"P.	c #C61E23",
"Q.	c #2A0917",
"R.	c #380A33",
"S.	c #5E5D24",
"T.	c #481845",
"U.	c #3C1826",
"V.	c #230A18",
"W.	c #270913",
"X.	c #6F7033",
"Y.	c #5A4872",
"Z.	c #5A4772",
"`.	c #665D63",
" +	c #35242E",
".+	c #340838",
"++	c #2C0A17",
"@+	c #280915",
"#+	c #430B42",
"$+	c #2C112F",
"%+	c #72741F",
"&+	c #5B4971",
"*+	c #55446D",
"=+	c #423B5A",
"-+	c #423B59",
";+	c #605564",
">+	c #2D0831",
",+	c #2C082F",
"'+	c #3A093D",
")+	c #392B2D",
"!+	c #72751D",
"~+	c #53436B",
"{+	c #3D3A57",
"]+	c #8D4E43",
"^+	c #7A423A",
"/+	c #4A4850",
"(+	c #2F1822",
"_+	c #350C20",
":+	c #2A0823",
"<+	c #5F5F24",
"[+	c #5F5268",
"}+	c #4E4166",
"|+	c #664451",
"1+	c #BC5F21",
"2+	c #8F461E",
"3+	c #3E3A47",
"4+	c #6F7223",
"5+	c #453A19",
"6+	c #463A1A",
"7+	c #79781C",
"8+	c #7B791C",
"9+	c #78751D",
"0+	c #5E5268",
"a+	c #403B58",
"b+	c #68484F",
"c+	c #CB7725",
"d+	c #9C5B22",
"e+	c #2D2033",
"f+	c #6C6C3E",
"g+	c #494219",
"h+	c #72741B",
"i+	c #9D8621",
"j+	c #CF8C28",
"k+	c #BF6B2E",
"l+	c #AA694F",
"m+	c #7E534D",
"n+	c #453348",
"o+	c #824C30",
"p+	c #693D1E",
"q+	c #251B2B",
"r+	c #656932",
"s+	c #B49425",
"t+	c #AE9024",
"u+	c #53471E",
"v+	c #4B4618",
"w+	c #6F7131",
"x+	c #694863",
"y+	c #C67429",
"z+	c #CE7B24",
"A+	c #9D6063",
"B+	c #554364",
"C+	c #2B2133",
"D+	c #5F4633",
"E+	c #D2A129",
"F+	c #C67825",
"G+	c #76751B",
"H+	c #50471C",
"I+	c #4A4518",
"J+	c #727420",
"K+	c #514464",
"L+	c #3B3653",
"M+	c #A9582D",
"N+	c #C26D25",
"O+	c #CB7928",
"P+	c #C17630",
"Q+	c #4A3D56",
"R+	c #544555",
"S+	c #BC7635",
"T+	c #B08D25",
"U+	c #71711F",
"V+	c #4B1C2B",
"W+	c #6E711B",
"X+	c #676254",
"Y+	c #463D5E",
"Z+	c #312841",
"`+	c #2A2741",
" @	c #935435",
".@	c #9C5E35",
"+@	c #CF8A27",
"@@	c #CF7B24",
"#@	c #C68124",
"$@	c #CB7C25",
"%@	c #9A5532",
"&@	c #535338",
"*@	c #6C6F2B",
"=@	c #8E6D6F",
"-@	c #865275",
";@	c #717425",
">@	c #4A4654",
",@	c #3E3855",
"'@	c #525136",
")@	c #262441",
"!@	c #BB702D",
"~@	c #934B32",
"{@	c #A5542C",
"]@	c #A9552A",
"^@	c #C97425",
"/@	c #272541",
"(@	c #39334E",
"_@	c #3D3854",
":@	c #3F3A57",
"<@	c #3D3957",
"[@	c #845268",
"}@	c #8E5975",
"|@	c #584C66",
"1@	c #403A58",
"2@	c #38314C",
"3@	c #545434",
"4@	c #71423B",
"5@	c #BA6B2B",
"6@	c #38304A",
"7@	c #413751",
"8@	c #B66C2E",
"9@	c #6B6E23",
"0@	c #39333F",
"a@	c #352E40",
"b@	c #322942",
"c@	c #352D47",
"d@	c #50374F",
"e@	c #8A566E",
"f@	c #6C6A45",
"g@	c #39324E",
"h@	c #4A4739",
"i@	c #72751C",
"j@	c #686A26",
"k@	c #302A41",
"l@	c #9C5A68",
"m@	c #9B593F",
"n@	c #343351",
"o@	c #4D4B38",
"p@	c #312840",
"q@	c #332B45",
"r@	c #38304B",
"s@	c #290D1E",
"t@	c #5B5B43",
"u@	c #3E3956",
"v@	c #342C44",
"w@	c #60612D",
"x@	c #45423B",
"y@	c #3E3753",
"z@	c #9A7446",
"A@	c #4A3E52",
"B@	c #3A1723",
"C@	c #61611A",
"D@	c #71741F",
"E@	c #444055",
"F@	c #3C3753",
"G@	c #342C40",
"H@	c #4B4440",
"I@	c #985F45",
"J@	c #4A3744",
"K@	c #403A57",
"L@	c #AA8D21",
"M@	c #422421",
"N@	c #64611D",
"O@	c #A37D20",
"P@	c #C1862D",
"Q@	c #282A4B",
"R@	c #684150",
"S@	c #C88C2B",
"T@	c #5C483E",
"U@	c #B07921",
"V@	c #63303A",
"W@	c #62611A",
"X@	c #302841",
"Y@	c #535339",
"Z@	c #AE5B2A",
"`@	c #CA7827",
" #	c #4F3949",
".#	c #CA7929",
"+#	c #8C5538",
"@#	c #5D2D35",
"##	c #606119",
"$#	c #775275",
"%#	c #85577B",
"&#	c #3A2B41",
"*#	c #AE5C2A",
"=#	c #C57629",
"-#	c #CC7A26",
";#	c #CD7A26",
">#	c #5A3F3D",
",#	c #70731D",
"'#	c #352218",
")#	c #616119",
"!#	c #747527",
"~#	c #A26992",
"{#	c #965F80",
"]#	c #7F5474",
"^#	c #4C4950",
"/#	c #262541",
"(#	c #C56D23",
"_#	c #9C5833",
":#	c #70731E",
"<#	c #716D24",
"[#	c #362419",
"}#	c #6A6C1A",
"|#	c #747427",
"1#	c #925C7A",
"2#	c #875368",
"3#	c #885568",
"4#	c #656637",
"5#	c #2F2842",
"6#	c #B66D2E",
"7#	c #AB5629",
"8#	c #BC6223",
"9#	c #CA7625",
"0#	c #874635",
"a#	c #6E612C",
"b#	c #462822",
"c#	c #806156",
"d#	c #7A6B42",
"e#	c #A1781E",
"f#	c #3F334A",
"g#	c #332A43",
"h#	c #5D3C3E",
"i#	c #84513A",
"j#	c #313554",
"k#	c #B75C25",
"l#	c #BA5D22",
"m#	c #272642",
"n#	c #462823",
"o#	c #74751B",
"p#	c #C07A23",
"q#	c #C67628",
"r#	c #935936",
"s#	c #6E443C",
"t#	c #9E5F34",
"u#	c #744E4F",
"v#	c #393958",
"w#	c #B15928",
"x#	c #904A32",
"y#	c #2D2741",
"z#	c #696026",
"A#	c #452821",
"B#	c #605E41",
"C#	c #6F4C50",
"D#	c #C0732C",
"E#	c #C57529",
"F#	c #373858",
"G#	c #BC7033",
"H#	c #3B3857",
"I#	c #625F1D",
"J#	c #352517",
"K#	c #71741D",
"L#	c #474353",
"M#	c #3C3854",
"N#	c #2D2742",
"O#	c #54373F",
"P#	c #CC7927",
"Q#	c #704742",
"R#	c #BD7133",
"S#	c #3B3957",
"T#	c #332B44",
"U#	c #5F5F19",
"V#	c #352617",
"W#	c #636539",
"X#	c #362C44",
"Y#	c #B46C2F",
"Z#	c #965A36",
"`#	c #BD7233",
" $	c #551E34",
".$	c #6F721B",
"+$	c #666736",
"@$	c #3D3754",
"#$	c #392C44",
"$$	c #BF6A26",
"%$	c #BA6D2C",
"&$	c #3B2C41",
"*$	c #302F4C",
"=$	c #AC5931",
"-$	c #3C3957",
";$	c #370E1E",
">$	c #7F8124",
",$	c #54323D",
"'$	c #814537",
")$	c #B66A2D",
"!$	c #1B2242",
"~$	c #AB5730",
"{$	c #35314C",
"]$	c #350C1D",
"^$	c #5A5B44",
"/$	c #2F2741",
"($	c #894735",
"_$	c #CE7823",
":$	c #362B41",
"<$	c #403B57",
"[$	c #362F49",
"}$	c #332A44",
"|$	c #854636",
"1$	c #B96D2C",
"2$	c #6F711B",
"3$	c #35111C",
"4$	c #686F16",
"5$	c #3B3550",
"6$	c #362E49",
"7$	c #3D3855",
"8$	c #3C3652",
"9$	c #322F4A",
"0$	c #CC7725",
"a$	c #B06930",
"b$	c #76751C",
"c$	c #4B421A",
"d$	c #4D4918",
"e$	c #45424B",
"f$	c #3A3450",
"g$	c #372F4A",
"h$	c #3B3450",
"i$	c #38334E",
"j$	c #9A4E30",
"k$	c #74741C",
"l$	c #4C431A",
"m$	c #696B26",
"n$	c #3C363E",
"o$	c #3B3540",
"p$	c #3B353F",
"q$	c #3B3640",
"r$	c #4E4919",
"s$	c #514E18",
"                                                            .                                           + @ @   # @     +       ",
"                                                            $                                           # @ @ @ #   @ @ #       ",
"                    +                                                         % &                     + @ # @ @     @ @ #       ",
"          + + @     @ @                                             * = -     ; >                     # @ @ # @     # #         ",
"            + @ @   # @     +                                 ,     ' ) )       !                       # @ # #                 ",
"            # @ @ @ #   @ @ #                                 ~                 {                                               ",
"          + @ # @ @     @ @ #                               ] ^                                                                 ",
"          # @ @ # @     # #                                 / ,                                                                 ",
"            # @ # #                                                                                                             ",
"                                                    (                             _ : <                                         ",
"                                                  > [ }       | 1 1 1 2           ! 3 ;                                         ",
"                                                < > 4       5 1 6 7 8 9 )   0 _                                                 ",
"                                                      a b c d e f f g = )   h i                                                 ",
"                                                  j k l m n o p q = q = r s /                                                   ",
"                                                  t 6 u v w x y z A e B C D E F                                                 ",
"                                                  G H $ I J y y y y y y K L = .                                                 ",
"                                                  M N O = y y y P y y y y Q = R S     + +                                       ",
"                                                  T 9 U w y y V W X Y y y Q = = Z   @ +                                         ",
"                                                  `  ...+.y y y @.#.$.y y %.= &.  @ @ @                                         ",
"                                                  *.y K d y y X =.-.;.y d w = >.  @ @ #                                         ",
"                                                  ,.'.).y y K !.~.{.].^.K o /.<   # #                                           ",
"                                                  (._.= 9 :.<.[.}.|.1.2.3.4./.<                                                 ",
"                                                    $ 5.6.+.7.8.9.y 0.a.b././.<                                                 ",
"                                                      ] = +.c.8.d.y e.f.g.z C h.                                                ",
"                                                      ) = U i.j.8.k.f.l.y C = 5.                                                ",
"                                                      ) = o m.n.o.@.p.q.K r.= ^         @ +                                     ",
"                                                      5.= z s.t.u.j.[.v.:.D Z             + +                                   ",
"                                                      w.x.y y.z.A.B.j.C.'.= $             @ @ @                                 ",
"                                                      w.9 V D.E.F.B.u.G.K w H.            # @ @ # @ @ + +                       ",
"                                                      w.I.V J.K.L.M.B.N.K w *.              # # @ @ @                           ",
"                                                      w.:.V J.O.P.Q.B.R.6.= *.                  @ @ #                           ",
"                                    @ +         @ @   S.w ).T.U.V.B.W./.= = {                   @ #                             ",
"                                  X.Y.Z.`.    @ @     $  +.+|.++B.@+#+w $+{                                                     ",
"                                %+&+*+=+-+;+  @ @       ! 5.>+B.B.,+'+= )+                                                      ",
"                                !+~+{+]+^+/+  # #         ) (+_+_+:+= <+(.                                                      ",
"                                [+}+|+1+2+3+4+              / 5+6+/                                                 +           ",
"                          7+8+9+0+a+b+c+d+e+f+              / g+g+h+                                              +             ",
"                          i+j+k+l+m+n+o+p+q+r+s+t+            u+v+                                              @ @             ",
"                            w+x+y+z+A+B+C+D+E+F+G+            H+I+                                              @ @ #           ",
"                          J+K+L+M+N+O+P+Q+R+S+T+            U+V+W+                                              # # @ +         ",
"                          X+Y+Z+`+ @.@+@@@#@$@%@&@*@        =@-@                                                    @ @         ",
"                        ;@>@,@'@'@)@!@~@{@]@^@/@Z+(@_@:@:@<@[@}@                                                    # #         ",
"                        |@1@2@(.  3@4@5@6@7@8@9@0@a@b@c@:@:@d@e@                                                                ",
"                      f@:@g@h@i@  j@k@l@m@:@n@      o@Z+p@q@r@s@          + +           +                                       ",
"                      t@u@v@w@      x@y@z@A@:@        (.  x@B@C@            + @ @   @ +                                         ",
"                    D@E@F@G@        H@u@I@J@K@L@            M@N@      @ + + # @ # @ @ #                                         ",
"                    D@:@F@G@      O@P@Q@R@S@T@U@            V@W@        + @ @ # # @ @ #                                         ",
"                    D@:@X@G@    i@Y@Z@`@ #.#+#U@            @###        # @ @     @ #                                           ",
"                    D@$#%#G@    D@u@&#*#=#-#;#>#,#          '#)#          # @                                                   ",
"                    !#~#{#]#    ^#:@b@/#(#;#;#_#:#        <#[#}#                                                                ",
"                    |#1#2#3#  4#:@u@5#6#7#8#9#0#:#        a#b#                                                                  ",
"                    i@c#2#d#e#f#:@g#h#i#j#k#l#m#:#        a#n#                                                                  ",
"                          o#p#q#r#s#t#u#v#w#x#y#:#        z#A#                                                                  ",
"                            B#C#D#E#;#u#F#G#H#(@:#        I#J#                                                                  ",
"                          K#L#M#N#O#P#Q#F#R#S#T#:#        U#V#                                                                  ",
"                          W#:@u@X#Y#Z#y#F#`#S#Z+:#         $.$                                                                  ",
"                        +$:@:@@$#$$$%$&$*$=$-$Z+:#        ;$W+                                                                  ",
"          >$            :@:@:@:@:@,$'$)$!$~${$Z+:#        ]$W+                                                                  ",
"            >$        ^$:@:@:@:@:@p@/$($_$:$Z+Z+:#        ]$W+      @ @                                                         ",
"            @ @     D@<$:@:@:@:@[$}$}$b@|$1$O#X@:#      2$3$2$      4$>$>$                                                      ",
"          4$@ @     D@:@:@:@5$6$7$:@:@8$9$'$0$a$b$      c$d$          >$@ @       @                                             ",
"        >$@ 4$4$    e$_@f$}$Z+g$,@:@h$f$f$i$($j$k$      l$d$          4$@ @   >$@                                               ",
"        @ @       m$n$o$p$p$p$q$q$q$p$p$p$p$p$0@:#      r$s$          4$@ @ @ >$>$                        >$                    ",
"        4$4$                                                            4$4$@ @ 4$                      @ @     >$>$@           "};
