/* XPM */
static char * enemy1ok_xpm[] = {
"64 64 585 2",
"  	c #72751B",
". 	c #7F8226",
"+ 	c #787B21",
"@ 	c #656C17",
"# 	c #5D4A41",
"$ 	c #717220",
"% 	c #61553C",
"& 	c #6C6A2B",
"* 	c #3C0940",
"= 	c #6E711D",
"- 	c #676134",
"; 	c #5A4344",
"> 	c #707023",
", 	c #4B4629",
"' 	c #71731F",
") 	c #72741C",
"! 	c #60503F",
"~ 	c #4D462D",
"{ 	c #70721C",
"] 	c #5D5533",
"^ 	c #6E6D27",
"/ 	c #4D0C4F",
"( 	c #3D1D3B",
"_ 	c #72751C",
": 	c #6F6F25",
"< 	c #71741D",
"[ 	c #707122",
"} 	c #696431",
"| 	c #6F721D",
"1 	c #471946",
"2 	c #450B48",
"3 	c #696829",
"4 	c #463D2D",
"5 	c #64593A",
"6 	c #655D37",
"7 	c #676034",
"8 	c #61533D",
"9 	c #440A46",
"0 	c #484229",
"a 	c #3B2C2F",
"b 	c #5B4345",
"c 	c #5F4F3F",
"d 	c #4F244A",
"e 	c #636126",
"f 	c #585625",
"g 	c #430A46",
"h 	c #29072F",
"i 	c #3A2C2F",
"j 	c #4B0C4D",
"k 	c #4F234B",
"l 	c #3A2A2F",
"m 	c #585626",
"n 	c #514D28",
"o 	c #3B2F2D",
"p 	c #400A43",
"q 	c #696B1F",
"r 	c #3E183E",
"s 	c #28072E",
"t 	c #4B114D",
"u 	c #6C6B2A",
"v 	c #71731C",
"w 	c #5A552C",
"x 	c #2A0730",
"y 	c #2C0732",
"z 	c #340838",
"A 	c #4C124D",
"B 	c #5A4245",
"C 	c #70731C",
"D 	c #5F5F24",
"E 	c #5F503E",
"F 	c #480B4A",
"G 	c #38093C",
"H 	c #2A082F",
"I 	c #330838",
"J 	c #4F1D4E",
"K 	c #747528",
"L 	c #3E312E",
"M 	c #523745",
"N 	c #696331",
"O 	c #6F7024",
"P 	c #3E0A41",
"Q 	c #28062E",
"R 	c #402231",
"S 	c #330B28",
"T 	c #2C0928",
"U 	c #37083B",
"V 	c #4E0C50",
"W 	c #5B5530",
"X 	c #6D6F1E",
"Y 	c #311E2E",
"Z 	c #6A652F",
"` 	c #4E134E",
" .	c #62563B",
"..	c #51244C",
"+.	c #4C0C4E",
"@.	c #3B1021",
"#.	c #2B0A18",
"$.	c #440F42",
"%.	c #2F0834",
"&.	c #2E162F",
"*.	c #60651C",
"=.	c #757822",
"-.	c #311A2F",
";.	c #71741B",
">.	c #686233",
",.	c #4D0E4F",
"'.	c #645A38",
").	c #4E114F",
"!.	c #420A45",
"~.	c #360D1E",
"{.	c #432531",
"].	c #4B283C",
"^.	c #450A47",
"/.	c #311C2E",
"(.	c #4B4A26",
"_.	c #655B39",
":.	c #442140",
"<.	c #6D6F1D",
"[.	c #55453A",
"}.	c #27072E",
"|.	c #2A072F",
"1.	c #380E24",
"2.	c #2F0B19",
"3.	c #482040",
"4.	c #452934",
"5.	c #4D1A4A",
"6.	c #2E0733",
"7.	c #490B4C",
"8.	c #676035",
"9.	c #2C0C31",
"0.	c #646522",
"a.	c #41233D",
"b.	c #2B082E",
"c.	c #3B0F21",
"d.	c #2A091A",
"e.	c #4B0C4C",
"f.	c #441F3D",
"g.	c #422733",
"h.	c #4A114B",
"i.	c #2B0731",
"j.	c #350839",
"k.	c #573C46",
"l.	c #301A2E",
"m.	c #3E342C",
"n.	c #3F3031",
"o.	c #310836",
"p.	c #3D0941",
"q.	c #370D25",
"r.	c #3F0D35",
"s.	c #441E3D",
"t.	c #3F2630",
"u.	c #4C114C",
"v.	c #4A0C4D",
"w.	c #460B48",
"x.	c #6B6D1F",
"y.	c #504B28",
"z.	c #4C4729",
"A.	c #28072F",
"B.	c #340D1F",
"C.	c #420E36",
"D.	c #441E3E",
"E.	c #3E252F",
"F.	c #4C104C",
"G.	c #310835",
"H.	c #44273E",
"I.	c #6E701D",
"J.	c #4D4829",
"K.	c #37292D",
"L.	c #676529",
"M.	c #2E0923",
"N.	c #340D1D",
"O.	c #490F47",
"P.	c #3E2530",
"Q.	c #43203B",
"R.	c #3B093F",
"S.	c #33212E",
"T.	c #6A6530",
"U.	c #4D104F",
"V.	c #37093B",
"W.	c #4A0C4C",
"X.	c #270914",
"Y.	c #330C1C",
"Z.	c #3D212C",
"`.	c #4A134A",
" +	c #3A093E",
".+	c #2E172E",
"++	c #39093D",
"@+	c #401739",
"#+	c #270916",
"$+	c #3B0F20",
"%+	c #4D0C50",
"&+	c #4E4A29",
"*+	c #35083A",
"=+	c #4B144A",
"-+	c #492B38",
";+	c #520C17",
">+	c #280916",
",+	c #410E35",
"'+	c #480B4B",
")+	c #2C112F",
"!+	c #490B4B",
"~+	c #28062F",
"{+	c #472937",
"]+	c #B1262C",
"^+	c #CD1F21",
"/+	c #360C25",
"(+	c #676920",
"_+	c #666721",
":+	c #2C122E",
"<+	c #29062F",
"[+	c #3C2330",
"}+	c #CE2529",
"|+	c #CC1F22",
"1+	c #290916",
"2+	c #320B23",
"3+	c #70722C",
"4+	c #717326",
"5+	c #3A2D2D",
"6+	c #3D2430",
"7+	c #51242F",
"8+	c #C61E23",
"9+	c #2A0917",
"0+	c #280821",
"a+	c #5B5925",
"b+	c #6B6945",
"c+	c #5A4772",
"d+	c #5E4F6B",
"e+	c #72741F",
"f+	c #6D701E",
"g+	c #32162F",
"h+	c #3D1826",
"i+	c #230A18",
"j+	c #280915",
"k+	c #2D152F",
"l+	c #6C6E1E",
"m+	c #504267",
"n+	c #3B3957",
"o+	c #3C3957",
"p+	c #574D62",
"q+	c #595826",
"r+	c #41372C",
"s+	c #2A072E",
"t+	c #2D0A18",
"u+	c #290828",
"v+	c #34232E",
"w+	c #70722A",
"x+	c #423A57",
"y+	c #A45537",
"z+	c #8A4527",
"A+	c #4A4851",
"B+	c #6A6B1D",
"C+	c #2A0F16",
"D+	c #2C1416",
"E+	c #33212B",
"F+	c #5E5D23",
"G+	c #5F5269",
"H+	c #4F4166",
"I+	c #694751",
"J+	c #BE6221",
"K+	c #8F461F",
"L+	c #36313C",
"M+	c #6C6E2B",
"N+	c #504C19",
"O+	c #422C1E",
"P+	c #514D18",
"Q+	c #938320",
"R+	c #978520",
"S+	c #8E7529",
"T+	c #5A4E6B",
"U+	c #5B3F46",
"V+	c #C87725",
"W+	c #9F5E22",
"X+	c #2C1F32",
"Y+	c #6C6C3D",
"Z+	c #453A19",
"`+	c #463A1A",
" @	c #817A1D",
".@	c #CB8026",
"+@	c #BB652E",
"@@	c #C37536",
"#@	c #975E45",
"$@	c #594057",
"%@	c #5F393B",
"&@	c #3F241D",
"*@	c #2C202A",
"=@	c #736F32",
"-@	c #CB9D29",
";@	c #BD9726",
">@	c #494219",
",@	c #72741B",
"'@	c #696A45",
")@	c #56425F",
"!@	c #C2732F",
"~@	c #CE7B24",
"{@	c #AE6952",
"]@	c #483E5F",
"^@	c #352E46",
"/@	c #644743",
"(@	c #D29E28",
"_@	c #BB7724",
":@	c #53471E",
"<@	c #4B4618",
"[@	c #4E4166",
"}@	c #38334F",
"|@	c #954C31",
"1@	c #B66329",
"2@	c #CE7A26",
"3@	c #CE8427",
"4@	c #7A504E",
"5@	c #7F654E",
"6@	c #BD7533",
"7@	c #B18C24",
"8@	c #50471C",
"9@	c #4A4518",
"0@	c #605661",
"a@	c #413B59",
"b@	c #322941",
"c@	c #955836",
"d@	c #824F3A",
"e@	c #CC7E26",
"f@	c #CD7926",
"g@	c #BE6A23",
"h@	c #C97625",
"i@	c #945031",
"j@	c #6E7123",
"k@	c #72751D",
"l@	c #71711F",
"m@	c #4B1C2B",
"n@	c #6E711B",
"o@	c #707130",
"p@	c #474157",
"q@	c #3B3551",
"r@	c #61632D",
"s@	c #61632C",
"t@	c #1E2242",
"u@	c #BD712C",
"v@	c #703B3A",
"w@	c #824336",
"x@	c #8D4833",
"y@	c #C97425",
"z@	c #202341",
"A@	c #38324D",
"B@	c #53514B",
"C@	c #646538",
"D@	c #8E6D6F",
"E@	c #865275",
"F@	c #514367",
"G@	c #3F3A57",
"H@	c #362F4A",
"I@	c #71741C",
"J@	c #595A32",
"K@	c #55333E",
"L@	c #C16D25",
"M@	c #5D414A",
"N@	c #3D3855",
"O@	c #A26135",
"P@	c #61652B",
"Q@	c #312941",
"R@	c #39334E",
"S@	c #3D3854",
"T@	c #3D3957",
"U@	c #845268",
"V@	c #8E5975",
"W@	c #686352",
"X@	c #352E48",
"Y@	c #555434",
"Z@	c #70721E",
"`@	c #332B40",
" #	c #935C7A",
".#	c #96553E",
"+#	c #403A57",
"@#	c #676828",
"##	c #342C40",
"$#	c #322942",
"%#	c #352D47",
"&#	c #50374F",
"*#	c #8A566E",
"=#	c #5B5B42",
"-#	c #3E3855",
";#	c #342C43",
">#	c #686A26",
",#	c #575733",
"'#	c #393551",
")#	c #9A6D46",
"!#	c #473A4D",
"~#	c #4D4B38",
"{#	c #312841",
"]#	c #312840",
"^#	c #332B45",
"/#	c #38304B",
"(#	c #290D1E",
"_#	c #71741F",
":#	c #3C3753",
"<#	c #616331",
"[#	c #3E3956",
"}#	c #955B45",
"|#	c #705540",
"1#	c #3C3653",
"2#	c #B28D22",
"3#	c #45423B",
"4#	c #3A1723",
"5#	c #61611A",
"6#	c #3C3652",
"7#	c #A18921",
"8#	c #B38A32",
"9#	c #3C3144",
"0#	c #4D3B55",
"a#	c #CA842A",
"b#	c #6E553D",
"c#	c #B07921",
"d#	c #422421",
"e#	c #64611D",
"f#	c #3D3A56",
"g#	c #2C263E",
"h#	c #7D6129",
"i#	c #C67224",
"j#	c #D19128",
"k#	c #744942",
"l#	c #CA7828",
"m#	c #AA6532",
"n#	c #63303A",
"o#	c #62611A",
"p#	c #717421",
"q#	c #865A7F",
"r#	c #946086",
"s#	c #3B2F44",
"t#	c #3A344F",
"u#	c #59343E",
"v#	c #C46F26",
"w#	c #CC7A26",
"x#	c #CD7A26",
"y#	c #4B4C37",
"z#	c #5D2D35",
"A#	c #606119",
"B#	c #747527",
"C#	c #A16891",
"D#	c #8D5872",
"E#	c #915F80",
"F#	c #555449",
"G#	c #312842",
"H#	c #5B353D",
"I#	c #C66F24",
"J#	c #935837",
"K#	c #70731E",
"L#	c #352218",
"M#	c #616119",
"N#	c #737424",
"O#	c #8D5873",
"P#	c #875368",
"Q#	c #7F6254",
"R#	c #866A5F",
"S#	c #6F7224",
"T#	c #464353",
"U#	c #3F3A58",
"V#	c #302842",
"W#	c #895338",
"X#	c #C26722",
"Y#	c #C56F24",
"Z#	c #CD7B26",
"`#	c #934B32",
" $	c #716D24",
".$	c #362419",
"+$	c #6A6C1A",
"@$	c #737421",
"#$	c #865565",
"$$	c #855B62",
"%$	c #747526",
"&$	c #7F761F",
"*$	c #403B53",
"=$	c #38314C",
"-$	c #3D2D40",
";$	c #AE6831",
">$	c #2F2A46",
",$	c #B75C24",
"'$	c #BA5E22",
")$	c #302841",
"!$	c #6E612C",
"~$	c #462822",
"{$	c #75722D",
"]$	c #796F3D",
"^$	c #777529",
"/$	c #C77A25",
"($	c #A96633",
"_$	c #372E46",
":$	c #332941",
"<$	c #68413D",
"[$	c #734C4B",
"}$	c #393958",
"|$	c #B75C26",
"1$	c #B95D23",
"2$	c #292641",
"3$	c #462823",
"4$	c #93771D",
"5$	c #AB6631",
"6$	c #D17C24",
"7$	c #B56C2F",
"8$	c #744E4F",
"9$	c #383858",
"0$	c #B3642F",
"a$	c #2C2F4D",
"b$	c #696026",
"c$	c #452821",
"d$	c #5D5E41",
"e$	c #3F3853",
"f$	c #412F41",
"g$	c #905737",
"h$	c #734D4D",
"i$	c #373858",
"j$	c #BD7133",
"k$	c #38324C",
"l$	c #625F1D",
"m$	c #352517",
"n$	c #474353",
"o$	c #865139",
"p$	c #C1732B",
"q$	c #453040",
"r$	c #312740",
"s$	c #5F5F19",
"t$	c #352617",
"u$	c #636539",
"v$	c #3A2D44",
"w$	c #CE7723",
"x$	c #855139",
"y$	c #2D2741",
"z$	c #353554",
"A$	c #B66732",
"B$	c #551E34",
"C$	c #6F721B",
"D$	c #666736",
"E$	c #3D3754",
"F$	c #332B44",
"G$	c #864736",
"H$	c #B55F27",
"I$	c #7E4C3A",
"J$	c #262642",
"K$	c #AB5730",
"L$	c #3B3855",
"M$	c #370E1E",
"N$	c #7F8124",
"O$	c #2E2741",
"P$	c #3D2B40",
"Q$	c #B35F29",
"R$	c #B46C2F",
"S$	c #6C3D3C",
"T$	c #312943",
"U$	c #350C1D",
"V$	c #5A5B44",
"W$	c #B1602A",
"X$	c #242441",
"Y$	c #403B57",
"Z$	c #362F49",
"`$	c #332A44",
" %	c #312942",
".%	c #352941",
"+%	c #B35E28",
"@%	c #C77628",
"#%	c #52363F",
"$%	c #71731E",
"%%	c #6F711B",
"&%	c #35111C",
"*%	c #686F16",
"=%	c #3B3550",
"-%	c #362E49",
";%	c #37304A",
">%	c #3C2B40",
",%	c #B25F2A",
"'%	c #C26822",
")%	c #77741B",
"!%	c #4B421A",
"~%	c #4D4918",
"{%	c #45424B",
"]%	c #3A3450",
"^%	c #372F4A",
"/%	c #3B3450",
"(%	c #2C2741",
"_%	c #2B2741",
":%	c #4C431A",
"<%	c #696B26",
"[%	c #3C363E",
"}%	c #3B3540",
"|%	c #3B353F",
"1%	c #3B3640",
"2%	c #39333F",
"3%	c #4E4919",
"4%	c #514E18",
"                                                                                                        . + +   @ +     .       ",
"                                                                                                        @ + + + @   + + @       ",
"                    .                                                                                 . + @ + +     + + @       ",
"          . . +     + +                                                                               @ + + @ +     @ @         ",
"            . + +   @ +     .                                                                           @ + @ @                 ",
"            @ + + + @   + + @                             # $     %                                                             ",
"          . + @ + +     + + @                           & * =   - ;   &                                                         ",
"          @ + + @ +     @ @                             > ,     ' ) ! ~                                                         ",
"            @ + @ @                                               { ]                                                           ",
"                                                                    ^ / (     _ :                                               ",
"                                                    <       [ }   | 1 2 3     4 5                                               ",
"                                                  6 }       [ 7   8 9 0       a b                                               ",
"                                                  c         d e f g h         i j                                               ",
"                                                            k l h h m n <     o p                                               ",
"                                                          q r h h h h s t u   v s                                               ",
"                                                          w x y h h h h z A B C D $ <                                           ",
"                                                        E j F G H h h h I j J K   L M . .                                       ",
"                                                    N O / / P Q R S T h h U V W   X Y F )                                       ",
"                                                Z `  .../ +.y h @.#.$.%.h h &.*.  + =.-.;.                                      ",
"                                              >.,.'.} )./ !.h S ~.{.].^.h h /.X   + + (.;.                                      ",
"                                              _.:.<.[./ / }.|.1.2.3.4.5.6.h s 7.; @ @                                           ",
"                                              8.9.0.a./ +.s b.c.d.e.f.g.h.i.j./ / k.;.                                          ",
"                                                l.m.n.I o.p.q.c.r./ s.t.u.7.y v./ w.x.                                          ",
"                                                y.h h z.h A.B.c.C./ D.E.F.V G.+.p H.I.                                          ",
"                                                  J.K.L.i.h M.N.c.O.P.Q./ R.h i.S.z.                                            ",
"                                                    T.U.V.j.W.X.Y.@.Z.`./  +h .+I.      + .                                     ",
"                                                    / / V.++/ @+#+N.$+%+j s h &+          . .                                   ",
"                                                    j / *+h =+-+;+>+N.,+'+s )+X           + + +                                 ",
"                                                    6.!+s ~+{+]+^+>+#+/+s h (+            @ + + @ + + . .                       ",
"                                                    _+:+h <+[+}+|+1+>+2+h h                 @ @ + + +                           ",
"                                    3+3+4+            5+h <+6+7+8+9+>+0+h a+                    + + @                           ",
"                                  b+c+c+d+e+    + +   f+h h g+h+i+>+j+h k+l+                    + @                             ",
"                                e+c+m+n+o+p+  + +       q+r+s+t+>+j+u+v+|                                                       ",
"                                w+m+x+y+z+A+  + +         v B+C+D+E+F+|                                                         ",
"                                G+H+I+J+K+L+M+@ @           N+O+O+P+                                                            ",
"                          Q+R+S+T+o+U+V+W+X+Y+              ;.Z+`+;.                                                .           ",
"                           @.@+@@@#@$@%@&@*@=@-@;@          ;.>@>@,@                                              .             ",
"                            '@)@!@~@{@]@^@/@(@_@              :@<@                                              + +             ",
"                          e+[@}@|@1@2@3@4@5@6@7@              8@9@                                              + + @           ",
"                          0@a@b@b@c@d@e@f@g@h@i@j@k@        l@m@n@                                              @ @ + .         ",
"                        o@p@q@r@s@t@u@v@w@x@y@z@A@B@C@      D@E@                                                    + +         ",
"                        F@G@H@I@  J@K@L@M@N@O@P@Q@R@S@G@G@T@U@V@                                                    @ @         ",
"                      W@G@X@Y@    Z@`@ #.#+#N@  @###$#%#G@G@&#*#                                                                ",
"                      =#-#;#>#      ,#'#)#!#G@      ~#{#]#^#/#(#          . .           .                                       ",
"                    _#G@:###        <#[#}#|#1#2#      I@  3#4#5#            . + +   + .                                         ",
"                    _#G@6###      7#8#9#0#a#b#c#            d#e#      + . . @ + @ + + @                                         ",
"                    _#f#g###      h#i#j#k#l#m#c#            n#o#        . + + @ @ + + @                                         ",
"                    p#q#r#s#    k@t#u#v#w#x#x#y#_           z#A#        @ + +     + @                                           ",
"                    B#C#D#E#    F#G@G#H#I#x#x#J#K#          L#M#          @ +                                                   ",
"                    N#O#P#Q#R#S#T#U#V#W#X#Y#Z#`#K#         $.$+$                                                                ",
"                    @$#$$$%$&$*$G@=$-$;$>$,$'$)$K#        !$~$                                                                  ",
"                      {$]$^$/$($_$:$<$[$}$|$1$2$K#        !$3$                                                                  ",
"                            4$5$6$7$x#8$9$0$a$%#K#        b$c$                                                                  ",
"                            d$e$f$g$x#h$i$j$n+k$K#        l$m$                                                                  ",
"                          < n$S@$#o$p$q$i$j$n+r$K#        s$t$                                                                  ",
"                          u$G@[#v$w$x$y$z$A$o+{#K#        B$C$                                                                  ",
"                        D$G@G@E$F$G$H$I$J$K$L${#K#        M$n@                                                                  ",
"          N$            G@G@G@G@G@O$P$Q$R$S$T${#K#        U$n@                                                                  ",
"            N$        V$G@G@G@G@G@]#{#O$W$x$X${#K#        U$n@      + +                                                         ",
"            + +     _#Y$G@G@G@G@Z$`$`$ %.%+%@%#%$%      %%&%%%      *%N$N$                                                      ",
"          *%+ +     _#G@G@G@=%-%N@G@G@6#;%>%,%'%)%      !%~%          N$+ +       +                                             ",
"        N$+ *%*%    {%S@]%`${#^%-#G@/%]%]%R@(%_%K#      :%~%          *%+ +   N$+                                               ",
"        + +       <%[%}%|%|%|%1%1%1%|%|%|%|%|%2%K#      3%4%          *%+ + + N$N$                        N$                    ",
"        *%*%                                                            *%*%+ + *%                      + +     N$N$+           "};
