/* XPM */
static char * enemy2ok_xpm[] = {
"64 64 564 2",
"  	c #72751B",
". 	c #7F8226",
"+ 	c #787B21",
"@ 	c #656C17",
"# 	c #666721",
"$ 	c #70721C",
"% 	c #676920",
"& 	c #5A5825",
"* 	c #6F721C",
"= 	c #656522",
"- 	c #6E711D",
"; 	c #4D0C4F",
"> 	c #636129",
", 	c #72741C",
"' 	c #6E6E26",
") 	c #707122",
"! 	c #696331",
"~ 	c #5F4F3F",
"{ 	c #2F0834",
"] 	c #37272E",
"^ 	c #6F7023",
"/ 	c #645939",
"( 	c #544F2C",
"_ 	c #686134",
": 	c #35083A",
"< 	c #3C302C",
"[ 	c #71731C",
"} 	c #522A4B",
"| 	c #4E3B3B",
"1 	c #501F4D",
"2 	c #676133",
"3 	c #646422",
"4 	c #532D4B",
"5 	c #490B4B",
"6 	c #675F35",
"7 	c #4B0C4D",
"8 	c #626125",
"9 	c #48412A",
"0 	c #413032",
"a 	c #2D0932",
"b 	c #665F35",
"c 	c #4E184D",
"d 	c #6B6D1E",
"e 	c #5F5E24",
"f 	c #696A20",
"g 	c #6E6E27",
"h 	c #72751C",
"i 	c #504B2A",
"j 	c #50204D",
"k 	c #583F45",
"l 	c #636422",
"m 	c #2C122F",
"n 	c #626223",
"o 	c #71741C",
"p 	c #3D322C",
"q 	c #40362C",
"r 	c #5E503D",
"s 	c #3E0A41",
"t 	c #480B4A",
"u 	c #5A5826",
"v 	c #595726",
"w 	c #565427",
"x 	c #29072F",
"y 	c #48422A",
"z 	c #585626",
"A 	c #575426",
"B 	c #655B38",
"C 	c #49412D",
"D 	c #524E28",
"E 	c #585526",
"F 	c #6A6530",
"G 	c #4D104F",
"H 	c #3D123F",
"I 	c #2C0732",
"J 	c #38093C",
"K 	c #2D0733",
"L 	c #2A092F",
"M 	c #3A2335",
"N 	c #7C7E26",
"O 	c #5E5E24",
"P 	c #645A38",
"Q 	c #717320",
"R 	c #686232",
"S 	c #420A45",
"T 	c #36083A",
"U 	c #380A3C",
"V 	c #460B49",
"W 	c #400A43",
"X 	c #490B4C",
"Y 	c #512D49",
"Z 	c #787A22",
"` 	c #676034",
" .	c #300835",
"..	c #4C0C4E",
"+.	c #4D0B50",
"@.	c #452337",
"#.	c #440E3C",
"$.	c #450C41",
"%.	c #3F0A42",
"&.	c #3D0940",
"*.	c #512E47",
"=.	c #767920",
"-.	c #5E4D40",
";.	c #3B1021",
">.	c #2B0A18",
",.	c #440F42",
"'.	c #4A0B4C",
").	c #4F1E4D",
"!.	c #707220",
"~.	c #61533D",
"{.	c #360D1E",
"].	c #432531",
"^.	c #4B283C",
"/.	c #3A093D",
"(.	c #3C093F",
"_.	c #45293E",
":.	c #6C692C",
"<.	c #4E174E",
"[.	c #3F0F2D",
"}.	c #2F0B19",
"|.	c #482040",
"1.	c #452934",
"2.	c #4C1A49",
"3.	c #26072C",
"4.	c #4E0C50",
"5.	c #656C18",
"6.	c #71731F",
"7.	c #4F1D4D",
"8.	c #39093C",
"9.	c #4C0C4C",
"0.	c #3B0F20",
"a.	c #2A091A",
"b.	c #4B0C4C",
"c.	c #441F3D",
"d.	c #432733",
"e.	c #2F0E32",
"f.	c #410A44",
"g.	c #42213F",
"h.	c #655D37",
"i.	c #3D0941",
"j.	c #3F0E30",
"k.	c #3B0F21",
"l.	c #3F0D35",
"m.	c #441E3D",
"n.	c #3F2631",
"o.	c #2C0D2F",
"p.	c #5E5B2A",
"q.	c #330838",
"r.	c #28072E",
"s.	c #340D1F",
"t.	c #420E36",
"u.	c #441E3E",
"v.	c #3E2530",
"w.	c #2E0D31",
"x.	c #4A0C4D",
"y.	c #311731",
"z.	c #480B4B",
"A.	c #2E0923",
"B.	c #340D1D",
"C.	c #490F47",
"D.	c #43203B",
"E.	c #2E0833",
"F.	c #2B0730",
"G.	c #2F1431",
"H.	c #6B6C1F",
"I.	c #340838",
"J.	c #3E0A42",
"K.	c #340837",
"L.	c #270915",
"M.	c #330C1C",
"N.	c #3D212C",
"O.	c #4B134B",
"P.	c #2E0834",
"Q.	c #47402A",
"R.	c #676820",
"S.	c #2C122E",
"T.	c #440B47",
"U.	c #340839",
"V.	c #2E0733",
"W.	c #411739",
"X.	c #270916",
"Y.	c #450A48",
"Z.	c #3C312C",
"`.	c #71731B",
" +	c #4E1E4B",
".+	c #430A45",
"++	c #311231",
"@+	c #492B38",
"#+	c #520C17",
"$+	c #280916",
"%+	c #370D29",
"&+	c #440A46",
"*+	c #6C6E1E",
"=+	c #635D31",
"-+	c #4C0C4F",
";+	c #420945",
">+	c #482937",
",+	c #B1262C",
"'+	c #CD1F21",
")+	c #3E0D30",
"!+	c #450B48",
"~+	c #655D36",
"{+	c #3F2433",
"]+	c #CE2529",
"^+	c #CC1F22",
"/+	c #290916",
"(+	c #3D0C32",
"_+	c #33222D",
":+	c #6E701D",
"<+	c #606024",
"[+	c #4A0D4C",
"}+	c #4D0B4F",
"|+	c #51242F",
"1+	c #C61E23",
"2+	c #2A0917",
"3+	c #390A34",
"4+	c #3A093E",
"5+	c #665D5F",
"6+	c #686061",
"7+	c #6A674A",
"8+	c #5F5D26",
"9+	c #481845",
"0+	c #3C1826",
"a+	c #230A18",
"b+	c #270913",
"c+	c #504C27",
"d+	c #72751D",
"e+	c #635A60",
"f+	c #594671",
"g+	c #52436A",
"h+	c #6B6A45",
"i+	c #33232D",
"j+	c #2C0A17",
"k+	c #270914",
"l+	c #420B41",
"m+	c #430A46",
"n+	c #5D5D24",
"o+	c #72741F",
"p+	c #5A4772",
"q+	c #423B5A",
"r+	c #4E3D55",
"s+	c #493B54",
"t+	c #4D4954",
"u+	c #6F721D",
"v+	c #30172F",
"w+	c #2D0831",
"x+	c #460B47",
"y+	c #4A0C4C",
"z+	c #382A2D",
"A+	c #666056",
"B+	c #4E4166",
"C+	c #583F53",
"D+	c #B55B28",
"E+	c #90471B",
"F+	c #4B4850",
"G+	c #6D6F1E",
"H+	c #2F1822",
"I+	c #350C20",
"J+	c #350C21",
"K+	c #2E1721",
"L+	c #606022",
"M+	c #645F30",
"N+	c #5F5368",
"O+	c #4A3F62",
"P+	c #6B4B51",
"Q+	c #C46C23",
"R+	c #944E20",
"S+	c #291D2E",
"T+	c #6A6B37",
"U+	c #71741B",
"V+	c #453A19",
"W+	c #463A1A",
"X+	c #BA9626",
"Y+	c #CA9C29",
"Z+	c #B8723A",
"`+	c #654C6E",
" @	c #493D56",
".@	c #B66C26",
"+@	c #995A21",
"@@	c #271C2C",
"#@	c #696A34",
"$@	c #7B781C",
"%@	c #7A781C",
"&@	c #494219",
"*@	c #72741B",
"=@	c #9B6B47",
"-@	c #985655",
";@	c #CC7822",
">@	c #BD7132",
",@	c #7C5069",
"'@	c #553D59",
")@	c #150A18",
"!@	c #4C3922",
"~@	c #B3902D",
"{@	c #CF8B28",
"]@	c #A08722",
"^@	c #53471E",
"/@	c #4B4618",
"(@	c #393552",
"_@	c #B86B31",
":@	c #CB7725",
"<@	c #C2742F",
"[@	c #7B514D",
"}@	c #383858",
"|@	c #5A4254",
"1@	c #CA8F2D",
"2@	c #AF7F22",
"3@	c #50471C",
"4@	c #4A4518",
"5@	c #605661",
"6@	c #413B59",
"7@	c #312841",
"8@	c #4F313F",
"9@	c #934E33",
"0@	c #C97727",
"a@	c #D09529",
"b@	c #C17230",
"c@	c #C49632",
"d@	c #CB8229",
"e@	c #AE7A23",
"f@	c #707320",
"g@	c #71711F",
"h@	c #4B1C2B",
"i@	c #6E711B",
"j@	c #707130",
"k@	c #474157",
"l@	c #3B3551",
"m@	c #5D5E2F",
"n@	c #3B363E",
"o@	c #6C443D",
"p@	c #9D5F35",
"q@	c #BA6628",
"r@	c #C46B23",
"s@	c #BB5C21",
"t@	c #C87325",
"u@	c #66373B",
"v@	c #3B354B",
"w@	c #595945",
"x@	c #8E6D6F",
"y@	c #865275",
"z@	c #514367",
"A@	c #3F3A57",
"B@	c #362F4A",
"C@	c #36353E",
"D@	c #AA6531",
"E@	c #71453C",
"F@	c #2F2944",
"G@	c #533544",
"H@	c #C57227",
"I@	c #38393D",
"J@	c #39334E",
"K@	c #3D3854",
"L@	c #3D3957",
"M@	c #845268",
"N@	c #8E5975",
"O@	c #686352",
"P@	c #352E48",
"Q@	c #555434",
"R@	c #5B5B31",
"S@	c #382A40",
"T@	c #AD5B31",
"U@	c #965D43",
"V@	c #593C45",
"W@	c #70731E",
"X@	c #666828",
"Y@	c #342C40",
"Z@	c #322942",
"`@	c #352D47",
" #	c #50374F",
".#	c #8A566E",
"+#	c #5B5B42",
"@#	c #3E3855",
"##	c #342C43",
"$#	c #686A26",
"%#	c #312A41",
"&#	c #6D4C6E",
"*#	c #976942",
"=#	c #463F57",
"-#	c #4D4B38",
";#	c #312840",
">#	c #332B45",
",#	c #38304B",
"'#	c #290D1E",
")#	c #71741F",
"!#	c #3C3753",
"~#	c #6A6D26",
"{#	c #3D3754",
"]#	c #996045",
"^#	c #403044",
"/#	c #857D1B",
"(#	c #45423B",
"_#	c #3A1723",
":#	c #61611A",
"<#	c #3C3652",
"[#	c #4A423D",
"}#	c #8A4D46",
"|#	c #B58A32",
"1#	c #352C45",
"2#	c #B17E21",
"3#	c #422421",
"4#	c #64611D",
"5#	c #3D3A56",
"6#	c #2C263E",
"7#	c #A37D20",
"8#	c #C98E2A",
"9#	c #9D7B36",
"0#	c #222E53",
"a#	c #CB7C29",
"b#	c #74523C",
"c#	c #B07921",
"d#	c #63303A",
"e#	c #62611A",
"f#	c #717421",
"g#	c #865A7F",
"h#	c #946086",
"i#	c #3B2F44",
"j#	c #535339",
"k#	c #AE5C2A",
"l#	c #CD7A26",
"m#	c #A66433",
"n#	c #CA7827",
"o#	c #CC7927",
"p#	c #A17226",
"q#	c #5D2D35",
"r#	c #606119",
"s#	c #747527",
"t#	c #A16891",
"u#	c #8D5872",
"v#	c #915F80",
"w#	c #3E3956",
"x#	c #3A2B41",
"y#	c #33303F",
"z#	c #70731D",
"A#	c #352218",
"B#	c #616119",
"C#	c #747425",
"D#	c #8D5873",
"E#	c #875368",
"F#	c #875366",
"G#	c #4C4950",
"H#	c #262541",
"I#	c #C56D23",
"J#	c #9C5833",
"K#	c #716D24",
"L#	c #362419",
"M#	c #6A6C1A",
"N#	c #7C674B",
"O#	c #845A60",
"P#	c #767032",
"Q#	c #656637",
"R#	c #2F2842",
"S#	c #B66D2E",
"T#	c #AB5629",
"U#	c #BC6223",
"V#	c #CA7625",
"W#	c #874635",
"X#	c #6E612C",
"Y#	c #462822",
"Z#	c #A1781E",
"`#	c #3F334A",
" $	c #332A43",
".$	c #5D3C3E",
"+$	c #84513A",
"@$	c #313554",
"#$	c #B75C25",
"$$	c #BA5D22",
"%$	c #272642",
"&$	c #462823",
"*$	c #74751B",
"=$	c #C07A23",
"-$	c #C67628",
";$	c #935936",
">$	c #6E443C",
",$	c #9E5F34",
"'$	c #744E4F",
")$	c #393958",
"!$	c #B15928",
"~$	c #904A32",
"{$	c #2D2741",
"]$	c #696026",
"^$	c #452821",
"/$	c #605E41",
"($	c #6F4C50",
"_$	c #C0732C",
":$	c #C57529",
"<$	c #373858",
"[$	c #BC7033",
"}$	c #3B3857",
"|$	c #625F1D",
"1$	c #352517",
"2$	c #71741D",
"3$	c #474353",
"4$	c #3C3854",
"5$	c #2D2742",
"6$	c #54373F",
"7$	c #704742",
"8$	c #BD7133",
"9$	c #3B3957",
"0$	c #332B44",
"a$	c #5F5F19",
"b$	c #352617",
"c$	c #636539",
"d$	c #362C44",
"e$	c #B46C2F",
"f$	c #965A36",
"g$	c #BD7233",
"h$	c #551E34",
"i$	c #6F721B",
"j$	c #666736",
"k$	c #392C44",
"l$	c #BF6A26",
"m$	c #BA6D2C",
"n$	c #3B2C41",
"o$	c #302F4C",
"p$	c #AC5931",
"q$	c #3C3957",
"r$	c #370E1E",
"s$	c #7F8124",
"t$	c #54323D",
"u$	c #814537",
"v$	c #B66A2D",
"w$	c #1B2242",
"x$	c #AB5730",
"y$	c #35314C",
"z$	c #350C1D",
"A$	c #5A5B44",
"B$	c #2F2741",
"C$	c #894735",
"D$	c #CE7823",
"E$	c #362B41",
"F$	c #403B57",
"G$	c #362F49",
"H$	c #332A44",
"I$	c #854636",
"J$	c #B96D2C",
"K$	c #302841",
"L$	c #6F711B",
"M$	c #35111C",
"N$	c #686F16",
"O$	c #3B3550",
"P$	c #362E49",
"Q$	c #3D3855",
"R$	c #322F4A",
"S$	c #CC7725",
"T$	c #B06930",
"U$	c #76751C",
"V$	c #4B421A",
"W$	c #4D4918",
"X$	c #45424B",
"Y$	c #3A3450",
"Z$	c #372F4A",
"`$	c #3B3450",
" %	c #38334E",
".%	c #9A4E30",
"+%	c #74741C",
"@%	c #4C431A",
"#%	c #696B26",
"$%	c #3C363E",
"%%	c #3B3540",
"&%	c #3B353F",
"*%	c #3B3640",
"=%	c #39333F",
"-%	c #4E4919",
";%	c #514E18",
"                                                                                                        . + +   @ +     .       ",
"                                                                                                        @ + + + @   + + @       ",
"                    .                                     # $                                         . + @ + +     + + @       ",
"          . . +     + +                                 % &       * =                                 @ + + @ +     @ @         ",
"            . + +   @ +     .                           -                                               @ + @ @                 ",
"            @ + + + @   + + @                                                                                                   ",
"          . + @ + +     + + @                                         ; >     , '                                               ",
"          @ + + @ +     @ @                                 ) !     ~ { ]     ^ /                                               ",
"            @ + @ @                                         ( _   - : < [     } |                                               ",
"                                                          ) 1 2   $ 3         4 5                                               ",
"                                                          6 7 8   9           0 a                                               ",
"                                                          b c d   e             f                                               ",
"                                                    g       h     f                                                             ",
"                                                h i j k         l m n o           p q                                           ",
"                                                r s t u     v w x x x y           z A v                                         ",
"                                              B C D E F G H I x J K x L M N         [ O                                         ",
"                                              P Q   R G ; S K T U V s W X Y Z +       . .                                       ",
"                                                  ` ; ; ;  ...+.@.#.$.; %.&.*.=.    + .                                         ",
"                                                  -.; ; ; J ; ; ;.>.,.; ; '.; ).!.+ + +                                         ",
"                                                    ~.; ; J ; #.{.].^.; ; /.(.; _.+ + @                                         ",
"                                                    :.<.; J ..[.}.|.1.2...3.; ; 4.5.@                                           ",
"                                                    6.7.; 8.9.0.a.b.c.d.e.f.; ; g.                                              ",
"                                                    h.; i.K j.k.l.; m.n.o.S ; ..p.                                              ",
"                                                    q.X r.x s.k.t.; u.v.w.X x.y.                                                ",
"                                                    r.z.r.x A.B.k.C.v.D.E.F.G.H.                                                ",
"                                                    x I.J.r.K.L.M.;.N.O.P.x Q.          + .                                     ",
"                                                    R.S.T.U.V.W.X.B.0.Y.x U.Z.$           . .                                   ",
"                                                    `. +; .+++@+#+$+B.%+ .; &+*+          + + +                                 ",
"                                                    =+-+; ;+>+,+'+$+X.)+..; !+*+          @ + + @ + + . .                       ",
"                                                    ~+; ; +.{+]+^+/+$+(+; 4._+:+            @ @ + + +                           ",
"                                                    <+[+; }+{+|+1+2+$+3+; 4+$                   + + @                           ",
"                                    5+6+7+      + +   8+t ; 9+0+a+$+b+4.7 c+                    + @                             ",
"                                d+e+f+g+g+h+  + +     - i+t 9.j+$+k+l+; m+n+                                                    ",
"                                o+p+q+r+s+t+  + +       u+v+w+$+L.x+y+!+z+o                                                     ",
"                                A+B+C+D+E+F+  @ @         G+H+I+J+K+L+M+o                                                       ",
"                                N+O+P+Q+R+S+T+              U+V+W+U+                                                .           ",
"                          X+Y+Z+`+ @_+.@+@@@#@$@%@          U+&@&@*@                                              .             ",
"                            =@-@;@>@,@'@)@!@~@{@]@            ^@/@                                              + +             ",
"                          o+B+(@_@:@<@[@}@|@1@2@              3@4@                                              + + @           ",
"                          5@6@7@8@9@0@a@b@c@d@e@f@          g@h@i@                                              @ @ + .         ",
"                        j@k@l@m@n@o@p@q@r@s@t@u@v@w@        x@y@                                                    + +         ",
"                        z@A@B@o o C@D@E@F@G@H@I@7@J@K@A@A@L@M@N@                                                    @ @         ",
"                      O@A@P@Q@    R@S@T@U@A@V@W@X@Y@Z@`@A@A@ #.#                                                                ",
"                      +#@###$#      %#&#*#=#A@      -#7@;#>#,#'#          . .           .                                       ",
"                    )#A@!#Y@        ~#{#]#^#A@/#      o   (#_#:#            . + +   + .                                         ",
"                    )#A@<#Y@        [#!#}#|#1#2#            3#4#      + . . @ + @ + + @                                         ",
"                    )#5#6#Y@      7#8#9#0#a#b#c#            d#e#        . + + @ @ + + @                                         ",
"                    f#g#h#i#    h j#k#l#m#n#o#p#            q#r#        @ + +     + @                                           ",
"                    s#t#u#v#    )#w#x#k#l#l#l#y#z#          A#B#          @ +                                                   ",
"                    C#D#E#F#    G#A@Z@H#I#l#l#J#W@        K#L#M#                                                                ",
"                      N#O#P#  Q#A@w#R#S#T#U#V#W#W@        X#Y#                                                                  ",
"                            Z#`#A@ $.$+$@$#$$$%$W@        X#&$                                                                  ",
"                          *$=$-$;$>$,$'$)$!$~${$W@        ]$^$                                                                  ",
"                            /$($_$:$l#'$<$[$}$J@W@        |$1$                                                                  ",
"                          2$3$4$5$6$o#7$<$8$9$0$W@        a$b$                                                                  ",
"                          c$A@w#d$e$f${$<$g$9$7@W@        h$i$                                                                  ",
"                        j$A@A@{#k$l$m$n$o$p$q$7@W@        r$i@                                                                  ",
"          s$            A@A@A@A@A@t$u$v$w$x$y$7@W@        z$i@                                                                  ",
"            s$        A$A@A@A@A@A@;#B$C$D$E$7@7@W@        z$i@      + +                                                         ",
"            + +     )#F$A@A@A@A@G$H$H$Z@I$J$6$K$W@      L$M$L$      N$s$s$                                                      ",
"          N$+ +     )#A@A@A@O$P$Q$A@A@<#R$u$S$T$U$      V$W$          s$+ +       +                                             ",
"        s$+ N$N$    X$K@Y$H$7@Z$@#A@`$Y$Y$ %C$.%+%      @%W$          N$+ +   s$+                                               ",
"        + +       #%$%%%&%&%&%*%*%*%&%&%&%&%&%=%W@      -%;%          N$+ + + s$s$                        s$                    ",
"        N$N$                                                            N$N$+ + N$                      + +     s$s$+           "};
