/* XPM */
static char * enemy7ok_xpm[] = {
"64 64 555 2",
"  	c #72751B",
". 	c #7F8226",
"+ 	c #787B21",
"@ 	c #656C17",
"# 	c #656621",
"$ 	c #6C6E1E",
"% 	c #433A2B",
"& 	c #41362D",
"* 	c #646423",
"= 	c #514D28",
"- 	c #6C6A2B",
"; 	c #4F174F",
"> 	c #37093B",
", 	c #6E711D",
"' 	c #29072F",
") 	c #4D0C4F",
"! 	c #4A0C4C",
"~ 	c #3B2F2C",
"{ 	c #6C6A2D",
"] 	c #331F2F",
"^ 	c #3A2D2D",
"/ 	c #6C6B2A",
"( 	c #71741B",
"_ 	c #5E4D40",
": 	c #3D2536",
"< 	c #70721D",
"[ 	c #440B47",
"} 	c #2D1230",
"| 	c #626223",
"1 	c #636421",
"2 	c #4E2549",
"3 	c #40372C",
"4 	c #594045",
"5 	c #36083A",
"6 	c #2E172E",
"7 	c #462E3B",
"8 	c #3E352A",
"9 	c #61553A",
"0 	c #575426",
"a 	c #320836",
"b 	c #30172F",
"c 	c #6A6B1F",
"d 	c #39093D",
"e 	c #321E2E",
"f 	c #71741C",
"g 	c #523941",
"h 	c #2F0834",
"i 	c #696A20",
"j 	c #585526",
"k 	c #34212F",
"l 	c #311D2E",
"m 	c #70721B",
"n 	c #491D46",
"o 	c #4B442D",
"p 	c #646522",
"q 	c #2B0F2F",
"r 	c #2A082F",
"s 	c #382B2C",
"t 	c #5A4344",
"u 	c #4C4629",
"v 	c #573849",
"w 	c #747528",
"x 	c #3B2F2D",
"y 	c #29062F",
"z 	c #402231",
"A 	c #330B28",
"B 	c #2D0929",
"C 	c #28072E",
"D 	c #2D152F",
"E 	c #3A322A",
"F 	c #64573E",
"G 	c #58532C",
"H 	c #453E2B",
"I 	c #3B1021",
"J 	c #2B0A18",
"K 	c #2C0C2A",
"L 	c #36083B",
"M 	c #61543C",
"N 	c #5F4F3F",
"O 	c #4B0C4D",
"P 	c #6B6C22",
"Q 	c #360D1E",
"R 	c #432531",
"S 	c #472837",
"T 	c #6E6E26",
"U 	c #553349",
"V 	c #6D6D24",
"W 	c #310836",
"X 	c #3D0940",
"Y 	c #2C0830",
"Z 	c #380E24",
"` 	c #2F0B19",
" .	c #482040",
"..	c #452934",
"+.	c #361832",
"@.	c #3E0A41",
"#.	c #655C38",
"$.	c #676821",
"%.	c #2E0733",
"&.	c #4E0C50",
"*.	c #2F0831",
"=.	c #3B0F21",
"-.	c #2A091A",
";.	c #4B0C4C",
">.	c #441F3D",
",.	c #422733",
"'.	c #330F35",
").	c #5C5B26",
"!.	c #646520",
"~.	c #2A0C2F",
"{.	c #450B47",
"].	c #3A0D2A",
"^.	c #3F0D35",
"/.	c #441E3D",
"(.	c #3F2631",
"_.	c #380E3A",
":.	c #472C3E",
"<.	c #5A4146",
"[.	c #2B0731",
"}.	c #480B4B",
"|.	c #490B4C",
"1.	c #360D22",
"2.	c #350D26",
"3.	c #3A093E",
"4.	c #3F1E38",
"5.	c #3E252F",
"6.	c #4C104D",
"7.	c #460B48",
"8.	c #503B3D",
"9.	c #6B682C",
"0.	c #350A3A",
"a.	c #330838",
"b.	c #400A43",
"c.	c #28091C",
"d.	c #340D1D",
"e.	c #310D2F",
"f.	c #3E2530",
"g.	c #43203B",
"h.	c #460B49",
"i.	c #2A0730",
"j.	c #443C2B",
"k.	c #4B1A4B",
"l.	c #29072D",
"m.	c #280915",
"n.	c #330C1C",
"o.	c #3D212D",
"p.	c #311032",
"q.	c #4B194B",
"r.	c #420A45",
"s.	c #4A0C4D",
"t.	c #391731",
"u.	c #270916",
"v.	c #3B0F20",
"w.	c #35083A",
"x.	c #3B093E",
"y.	c #6A6B23",
"z.	c #491448",
"A.	c #492B38",
"B.	c #520C17",
"C.	c #280916",
"D.	c #410E35",
"E.	c #450B48",
"F.	c #4A0B4C",
"G.	c #4D1C4B",
"H.	c #480A4B",
"I.	c #4A2939",
"J.	c #B1262C",
"K.	c #CD1F21",
"L.	c #410E34",
"M.	c #330837",
"N.	c #350839",
"O.	c #5B5B24",
"P.	c #5A5826",
"Q.	c #4E0B50",
"R.	c #3F2433",
"S.	c #CE2529",
"T.	c #CC1F22",
"U.	c #290916",
"V.	c #3D0C32",
"W.	c #4C4729",
"X.	c #70722C",
"Y.	c #717326",
"Z.	c #5D5C24",
"`.	c #2A092F",
" +	c #3B083F",
".+	c #51242F",
"++	c #C61E23",
"@+	c #2A0917",
"#+	c #390A34",
"$+	c #2C0731",
"%+	c #6B6945",
"&+	c #5A4772",
"*+	c #5E4F6B",
"=+	c #72741F",
"-+	c #5E5D24",
";+	c #2F0734",
">+	c #461844",
",+	c #3C1826",
"'+	c #230A18",
")+	c #270913",
"!+	c #4D0C50",
"~+	c #410A44",
"{+	c #3D322C",
"]+	c #70731C",
"^+	c #504267",
"/+	c #3B3957",
"(+	c #3C3957",
"_+	c #574D62",
":+	c #28072F",
"<+	c #410A42",
"[+	c #2C0A17",
"}+	c #3B0A3A",
"|+	c #4B2645",
"1+	c #504A2C",
"2+	c #70722A",
"3+	c #423A57",
"4+	c #A45537",
"5+	c #8A4527",
"6+	c #4A4851",
"7+	c #33212C",
"8+	c #2C1415",
"9+	c #2C1416",
"0+	c #33212B",
"a+	c #5E5D23",
"b+	c #6F721D",
"c+	c #5F5269",
"d+	c #4F4166",
"e+	c #694751",
"f+	c #BE6221",
"g+	c #8F461F",
"h+	c #36313C",
"i+	c #6C6E2B",
"j+	c #514D18",
"k+	c #422C1E",
"l+	c #938320",
"m+	c #978520",
"n+	c #8E7529",
"o+	c #5A4E6B",
"p+	c #5B3F46",
"q+	c #C87725",
"r+	c #9F5E22",
"s+	c #2C1F32",
"t+	c #6C6C3D",
"u+	c #453A19",
"v+	c #463A1A",
"w+	c #817A1D",
"x+	c #CB8026",
"y+	c #BB652E",
"z+	c #C37536",
"A+	c #975E45",
"B+	c #594057",
"C+	c #5F393B",
"D+	c #3F241D",
"E+	c #2C202A",
"F+	c #736F32",
"G+	c #CB9D29",
"H+	c #BD9726",
"I+	c #494219",
"J+	c #72741B",
"K+	c #696A45",
"L+	c #56425F",
"M+	c #C2732F",
"N+	c #CE7B24",
"O+	c #AE6952",
"P+	c #483E5F",
"Q+	c #352E46",
"R+	c #644743",
"S+	c #D29E28",
"T+	c #BB7724",
"U+	c #53471E",
"V+	c #4B4618",
"W+	c #4E4166",
"X+	c #38334F",
"Y+	c #954C31",
"Z+	c #B66329",
"`+	c #CE7A26",
" @	c #CE8427",
".@	c #7A504E",
"+@	c #7F654E",
"@@	c #BD7533",
"#@	c #B18C24",
"$@	c #50471C",
"%@	c #4A4518",
"&@	c #605661",
"*@	c #413B59",
"=@	c #322941",
"-@	c #955836",
";@	c #824F3A",
">@	c #CC7E26",
",@	c #CD7926",
"'@	c #BE6A23",
")@	c #C97625",
"!@	c #945031",
"~@	c #6E7123",
"{@	c #72751D",
"]@	c #71711F",
"^@	c #4B1C2B",
"/@	c #6E711B",
"(@	c #707130",
"_@	c #474157",
":@	c #3B3551",
"<@	c #61632D",
"[@	c #61632C",
"}@	c #1E2242",
"|@	c #BD712C",
"1@	c #703B3A",
"2@	c #824336",
"3@	c #8D4833",
"4@	c #C97425",
"5@	c #202341",
"6@	c #38324D",
"7@	c #53514B",
"8@	c #646538",
"9@	c #8E6D6F",
"0@	c #865275",
"a@	c #514367",
"b@	c #3F3A57",
"c@	c #362F4A",
"d@	c #595A32",
"e@	c #55333E",
"f@	c #C16D25",
"g@	c #5D414A",
"h@	c #3D3855",
"i@	c #A26135",
"j@	c #61652B",
"k@	c #312941",
"l@	c #39334E",
"m@	c #3D3854",
"n@	c #3D3957",
"o@	c #845268",
"p@	c #8E5975",
"q@	c #686352",
"r@	c #352E48",
"s@	c #555434",
"t@	c #70721E",
"u@	c #332B40",
"v@	c #935C7A",
"w@	c #96553E",
"x@	c #403A57",
"y@	c #676828",
"z@	c #342C40",
"A@	c #322942",
"B@	c #352D47",
"C@	c #50374F",
"D@	c #8A566E",
"E@	c #5B5B42",
"F@	c #3E3855",
"G@	c #342C43",
"H@	c #686A26",
"I@	c #575733",
"J@	c #393551",
"K@	c #9A6D46",
"L@	c #473A4D",
"M@	c #4D4B38",
"N@	c #312841",
"O@	c #312840",
"P@	c #332B45",
"Q@	c #38304B",
"R@	c #290D1E",
"S@	c #71741F",
"T@	c #3C3753",
"U@	c #616331",
"V@	c #3E3956",
"W@	c #955B45",
"X@	c #705540",
"Y@	c #3C3653",
"Z@	c #B28D22",
"`@	c #45423B",
" #	c #3A1723",
".#	c #61611A",
"+#	c #3C3652",
"@#	c #A18921",
"##	c #B38A32",
"$#	c #3C3144",
"%#	c #4D3B55",
"&#	c #CA842A",
"*#	c #6E553D",
"=#	c #B07921",
"-#	c #422421",
";#	c #64611D",
">#	c #3D3A56",
",#	c #2C263E",
"'#	c #7D6129",
")#	c #C67224",
"!#	c #D19128",
"~#	c #744942",
"{#	c #CA7828",
"]#	c #AA6532",
"^#	c #63303A",
"/#	c #62611A",
"(#	c #717421",
"_#	c #865A7F",
":#	c #946086",
"<#	c #3B2F44",
"[#	c #3A344F",
"}#	c #59343E",
"|#	c #C46F26",
"1#	c #CC7A26",
"2#	c #CD7A26",
"3#	c #4B4C37",
"4#	c #72751C",
"5#	c #5D2D35",
"6#	c #606119",
"7#	c #747527",
"8#	c #A16891",
"9#	c #8D5872",
"0#	c #915F80",
"a#	c #555449",
"b#	c #312842",
"c#	c #5B353D",
"d#	c #C66F24",
"e#	c #935837",
"f#	c #70731E",
"g#	c #352218",
"h#	c #616119",
"i#	c #737424",
"j#	c #8D5873",
"k#	c #875368",
"l#	c #7F6254",
"m#	c #866A5F",
"n#	c #6F7224",
"o#	c #464353",
"p#	c #3F3A58",
"q#	c #302842",
"r#	c #895338",
"s#	c #C26722",
"t#	c #C56F24",
"u#	c #CD7B26",
"v#	c #934B32",
"w#	c #716D24",
"x#	c #362419",
"y#	c #6A6C1A",
"z#	c #737421",
"A#	c #865565",
"B#	c #855B62",
"C#	c #747526",
"D#	c #7F761F",
"E#	c #403B53",
"F#	c #38314C",
"G#	c #3D2D40",
"H#	c #AE6831",
"I#	c #2F2A46",
"J#	c #B75C24",
"K#	c #BA5E22",
"L#	c #302841",
"M#	c #6E612C",
"N#	c #462822",
"O#	c #75722D",
"P#	c #796F3D",
"Q#	c #777529",
"R#	c #C77A25",
"S#	c #A96633",
"T#	c #372E46",
"U#	c #332941",
"V#	c #68413D",
"W#	c #734C4B",
"X#	c #393958",
"Y#	c #B75C26",
"Z#	c #B95D23",
"`#	c #292641",
" $	c #462823",
".$	c #93771D",
"+$	c #AB6631",
"@$	c #D17C24",
"#$	c #B56C2F",
"$$	c #744E4F",
"%$	c #383858",
"&$	c #B3642F",
"*$	c #2C2F4D",
"=$	c #696026",
"-$	c #452821",
";$	c #5D5E41",
">$	c #3F3853",
",$	c #412F41",
"'$	c #905737",
")$	c #734D4D",
"!$	c #373858",
"~$	c #BD7133",
"{$	c #38324C",
"]$	c #625F1D",
"^$	c #352517",
"/$	c #71741D",
"($	c #474353",
"_$	c #865139",
":$	c #C1732B",
"<$	c #453040",
"[$	c #312740",
"}$	c #5F5F19",
"|$	c #352617",
"1$	c #636539",
"2$	c #3A2D44",
"3$	c #CE7723",
"4$	c #855139",
"5$	c #2D2741",
"6$	c #353554",
"7$	c #B66732",
"8$	c #551E34",
"9$	c #6F721B",
"0$	c #666736",
"a$	c #3D3754",
"b$	c #332B44",
"c$	c #864736",
"d$	c #B55F27",
"e$	c #7E4C3A",
"f$	c #262642",
"g$	c #AB5730",
"h$	c #3B3855",
"i$	c #370E1E",
"j$	c #7F8124",
"k$	c #2E2741",
"l$	c #3D2B40",
"m$	c #B35F29",
"n$	c #B46C2F",
"o$	c #6C3D3C",
"p$	c #312943",
"q$	c #350C1D",
"r$	c #5A5B44",
"s$	c #B1602A",
"t$	c #242441",
"u$	c #403B57",
"v$	c #362F49",
"w$	c #332A44",
"x$	c #312942",
"y$	c #352941",
"z$	c #B35E28",
"A$	c #C77628",
"B$	c #52363F",
"C$	c #71731E",
"D$	c #6F711B",
"E$	c #35111C",
"F$	c #686F16",
"G$	c #3B3550",
"H$	c #362E49",
"I$	c #37304A",
"J$	c #3C2B40",
"K$	c #B25F2A",
"L$	c #C26822",
"M$	c #77741B",
"N$	c #4B421A",
"O$	c #4D4918",
"P$	c #45424B",
"Q$	c #3A3450",
"R$	c #372F4A",
"S$	c #3B3450",
"T$	c #2C2741",
"U$	c #2B2741",
"V$	c #4C431A",
"W$	c #696B26",
"X$	c #3C363E",
"Y$	c #3B3540",
"Z$	c #3B353F",
"`$	c #3B3640",
" %	c #39333F",
".%	c #4E4919",
"+%	c #514E18",
"                                                                                                        . + +   @ +     .       ",
"                                                                                                        @ + + + @   + + @       ",
"                    .                                                                                 . + @ + +     + + @       ",
"          . . +     + +                                                                               @ + + @ +     @ @         ",
"            . + +   @ +     .                                                     # $                   @ + @ @                 ",
"            @ + + + @   + + @                                                     %                                             ",
"          . + @ + +     + + @                                                                                                   ",
"          @ + + @ +     @ @                                                                                                     ",
"            @ + @ @                                                                                                             ",
"                                                                                                                                ",
"                                                      & *     =                                                                 ",
"                                                    - ; >   , '                                                                 ",
"                                                    ) ! ~ { ] ^   /   % (                                                       ",
"                                                  _ ) : < [ } | 1 2   ' 3                                                       ",
"                                                  4 5 6 7 8 9 0 a b c d e                                                       ",
"                                                f g h i ' j k ' ' l m n o .                                                     ",
"                                                f % h i ' p q ' r ' s t u . v w       . .                                       ",
"                                                    ' 6 x u ' y z A B C D E ) F     + .                                         ",
"                                                    G % H ' ' ' I J K ' ' ' L ) M + + +                                         ",
"                                                  N O P ' ' ' A Q R S ' ' ' 5 ) ) + + @                                         ",
"                                                T ) U V W X Y Z `  ...+.' ' C @.#.@ @                                           ",
"                                                T ) M $.%.&.*.=.-.;.>.,.'.' ' ' ).                                              ",
"                                                T ) !.~.{.) ].=.^.) /.(._.> ' ' :.                                              ",
"                                                  <.C [.}.|.1.=.2.3.4.5.6.) 7.' C 8.                                            ",
"                                                9.0.' a.) b.c.d.=.e.f.g.) ) h.i.' j.                                            ",
"                                                k.C 5 ) ) C l.m.n.I o.p.O ) ) h ' j.    + .                                     ",
"                                                q.C r.r.s.C i.t.u.d.v.w.! ) ) ) x.        . .                                   ",
"                                                y.' ' ' [.i.z.A.B.C.d.D.) ) E.F.G.        + + +                                 ",
"                                                $ ' ' ' ' H.I.J.K.C.u.L.) ) M.N.O.        @ + + @ + + . .                       ",
"                                                  P.' ' ' Q.R.S.T.U.C.V.) ) 7.W.            @ @ + + +                           ",
"                                    X.X.Y.          Z.`.'  +R..+++@+C.#+) ) $+$                 + + @                           ",
"                                  %+&+&+*+=+    + +   -+' ;+>+,+'+C.)+!+) ~+{+]+                + @                             ",
"                                =+&+^+/+(+_+  + +       P.:+<+[+C.m.}+|+1+                                                      ",
"                                2+^+3+4+5+6+  + +         -+7+8+9+0+a+b+                                                        ",
"                                c+d+e+f+g+h+i+@ @           j+k+k+j+                                                            ",
"                          l+m+n+o+(+p+q+r+s+t+              ( u+v+(                                                 .           ",
"                          w+x+y+z+A+B+C+D+E+F+G+H+          ( I+I+J+                                              .             ",
"                            K+L+M+N+O+P+Q+R+S+T+              U+V+                                              + +             ",
"                          =+W+X+Y+Z+`+ @.@+@@@#@              $@%@                                              + + @           ",
"                          &@*@=@=@-@;@>@,@'@)@!@~@{@        ]@^@/@                                              @ @ + .         ",
"                        (@_@:@<@[@}@|@1@2@3@4@5@6@7@8@      9@0@                                                    + +         ",
"                        a@b@c@f   d@e@f@g@h@i@j@k@l@m@b@b@n@o@p@                                                    @ @         ",
"                      q@b@r@s@    t@u@v@w@x@h@  y@z@A@B@b@b@C@D@                                                                ",
"                      E@F@G@H@      I@J@K@L@b@      M@N@O@P@Q@R@          . .           .                                       ",
"                    S@b@T@z@        U@V@W@X@Y@Z@      f   `@ #.#            . + +   + .                                         ",
"                    S@b@+#z@      @###$#%#&#*#=#            -#;#      + . . @ + @ + + @                                         ",
"                    S@>#,#z@      '#)#!#~#{#]#=#            ^#/#        . + + @ @ + + @                                         ",
"                    (#_#:#<#    {@[#}#|#1#2#2#3#4#          5#6#        @ + +     + @                                           ",
"                    7#8#9#0#    a#b@b#c#d#2#2#e#f#          g#h#          @ +                                                   ",
"                    i#j#k#l#m#n#o#p#q#r#s#t#u#v#f#        w#x#y#                                                                ",
"                    z#A#B#C#D#E#b@F#G#H#I#J#K#L#f#        M#N#                                                                  ",
"                      O#P#Q#R#S#T#U#V#W#X#Y#Z#`#f#        M# $                                                                  ",
"                            .$+$@$#$2#$$%$&$*$B@f#        =$-$                                                                  ",
"                            ;$>$,$'$2#)$!$~$/+{$f#        ]$^$                                                                  ",
"                          /$($m@A@_$:$<$!$~$/+[$f#        }$|$                                                                  ",
"                          1$b@V@2$3$4$5$6$7$(+N@f#        8$9$                                                                  ",
"                        0$b@b@a$b$c$d$e$f$g$h$N@f#        i$/@                                                                  ",
"          j$            b@b@b@b@b@k$l$m$n$o$p$N@f#        q$/@                                                                  ",
"            j$        r$b@b@b@b@b@O@N@k$s$4$t$N@f#        q$/@      + +                                                         ",
"            + +     S@u$b@b@b@b@v$w$w$x$y$z$A$B$C$      D$E$D$      F$j$j$                                                      ",
"          F$+ +     S@b@b@b@G$H$h@b@b@+#I$J$K$L$M$      N$O$          j$+ +       +                                             ",
"        j$+ F$F$    P$m@Q$w$N@R$F@b@S$Q$Q$l@T$U$f#      V$O$          F$+ +   j$+                                               ",
"        + +       W$X$Y$Z$Z$Z$`$`$`$Z$Z$Z$Z$Z$ %f#      .%+%          F$+ + + j$j$                        j$                    ",
"        F$F$                                                            F$F$+ + F$                      + +     j$j$+           "};
