/* XPM */
static char * enemy6ok_xpm[] = {
"64 64 557 2",
"  	c #72751B",
". 	c #646228",
"+ 	c #4A0C4C",
"@ 	c #544E2D",
"# 	c #7F8226",
"$ 	c #787B21",
"% 	c #656C17",
"& 	c #6E701D",
"* 	c #3B2F2D",
"= 	c #3F1C3D",
"- 	c #490B4C",
"; 	c #2F172F",
"> 	c #480B4A",
", 	c #5C5B26",
"' 	c #6C6E1E",
") 	c #47402A",
"! 	c #6F721D",
"~ 	c #604F3F",
"{ 	c #4D462C",
"] 	c #6F721E",
"^ 	c #460B49",
"/ 	c #6E6E23",
"( 	c #70731C",
"_ 	c #34242D",
": 	c #3D1B3C",
"< 	c #6F711D",
"[ 	c #5F5F24",
"} 	c #6E711D",
"| 	c #645F31",
"1 	c #4F1C4D",
"2 	c #29072F",
"3 	c #6D6F1D",
"4 	c #442B3B",
"5 	c #6E6E26",
"6 	c #5F4F3F",
"7 	c #33212E",
"8 	c #49432A",
"9 	c #3E332C",
"0 	c #4D0C4F",
"a 	c #6D6C28",
"b 	c #71741B",
"c 	c #4F4B28",
"d 	c #49422A",
"e 	c #41372C",
"f 	c #563948",
"g 	c #71741D",
"h 	c #676820",
"i 	c #311C2E",
"j 	c #626223",
"k 	c #583D46",
"l 	c #585626",
"m 	c #70721C",
"n 	c #686920",
"o 	c #6F721C",
"p 	c #6B6D1F",
"q 	c #543C41",
"r 	c #6D6F1E",
"s 	c #4B1E49",
"t 	c #402937",
"u 	c #2D152F",
"v 	c #6B6D1E",
"w 	c #594145",
"x 	c #4B0C4E",
"y 	c #300835",
"z 	c #565327",
"A 	c #605F23",
"B 	c #565427",
"C 	c #6E6D27",
"D 	c #471447",
"E 	c #666720",
"F 	c #4C0E4E",
"G 	c #2C0732",
"H 	c #371239",
"I 	c #50244B",
"J 	c #70731B",
"K 	c #707029",
"L 	c #594045",
"M 	c #440A47",
"N 	c #37282D",
"O 	c #60513E",
"P 	c #2F0834",
"Q 	c #2A0730",
"R 	c #3F0A42",
"S 	c #470C4A",
"T 	c #4A0C4D",
"U 	c #372B2B",
"V 	c #4C0C4E",
"W 	c #351C32",
"X 	c #615141",
"Y 	c #5A4046",
"Z 	c #27072D",
"` 	c #27072E",
" .	c #440B47",
"..	c #4B0C4D",
"+.	c #27062D",
"@.	c #452337",
"#.	c #440E3C",
"$.	c #390B36",
"%.	c #321532",
"&.	c #3A322A",
"*.	c #64573E",
"=.	c #473F2B",
"-.	c #3E0A41",
";.	c #450B48",
">.	c #37083C",
",.	c #3B1021",
"'.	c #2B0A18",
").	c #440F42",
"!.	c #61543C",
"~.	c #6A6C1F",
"{.	c #37093B",
"].	c #360C2B",
"^.	c #360D1E",
"/.	c #432531",
"(.	c #4B283C",
"_.	c #4A0B4C",
":.	c #3C093F",
"<.	c #4B0C4C",
"[.	c #380E23",
"}.	c #2F0B1A",
"|.	c #3D1F32",
"1.	c #452934",
"2.	c #4C1A49",
"3.	c #490B4B",
"4.	c #625D2F",
"5.	c #6F6F25",
"6.	c #480C49",
"7.	c #3B0F20",
"8.	c #2A091B",
"9.	c #300834",
"0.	c #3A1E32",
"a.	c #422733",
"b.	c #4D124D",
"c.	c #350839",
"d.	c #2A092F",
"e.	c #6F7024",
"f.	c #3F1C3E",
"g.	c #390D29",
"h.	c #3B0F21",
"i.	c #3F0D35",
"j.	c #441E3D",
"k.	c #3F2631",
"l.	c #380E3A",
"m.	c #28072E",
"n.	c #36083A",
"o.	c #4D0C50",
"p.	c #370D24",
"q.	c #420E36",
"r.	c #441E3E",
"s.	c #3E252F",
"t.	c #4A104B",
"u.	c #450B47",
"v.	c #420A44",
"w.	c #503B3D",
"x.	c #6A672D",
"y.	c #340839",
"z.	c #2C0921",
"A.	c #340D1D",
"B.	c #490F47",
"C.	c #3E2530",
"D.	c #3A1F31",
"E.	c #3C0940",
"F.	c #2E0834",
"G.	c #443C2B",
"H.	c #4B1A4B",
"I.	c #4E0C4F",
"J.	c #420A45",
"K.	c #29072D",
"L.	c #280915",
"M.	c #330C1C",
"N.	c #3D212D",
"O.	c #3A113B",
"P.	c #460B48",
"Q.	c #421841",
"R.	c #330838",
"S.	c #39093D",
"T.	c #3B1733",
"U.	c #270916",
"V.	c #320837",
"W.	c #2C0731",
"X.	c #28072F",
"Y.	c #696B20",
"Z.	c #310836",
"`.	c #331233",
" +	c #492B38",
".+	c #520C17",
"++	c #280916",
"@+	c #350D26",
"#+	c #421B41",
"$+	c #2B0730",
"%+	c #410A44",
"&+	c #28062E",
"*+	c #482937",
"=+	c #B1262C",
"-+	c #CD1F21",
";+	c #360C25",
">+	c #2B0731",
",+	c #5C5B24",
"'+	c #5A5826",
")+	c #2F0734",
"!+	c #3D2431",
"~+	c #CE2529",
"{+	c #CC1F22",
"]+	c #290916",
"^+	c #3E0C32",
"/+	c #4C4729",
"(+	c #5D5C24",
"_+	c #4B0B4D",
":+	c #3F2433",
"<+	c #51242F",
"[+	c #C61E23",
"}+	c #2A0917",
"|+	c #390A34",
"1+	c #665D5F",
"2+	c #686061",
"3+	c #6A674A",
"4+	c #5E5D24",
"5+	c #2E0733",
"6+	c #461844",
"7+	c #3C1826",
"8+	c #230A18",
"9+	c #270913",
"0+	c #3D322C",
"a+	c #72751D",
"b+	c #635A60",
"c+	c #594671",
"d+	c #52436A",
"e+	c #6B6A45",
"f+	c #410A42",
"g+	c #2C0A17",
"h+	c #270914",
"i+	c #420B41",
"j+	c #51264C",
"k+	c #504A2C",
"l+	c #72741F",
"m+	c #5A4772",
"n+	c #423B5A",
"o+	c #4E3D55",
"p+	c #493B54",
"q+	c #4D4954",
"r+	c #33212C",
"s+	c #2C1415",
"t+	c #2B1414",
"u+	c #4C2346",
"v+	c #4F204C",
"w+	c #707221",
"x+	c #666056",
"y+	c #4E4166",
"z+	c #583F53",
"A+	c #B55B28",
"B+	c #90471B",
"C+	c #4B4850",
"D+	c #514D18",
"E+	c #422C1E",
"F+	c #514D17",
"G+	c #5F5368",
"H+	c #4A3F62",
"I+	c #6B4B51",
"J+	c #C46C23",
"K+	c #944E20",
"L+	c #291D2E",
"M+	c #6A6B37",
"N+	c #453A19",
"O+	c #463A1A",
"P+	c #BA9626",
"Q+	c #CA9C29",
"R+	c #B8723A",
"S+	c #654C6E",
"T+	c #493D56",
"U+	c #33222D",
"V+	c #B66C26",
"W+	c #995A21",
"X+	c #271C2C",
"Y+	c #696A34",
"Z+	c #7B781C",
"`+	c #7A781C",
" @	c #494219",
".@	c #72741B",
"+@	c #9F771D",
"@@	c #985655",
"#@	c #CC7822",
"$@	c #BD7132",
"%@	c #7C5069",
"&@	c #553D59",
"*@	c #150A18",
"=@	c #4C3922",
"-@	c #B3902D",
";@	c #CF8B28",
">@	c #A08722",
",@	c #53471E",
"'@	c #4B4618",
")@	c #707132",
"!@	c #3A3652",
"~@	c #B86B31",
"{@	c #CB7725",
"]@	c #C2742F",
"^@	c #7B514D",
"/@	c #383858",
"(@	c #5A4254",
"_@	c #CA8F2D",
":@	c #AF7F22",
"<@	c #50471C",
"[@	c #4A4518",
"}@	c #727420",
"|@	c #514465",
"1@	c #3B3550",
"2@	c #4F303E",
"3@	c #934E33",
"4@	c #C97727",
"5@	c #D09529",
"6@	c #C17230",
"7@	c #C49632",
"8@	c #CB8229",
"9@	c #AE7A23",
"0@	c #707320",
"a@	c #71711F",
"b@	c #4B1C2B",
"c@	c #6E711B",
"d@	c #676254",
"e@	c #463D5E",
"f@	c #3D383E",
"g@	c #3C363E",
"h@	c #6C443D",
"i@	c #9D5F35",
"j@	c #BA6628",
"k@	c #C46B23",
"l@	c #BB5C21",
"m@	c #C87325",
"n@	c #66373B",
"o@	c #3B354B",
"p@	c #595945",
"q@	c #8E6D6F",
"r@	c #865275",
"s@	c #717425",
"t@	c #4A4654",
"u@	c #3E3855",
"v@	c #525137",
"w@	c #71741C",
"x@	c #36353E",
"y@	c #AA6531",
"z@	c #71453C",
"A@	c #2F2944",
"B@	c #533544",
"C@	c #C57227",
"D@	c #38393D",
"E@	c #312841",
"F@	c #39334E",
"G@	c #3D3854",
"H@	c #3F3A57",
"I@	c #3D3957",
"J@	c #845268",
"K@	c #8E5975",
"L@	c #584C66",
"M@	c #403A58",
"N@	c #38314C",
"O@	c #5B5B31",
"P@	c #382A40",
"Q@	c #AD5B31",
"R@	c #965D43",
"S@	c #593C45",
"T@	c #70731E",
"U@	c #666828",
"V@	c #342C40",
"W@	c #322942",
"X@	c #352D47",
"Y@	c #50374F",
"Z@	c #8A566E",
"`@	c #6C6A45",
" #	c #39324E",
".#	c #4A4739",
"+#	c #72751C",
"@#	c #312A41",
"##	c #6D4C6E",
"$#	c #976942",
"%#	c #463F57",
"&#	c #4D4B38",
"*#	c #312840",
"=#	c #332B45",
"-#	c #38304B",
";#	c #290D1E",
">#	c #5B5B43",
",#	c #3E3956",
"'#	c #342C44",
")#	c #60612D",
"!#	c #6A6D26",
"~#	c #3D3754",
"{#	c #996045",
"]#	c #403044",
"^#	c #857D1B",
"/#	c #45423B",
"(#	c #3A1723",
"_#	c #61611A",
":#	c #71741F",
"<#	c #444055",
"[#	c #3C3753",
"}#	c #4A423D",
"|#	c #8A4D46",
"1#	c #B58A32",
"2#	c #352C45",
"3#	c #B17E21",
"4#	c #422421",
"5#	c #64611D",
"6#	c #A37D20",
"7#	c #C98E2A",
"8#	c #9D7B36",
"9#	c #222E53",
"0#	c #CB7C29",
"a#	c #74523C",
"b#	c #B07921",
"c#	c #63303A",
"d#	c #62611A",
"e#	c #302841",
"f#	c #535339",
"g#	c #AE5C2A",
"h#	c #CD7A26",
"i#	c #A66433",
"j#	c #CA7827",
"k#	c #CC7927",
"l#	c #A17226",
"m#	c #5D2D35",
"n#	c #606119",
"o#	c #775275",
"p#	c #85577B",
"q#	c #3A2B41",
"r#	c #33303F",
"s#	c #70731D",
"t#	c #352218",
"u#	c #616119",
"v#	c #747527",
"w#	c #A26992",
"x#	c #965F80",
"y#	c #7F5474",
"z#	c #4C4950",
"A#	c #262541",
"B#	c #C56D23",
"C#	c #9C5833",
"D#	c #716D24",
"E#	c #362419",
"F#	c #6A6C1A",
"G#	c #747427",
"H#	c #925C7A",
"I#	c #875368",
"J#	c #885568",
"K#	c #656637",
"L#	c #2F2842",
"M#	c #B66D2E",
"N#	c #AB5629",
"O#	c #BC6223",
"P#	c #CA7625",
"Q#	c #874635",
"R#	c #6E612C",
"S#	c #462822",
"T#	c #806156",
"U#	c #7A6B42",
"V#	c #A1781E",
"W#	c #3F334A",
"X#	c #332A43",
"Y#	c #5D3C3E",
"Z#	c #84513A",
"`#	c #313554",
" $	c #B75C25",
".$	c #BA5D22",
"+$	c #272642",
"@$	c #462823",
"#$	c #74751B",
"$$	c #C07A23",
"%$	c #C67628",
"&$	c #935936",
"*$	c #6E443C",
"=$	c #9E5F34",
"-$	c #744E4F",
";$	c #393958",
">$	c #B15928",
",$	c #904A32",
"'$	c #2D2741",
")$	c #696026",
"!$	c #452821",
"~$	c #605E41",
"{$	c #6F4C50",
"]$	c #C0732C",
"^$	c #C57529",
"/$	c #373858",
"($	c #BC7033",
"_$	c #3B3857",
":$	c #625F1D",
"<$	c #352517",
"[$	c #474353",
"}$	c #3C3854",
"|$	c #2D2742",
"1$	c #54373F",
"2$	c #704742",
"3$	c #BD7133",
"4$	c #3B3957",
"5$	c #332B44",
"6$	c #5F5F19",
"7$	c #352617",
"8$	c #636539",
"9$	c #362C44",
"0$	c #B46C2F",
"a$	c #965A36",
"b$	c #BD7233",
"c$	c #551E34",
"d$	c #6F721B",
"e$	c #666736",
"f$	c #392C44",
"g$	c #BF6A26",
"h$	c #BA6D2C",
"i$	c #3B2C41",
"j$	c #302F4C",
"k$	c #AC5931",
"l$	c #3C3957",
"m$	c #370E1E",
"n$	c #7F8124",
"o$	c #54323D",
"p$	c #814537",
"q$	c #B66A2D",
"r$	c #1B2242",
"s$	c #AB5730",
"t$	c #35314C",
"u$	c #350C1D",
"v$	c #5A5B44",
"w$	c #2F2741",
"x$	c #894735",
"y$	c #CE7823",
"z$	c #362B41",
"A$	c #403B57",
"B$	c #362F49",
"C$	c #332A44",
"D$	c #854636",
"E$	c #B96D2C",
"F$	c #6F711B",
"G$	c #35111C",
"H$	c #686F16",
"I$	c #362E49",
"J$	c #3D3855",
"K$	c #3C3652",
"L$	c #322F4A",
"M$	c #CC7725",
"N$	c #B06930",
"O$	c #76751C",
"P$	c #4B421A",
"Q$	c #4D4918",
"R$	c #45424B",
"S$	c #3A3450",
"T$	c #372F4A",
"U$	c #3B3450",
"V$	c #38334E",
"W$	c #9A4E30",
"X$	c #74741C",
"Y$	c #4C431A",
"Z$	c #696B26",
"`$	c #3B3540",
" %	c #3B353F",
".%	c #3B3640",
"+%	c #39333F",
"@%	c #4E4919",
"#%	c #514E18",
"                                                                . + @                                   # $ $   % $     #       ",
"                                                      & *       = - ;                                   % $ $ $ %   $ $ %       ",
"                    #                                           > , '                                 # $ % $ $     $ $ %       ",
"          # # $     $ $                                         ) !                                   % $ $ % $     % %         ",
"            # $ $   % $     #                                             ~ {                           % $ % %                 ",
"            % $ $ $ %   $ $ %                                           ] ^ + /                                                 ",
"          # $ % $ $     $ $ %                                           ( _ > :                                                 ",
"          % $ $ % $     % %                                       < [     } | 1                                                 ",
"            % $ % %                                               } 2       3 4   5 6                                           ",
"                                                                  ! 7 8       9   0 a                                           ",
"                                                ( b                 c d       e   f g                                           ",
"                                              h i '                   j           k                                             ",
"                                              l m     n o     p                   q                                             ",
"                                              r       s t   } u                   v                                             ",
"                                                    w x y   z 2       A           ' B                                           ",
"                                                  C 0 D E F G 2 H I J y K #         b                                           ",
"                                                  L M N O P Q R S T U V W # X $       # #                                       ",
"                                                  Y Z 2 `  ...+.@.#.$.0 %.&.0 *.    $ #                                         ",
"                                                  =.-.Q ;.0 0 >.,.'.).0 ..R 0 0 !.$ $ $                                         ",
"                                                  ~.{.> 0 0 ..].^./.(.0 0 _.:.0 0 $ $ %                                         ",
"                                                    0 0 0 0 <.[.}.|.1.2.0 0 3.R 4.% %                                           ",
"                                                  5.0 0 0 0 6.7.8.9.0.a.b.0 0 c.d.                                              ",
"                                                e.f.0 0 0 0 g.h.i.0 j.k.l.0 0 V m.                                              ",
"                                                5 n.0 0 0 o.p.h.q.0 r.s.t.{.u.v.m.w.                                            ",
"                                                x.y.0 0 0 V z.A.h.B.C.D.T E.F.2 2 G.                                            ",
"                                                H.m.I.0 0 J.K.L.M.,.N.O.0 0 P.2 2 G.    $ #                                     ",
"                                                Q.2 R.0 0 S...T.U.A.h.V.J.0 3.W.X.        # #                                   ",
"                                                Y.2 2 Z.S.2 `. +.+++A.@+y 0 0 P #+        $ $ $                                 ",
"                                                ' 2 2 $+%+&+*+=+-+++U.;+T 0 > >+,+        % $ $ % $ $ # #                       ",
"                                                  '+2 2 X.)+!+~+{+]+++^+0 0 P./+            % % $ $ $                           ",
"                                                    (+d.2 _+:+<+[+}+++|+0 0 W.'                 $ $ %                           ",
"                                    1+2+3+      $ $   4+2 5+6+7+8+++9+o.0 %+0+(                 $ %                             ",
"                                a+b+c+d+d+e+  $ $       '+X.f+g+++h+i+j+k+                                                      ",
"                                l+m+n+o+p+q+  $ $         4+r+s+t+u+v+w+                                                        ",
"                                x+y+z+A+B+C+  % %           D+E+E+F+                                                            ",
"                                G+H+I+J+K+L+M+              b N+O+b                                                 #           ",
"                          P+Q+R+S+T+U+V+W+X+Y+Z+`+          b  @ @.@                                              #             ",
"                            +@@@#@$@%@&@*@=@-@;@>@            ,@'@                                              $ $             ",
"                            )@!@~@{@]@^@/@(@_@:@              <@[@                                              $ $ %           ",
"                          }@|@1@2@3@4@5@6@7@8@9@0@          a@b@c@                                              % % $ #         ",
"                          d@e@f@g@h@i@j@k@l@m@n@o@p@        q@r@                                                    $ $         ",
"                        s@t@u@v@w@x@y@z@A@B@C@D@E@F@G@H@H@I@J@K@                                                    % %         ",
"                        L@M@N@w@  O@P@Q@R@H@S@T@U@V@W@X@H@H@Y@Z@                                                                ",
"                      `@H@ #.#+#    @###$#%#H@      &#E@*#=#-#;#          # #           #                                       ",
"                      >#,#'#)#      !#~#{#]#H@^#      w@  /#(#_#            # $ $   $ #                                         ",
"                    :#<#[#V@        }#[#|#1#2#3#            4#5#      $ # # % $ % $ $ %                                         ",
"                    :#H@[#V@      6#7#8#9#0#a#b#            c#d#        # $ $ % % $ $ %                                         ",
"                    :#H@e#V@    +#f#g#h#i#j#k#l#            m#n#        % $ $     $ %                                           ",
"                    :#o#p#V@    :#,#q#g#h#h#h#r#s#          t#u#          % $                                                   ",
"                    v#w#x#y#    z#H@W@A#B#h#h#C#T@        D#E#F#                                                                ",
"                    G#H#I#J#  K#H@,#L#M#N#O#P#Q#T@        R#S#                                                                  ",
"                    +#T#I#U#V#W#H@X#Y#Z#`# $.$+$T@        R#@$                                                                  ",
"                          #$$$%$&$*$=$-$;$>$,$'$T@        )$!$                                                                  ",
"                            ~${$]$^$h#-$/$($_$F@T@        :$<$                                                                  ",
"                          g [$}$|$1$k#2$/$3$4$5$T@        6$7$                                                                  ",
"                          8$H@,#9$0$a$'$/$b$4$E@T@        c$d$                                                                  ",
"                        e$H@H@~#f$g$h$i$j$k$l$E@T@        m$c@                                                                  ",
"          n$            H@H@H@H@H@o$p$q$r$s$t$E@T@        u$c@                                                                  ",
"            n$        v$H@H@H@H@H@*#w$x$y$z$E@E@T@        u$c@      $ $                                                         ",
"            $ $     :#A$H@H@H@H@B$C$C$W@D$E$1$e#T@      F$G$F$      H$n$n$                                                      ",
"          H$$ $     :#H@H@H@1@I$J$H@H@K$L$p$M$N$O$      P$Q$          n$$ $       $                                             ",
"        n$$ H$H$    R$G@S$C$E@T$u@H@U$S$S$V$x$W$X$      Y$Q$          H$$ $   n$$                                               ",
"        $ $       Z$g@`$ % % %.%.%.% % % % % %+%T@      @%#%          H$$ $ $ n$n$                        n$                    ",
"        H$H$                                                            H$H$$ $ H$                      $ $     n$n$$           "};
