/* XPM */
static char * enemy4ok_xpm[] = {
"64 64 561 2",
"  	c #72751B",
". 	c #646522",
"+ 	c #7F8226",
"@ 	c #787B21",
"# 	c #656C17",
"$ 	c #6E701D",
"% 	c #6F6F25",
"& 	c #6E6D27",
"* 	c #6D6D26",
"= 	c #70731C",
"- 	c #70721C",
"; 	c #636422",
"> 	c #563648",
", 	c #4D0C4F",
"' 	c #490B4B",
") 	c #40362B",
"! 	c #6C6E1E",
"~ 	c #311D2E",
"{ 	c #4C4729",
"] 	c #430A46",
"^ 	c #2A0730",
"/ 	c #29072F",
"( 	c #71731C",
"_ 	c #71741E",
": 	c #4C134D",
"< 	c #36083A",
"[ 	c #34232E",
"} 	c #33222E",
"| 	c #626222",
"1 	c #6F721C",
"2 	c #60513E",
"3 	c #410A44",
"4 	c #2F0F32",
"5 	c #61523E",
"6 	c #2B0F2F",
"7 	c #72741D",
"8 	c #6A652F",
"9 	c #6C6B2A",
"0 	c #483F2C",
"a 	c #462142",
"b 	c #2F192E",
"c 	c #553747",
"d 	c #5A4344",
"e 	c #71741D",
"f 	c #61543C",
"g 	c #460B48",
"h 	c #504C28",
"i 	c #565327",
"j 	c #2F152F",
"k 	c #3D0941",
"l 	c #524438",
"m 	c #70731B",
"n 	c #52284C",
"o 	c #4B0C4D",
"p 	c #330E36",
"q 	c #39143A",
"r 	c #3D143D",
"s 	c #2E0834",
"t 	c #33212E",
"u 	c #6F721D",
"v 	c #49422A",
"w 	c #3B2F2D",
"x 	c #35083A",
"y 	c #4C0C4E",
"z 	c #2E0733",
"A 	c #310835",
"B 	c #470B49",
"C 	c #2C0732",
"D 	c #3C302C",
"E 	c #49432A",
"F 	c #696B20",
"G 	c #2C122F",
"H 	c #28072E",
"I 	c #4A0B4C",
"J 	c #4A0A4C",
"K 	c #28072F",
"L 	c #40352D",
"M 	c #4D4829",
"N 	c #350839",
"O 	c #300835",
"P 	c #2B0731",
"Q 	c #4A253F",
"R 	c #4C0B4D",
"S 	c #3E0E30",
"T 	c #2D0732",
"U 	c #48412C",
"V 	c #71741C",
"W 	c #4F4B28",
"X 	c #310836",
"Y 	c #490B4C",
"Z 	c #401632",
"` 	c #360D1D",
" .	c #2F0924",
"..	c #460B49",
"+.	c #4B4629",
"@.	c #3C093F",
"#.	c #4C0C4D",
"$.	c #3E0F2B",
"%.	c #351220",
"&.	c #4A283A",
"*.	c #4D104E",
"=.	c #450B48",
"-.	c #616027",
";.	c #6C6831",
">.	c #636A18",
",.	c #42362E",
"'.	c #490D47",
").	c #3A0F20",
"!.	c #3A1D2A",
"~.	c #492B38",
"{.	c #4C1949",
"].	c #2B0730",
"^.	c #515322",
"/.	c #4C0E4E",
"(.	c #3E2C33",
"_.	c #696A1F",
":.	c #431A42",
"<.	c #4D0C50",
"[.	c #3B0F21",
"}.	c #2C0A18",
"|.	c #3C0939",
"1.	c #461B41",
"2.	c #422732",
"3.	c #4C1B48",
"4.	c #450B47",
"5.	c #2D152F",
"6.	c #423A2A",
"7.	c #341535",
"8.	c #585625",
"9.	c #4A0C4D",
"0.	c #4B0C4C",
"a.	c #3B0F22",
"b.	c #310B1C",
"c.	c #4B114B",
"d.	c #3E2530",
"e.	c #4A2241",
"f.	c #3F0A43",
"g.	c #5A5924",
"h.	c #4A0C4C",
"i.	c #440E3B",
"j.	c #441E3E",
"k.	c #490D4B",
"l.	c #48412A",
"m.	c #400A43",
"n.	c #3D0940",
"o.	c #32092E",
"p.	c #350D1D",
"q.	c #4A0C48",
"r.	c #461C41",
"s.	c #481747",
"t.	c #440B47",
"u.	c #534F28",
"v.	c #40362C",
"w.	c #37093B",
"x.	c #420A45",
"y.	c #290918",
"z.	c #360D1E",
"A.	c #3B0E22",
"B.	c #3E232E",
"C.	c #402334",
"D.	c #4D0B4F",
"E.	c #676821",
"F.	c #5E4B41",
"G.	c #461445",
"H.	c #6B6D1E",
"I.	c #71741B",
"J.	c #646422",
"K.	c #400B3E",
"L.	c #280915",
"M.	c #3B1021",
"N.	c #490F47",
"O.	c #676820",
"P.	c #686A20",
"Q.	c #4C1F45",
"R.	c #271420",
"S.	c #280916",
"T.	c #330C28",
"U.	c #330837",
"V.	c #2A0C2F",
"W.	c #656621",
"X.	c #36083B",
"Y.	c #4C2A36",
"Z.	c #D32326",
"`.	c #100816",
" +	c #370E1F",
".+	c #2B0D2F",
"++	c #696A20",
"@+	c #39093D",
"#+	c #481E42",
"$+	c #81252E",
"%+	c #F12525",
"&+	c #0B0815",
"*+	c #370D1E",
"=+	c #4E0C50",
"-+	c #3A093E",
";+	c #34242E",
">+	c #421C3D",
",+	c #74252F",
"'+	c #EC2526",
")+	c #220B1C",
"!+	c #686920",
"~+	c #351B30",
"{+	c #3D222E",
"]+	c #6C1321",
"^+	c #270917",
"/+	c #420B40",
"(+	c #69654D",
"_+	c #6F6A56",
":+	c #726E50",
"<+	c #3D322C",
"[+	c #460A49",
"}+	c #3B1927",
"|+	c #2A0917",
"1+	c #280918",
"2+	c #38093B",
"3+	c #301A2E",
"4+	c #6B6D1F",
"5+	c #6A6848",
"6+	c #5A4772",
"7+	c #56456E",
"8+	c #6E6C4A",
"9+	c #382A2D",
"0+	c #2C091E",
"a+	c #350A2E",
"b+	c #433A2B",
"c+	c #4B3F62",
"d+	c #3F3A56",
"e+	c #3F3A57",
"f+	c #453D5D",
"g+	c #37282D",
"h+	c #2F0834",
"i+	c #410B3F",
"j+	c #280917",
"k+	c #4A0C4B",
"l+	c #2C0731",
"m+	c #6D6D3B",
"n+	c #55446C",
"o+	c #413A56",
"p+	c #A25438",
"q+	c #AD561F",
"r+	c #36334E",
"s+	c #626219",
"t+	c #51461C",
"u+	c #340E1C",
"v+	c #544E19",
"w+	c #4F4B27",
"x+	c #655E59",
"y+	c #53436B",
"z+	c #473C56",
"A+	c #C66E22",
"B+	c #AE5921",
"C+	c #1D1423",
"D+	c #5C5C46",
"E+	c #3D2F18",
"F+	c #380D1F",
"G+	c #5E591D",
"H+	c #A48B22",
"I+	c #B79525",
"J+	c #B27B28",
"K+	c #584E6C",
"L+	c #3E3A57",
"M+	c #342A3F",
"N+	c #AE6721",
"O+	c #BF7125",
"P+	c #180E1D",
"Q+	c #5E5B4F",
"R+	c #6A6A1B",
"S+	c #2C0E17",
"T+	c #B97922",
"U+	c #AA5E41",
"V+	c #CD7822",
"W+	c #975F45",
"X+	c #7B5057",
"Y+	c #6E465E",
"Z+	c #1C101B",
"`+	c #21121B",
" @	c #8A7540",
".@	c #CE9729",
"+@	c #C49728",
"@@	c #6A6A1C",
"#@	c #2E0E18",
"$@	c #6C6A43",
"%@	c #483E5C",
"&@	c #A8653D",
"*@	c #CD7926",
"=@	c #C57634",
"-@	c #54415C",
";@	c #3D3752",
">@	c #3E3752",
",@	c #CE8F29",
"'@	c #C67E25",
")@	c #76751B",
"!@	c #68671D",
"~@	c #301B16",
"{@	c #54446B",
"]@	c #38324D",
"^@	c #6B3A3A",
"/@	c #964F32",
"(@	c #CD7825",
"_@	c #D18825",
":@	c #A36541",
"<@	c #A47B43",
"[@	c #B57D3A",
"}@	c #C68929",
"|@	c #6A6C24",
"1@	c #5C1E36",
"2@	c #6A6A1A",
"3@	c #615A5A",
"4@	c #332C44",
"5@	c #3A343F",
"6@	c #68413D",
"7@	c #835039",
"8@	c #C37329",
"9@	c #CA7525",
"0@	c #BF6523",
"a@	c #C36C24",
"b@	c #A4552D",
"c@	c #2E2941",
"d@	c #504F49",
"e@	c #6A6C2F",
"f@	c #6A6C2E",
"g@	c #88686B",
"h@	c #9B6389",
"i@	c #7C7245",
"j@	c #70722A",
"k@	c #4B435D",
"l@	c #3C3652",
"m@	c #64662B",
"n@	c #6E7021",
"o@	c #BA6F2D",
"p@	c #4B2E3F",
"q@	c #64383C",
"r@	c #65393C",
"s@	c #C46C23",
"t@	c #483240",
"u@	c #312941",
"v@	c #322A43",
"w@	c #352E48",
"x@	c #6C485F",
"y@	c #9B6388",
"z@	c #514663",
"A@	c #37304A",
"B@	c #6C6F22",
"C@	c #686A27",
"D@	c #2F2641",
"E@	c #B26028",
"F@	c #8B553D",
"G@	c #3E3A58",
"H@	c #724942",
"I@	c #76751C",
"J@	c #60612E",
"K@	c #565534",
"L@	c #342C40",
"M@	c #312740",
"N@	c #39334E",
"O@	c #3A334F",
"P@	c #383551",
"Q@	c #6A4256",
"R@	c #706D2B",
"S@	c #6A6847",
"T@	c #413B59",
"U@	c #4A4839",
"V@	c #423E3C",
"W@	c #744C6D",
"X@	c #A75A3A",
"Y@	c #484056",
"Z@	c #707222",
"`@	c #6D7021",
" #	c #3C373E",
".#	c #3E393E",
"+#	c #332B41",
"@#	c #322841",
"##	c #381620",
"$#	c #696B1A",
"%#	c #63643A",
"&#	c #3E3956",
"*#	c #332A43",
"=#	c #666729",
"-#	c #37314C",
";#	c #694E52",
">#	c #775142",
",#	c #6F7222",
"'#	c #666829",
")#	c #514725",
"!#	c #47381D",
"~#	c #3E3955",
"{#	c #312841",
"]#	c #7D7A1C",
"^#	c #886D38",
"/#	c #3A3654",
"(#	c #684751",
"_#	c #996A35",
":#	c #2A2C51",
"<#	c #C38F2C",
"[#	c #605326",
"}#	c #4B381F",
"|#	c #3D3854",
"1#	c #86711E",
"2#	c #C77827",
"3#	c #453041",
"4#	c #423955",
"5#	c #BA7435",
"6#	c #9D7937",
"7#	c #C07727",
"8#	c #6C5632",
"9#	c #423719",
"0#	c #2D2740",
"a#	c #505045",
"b#	c #794038",
"c#	c #CC7523",
"d#	c #9A5D37",
"e#	c #B66D32",
"f#	c #BD702C",
"g#	c #C47925",
"h#	c #625428",
"i#	c #403718",
"j#	c #7D5579",
"k#	c #9C658D",
"l#	c #412F4A",
"m#	c #6D7028",
"n#	c #403B57",
"o#	c #342C45",
"p#	c #7C4138",
"q#	c #C87425",
"r#	c #CD7A26",
"s#	c #CE7B25",
"t#	c #76493B",
"u#	c #63652B",
"v#	c #545218",
"w#	c #3F3617",
"x#	c #A16891",
"y#	c #8E5974",
"z#	c #915D7F",
"A#	c #595845",
"B#	c #342C46",
"C#	c #2C2741",
"D#	c #C57126",
"E#	c #C97425",
"F#	c #B56028",
"G#	c #61642B",
"H#	c #72731D",
"I#	c #4C232B",
"J#	c #6B6C1A",
"K#	c #905A77",
"L#	c #875368",
"M#	c #875367",
"N#	c #5F603F",
"O#	c #9B5E35",
"P#	c #8F4A33",
"Q#	c #B05827",
"R#	c #C56E24",
"S#	c #8B4935",
"T#	c #62652B",
"U#	c #521B30",
"V#	c #7A6B41",
"W#	c #845961",
"X#	c #796C40",
"Y#	c #9F771F",
"Z#	c #74483E",
"`#	c #3B3755",
" $	c #302842",
".$	c #3B2C41",
"+$	c #9D5F37",
"@$	c #A75634",
"#$	c #BC5E21",
"$$	c #442D40",
"%$	c #A77721",
"&$	c #B46B2F",
"*$	c #A16134",
"=$	c #A66432",
"-$	c #9D6143",
";$	c #A65635",
">$	c #6B3B3B",
",$	c #372941",
"'$	c #421225",
")$	c #666835",
"!$	c #453C56",
"~$	c #AA6737",
"{$	c #B26A2F",
"]$	c #CE7A26",
"^$	c #9C6144",
"/$	c #B76F37",
"($	c #383858",
"_$	c #63652A",
":$	c #2E0B19",
"<$	c #433F55",
"[$	c #322942",
"}$	c #3E2D40",
"|$	c #BF722B",
"1$	c #955A37",
"2$	c #3D3957",
"3$	c #B76E37",
"4$	c #332B44",
"5$	c #6F6F1F",
"6$	c #290D16",
"7$	c #62633C",
"8$	c #2D2945",
"9$	c #B36B2F",
"0$	c #945936",
"a$	c #282441",
"b$	c #322943",
"c$	c #66373A",
"d$	c #595817",
"e$	c #7F8124",
"f$	c #656737",
"g$	c #3F3956",
"h$	c #302C48",
"i$	c #AC5B2B",
"j$	c #C87325",
"k$	c #5A3A3E",
"l$	c #312A44",
"m$	c #A65533",
"n$	c #3A3958",
"o$	c #46301E",
"p$	c #595818",
"q$	c #444154",
"r$	c #3C2B41",
"s$	c #5C353D",
"t$	c #C06B26",
"u$	c #493240",
"v$	c #A4532D",
"w$	c #343350",
"x$	c #46301F",
"y$	c #3F3A58",
"z$	c #63373C",
"A$	c #C76F23",
"B$	c #6F463C",
"C$	c #686F16",
"D$	c #59343D",
"E$	c #C26E27",
"F$	c #66413D",
"G$	c #342941",
"H$	c #432D1E",
"I$	c #5E5E19",
"J$	c #72751C",
"K$	c #38314C",
"L$	c #362F49",
"M$	c #3B3551",
"N$	c #3E3855",
"O$	c #3A3450",
"P$	c #5D353D",
"Q$	c #C66F23",
"R$	c #B96E2D",
"S$	c #8D7322",
"T$	c #65651A",
"U$	c #2E1816",
"V$	c #4E4C45",
"W$	c #3A344F",
"X$	c #3C3653",
"Y$	c #3B3550",
"Z$	c #66393B",
"`$	c #934B32",
" %	c #7D6A24",
".%	c #66651B",
"+%	c #2F1917",
"@%	c #3D383F",
"#%	c #3D383E",
"$%	c #3D3840",
"%%	c #656729",
"&%	c #66671A",
"*%	c #3A2F17",
"                                                                                .                       + @ @   # @     +       ",
"                                                                                $                       # @ @ @ #   @ @ #       ",
"                    +                                                                                 + @ # @ @     @ @ #       ",
"          + + @     @ @                                                                               # @ @ # @     # #         ",
"            + @ @   # @     +                                                                           # @ # #                 ",
"            # @ @ @ #   @ @ #                                                                                                   ",
"          + @ # @ @     @ @ #                                   % & * =                                                         ",
"          # @ @ # @     # #                         - ;         > , ' )                                                         ",
"            # @ # #                               ! ~ {       , , ] ^ /                                                         ",
"                                                  ( $       _ : < [ } |       1                                                 ",
"                                                            2 3 4             .                                                 ",
"                                                            5 ^ 6         7 8 9                                                 ",
"                                                        _ 0 a ^ b         c , d                                                 ",
"                                                    e f , , g / h .     i j k l                                                 ",
"                                                  m n , , , o ^ / p q r s t u v                                                 ",
"                                                  w x , , y z A B , , , o C D E                                                 ",
"                                                  F G H H H H I J , , , , 3 K L -     + +                                       ",
"                                                    u M N O P , Q R S , , T / U V   @ +                                         ",
"                                                      W x X Y , Z `  ., ..^ / / +.@ @ @                                         ",
"                                                    u X , @., #.$.%.&.*.=.< H / / -.;.>.                                        ",
"                                                    ,.y , , , '.).!.~.{., , I ]./ ^./.(.                                        ",
"                                                  _.:., , , <.[.}.|.1.2.3., , 4.5.6., 7.                                        ",
"                                                  8.9., , , 0.a.b., c.d.e., , f.~ g.' 7.                                        ",
"                                                  H h., , , i.[.a.<.c.d.j., , / ~   k.7.                                        ",
"                                                  l.^ m.h.n.o.p.a.q.r.d.s., , t.u.  ..h                                         ",
"                                                    v./ w.< x.y.z.A.B.C.D., , 3 E.F.G.H.@ +                                     ",
"                                                    I.J.T o , K.L.p.M.N., , , H C 3 O.    + +                                   ",
"                                                      P.H ' D.Q.R.S.z.T., y U./ V.W.      @ @ @                                 ",
"                                                    ! G X., Q.Y.Z.`.S. +<.9.H .+++        # @ @ # @ @ + +                       ",
"                                                    } @+, , #+$+%+&+S.*+=+-+/ v             # # @ @ @                           ",
"                                                    ;+n., , >+,+'+)+S.L.=+T /                   @ @ #                           ",
"                                    @ +         @ @ !+/ -+w.~+{+]+^+S./+A ^ V.                  @ #                             ",
"                                    (+_+:+    @ @   = <+H h.[+}+|+S.1+2+/ 3+4+                                                  ",
"                                  5+6+7+7+8+  @ @       9+C y y.S.0+a+Y H b+                                                    ",
"                                  6+c+d+e+f+  # #       - g+h+i+j+k+9.l+l.I.                                                    ",
"                                m+n+o+p+q+r+                s+t+u+v+w+4+                                            +           ",
"                                x+y+z+A+B+C+D+                E+F+G+                                              +             ",
"                          H+I+J+K+L+M+N+O+P+Q+                R+S+                                              @ @             ",
"                            T+U+V+W+X+Y+Z+`+ @.@+@            @@#@                                              @ @ #           ",
"                            $@%@&@*@=@-@;@>@,@'@)@            !@~@                                              # # @ +         ",
"                            {@]@^@/@(@_@:@<@[@}@|@            1@2@                                                  @ @         ",
"                          3@e+4@5@6@7@8@9@0@a@b@c@d@e@f@f@f@g@h@i@                                                  # #         ",
"                        j@k@l@m@n@c@o@p@q@r@s@t@u@v@w@e+e+e+x@y@i@                                                              ",
"                        z@e+A@B@  C@D@E@F@G@H@I@J@K@L@M@N@O@P@Q@R@        + +           +                                       ",
"                      S@T@A@U@      V@W@X@Y@e+Z@    `@ #.#+#@###$#          + @ @   @ +                                         ",
"                      %#&#*#C@      =#-#;#>#e+,#          '#)#!#      @ + + # @ # @ @ #                                         ",
"                      e+~#{#      ]#^#/#(#_#:#<#            [#}#        + @ @ # # @ @ #                                         ",
"                      e+|#{#      1#2#3#4#5#6#7#            8#9#        # @ @     @ #                                           ",
"                      L+0#{#      a#b#c#d#e#f#g#            h#i#          # @                                                   ",
"                      j#k#l#    m#n#o#p#q#r#s#t#u#          v#w#                                                                ",
"                      x#y#z#    A#e+B#C#D#E#r#F#G#        H#I#J#                                                                ",
"                      K#L#M#  N#e+~#v@O#P#Q#R#S#T#        H#U#I.                                                                ",
"                      V#W#X#Y#Z#`# $.$+$&#@$#$$$u#        H#U#I.                                                                ",
"                            %$r#&$*$=$-$L+;$>$,$u#        ( '$I.                                                                ",
"                            )$!$~${$]$^$L+/$($~#_$        m :$I.                                                                ",
"                            <$&#[$}$|$1$2$3$($4$u#        5$6$I.                                                                ",
"                          7$e+d+8$9$0$a$2$/$($b$u#        c$d$                                                                  ",
"          e$            f$e+e+g$h$i$j$k$l$m$n$b$u#        o$p$                                                                  ",
"            e$          q$e+e+e+e+r$s$t$u$v$w${#u#        x$p$      @ @                                                         ",
"            @ @       %#e+e+e+e+y${#{#z$A$B${#{#u#        x$p$      C$e$e$                                                      ",
"          C$@ @       e+e+e+e+e+N@B#B#v@D$E$F$G$u#      m H$I$        e$@ @       @                                             ",
"        e$@ C$C$    J$e+e+e+K$L$M$e+e+N$O$P$Q$R$S$      T$U$          C$@ @   e$@                                               ",
"        @ @         V$l@W$B#{#A@X$e+Y$O@O@W$Z$`$ %      .%+%          C$@ @ @ e$e$                        e$                    ",
"        C$C$      `@.#@%#%#%#%$%$%$%#%#%#%#%#%#%%%      &%*%            C$C$@ @ C$                      @ @     e$e$@           "};
