/* XPM */
static char *fad76ade799a4d2194383bc9d30602a7zJYtYEEsIDPkxeBR[] = {
/* columns rows colors chars-per-pixel */
"64 64 213 2 ",
"   c #1B0106",
".  c #160317",
"X  c #09000A",
"o  c #240E1A",
"O  c #391C1F",
"+  c #250303",
"@  c #2B1624",
"#  c #2B1C2C",
"$  c #281728",
"%  c #331D2A",
"&  c #38222C",
"*  c #2D2232",
"=  c #272432",
"-  c #3A2430",
";  c #3C2935",
":  c #3D2E3C",
">  c #352736",
",  c #7D3012",
"<  c #482628",
"1  c #552B28",
"2  c #5D302A",
"3  c #422E3B",
"4  c #422C34",
"5  c #46333F",
"6  c #4A3135",
"7  c #533538",
"8  c #6B352B",
"9  c #68382B",
"0  c #76392A",
"q  c #753E31",
"w  c #633D37",
"e  c #51180C",
"r  c #62650D",
"t  c #656911",
"y  c #6A6E15",
"u  c #666B15",
"i  c #6D7017",
"p  c #6E7219",
"a  c #72751C",
"s  c #75781F",
"d  c #79791F",
"f  c #7D412D",
"g  c #78463B",
"h  c #6C413D",
"j  c #747723",
"k  c #767921",
"l  c #797D24",
"z  c #7B7C2C",
"x  c #77782B",
"c  c #7B7B34",
"v  c #4B3743",
"b  c #4C3B44",
"n  c #463946",
"m  c #523E4A",
"M  c #553F47",
"N  c #4F404A",
"B  c #54434D",
"V  c #564651",
"C  c #5A4653",
"Z  c #5F4D59",
"A  c #5C4C54",
"S  c #624E59",
"D  c #614E57",
"F  c #65535E",
"G  c #655245",
"H  c #676249",
"J  c #766A4A",
"K  c #746C52",
"L  c #7B745A",
"P  c #747048",
"I  c #6C5763",
"U  c #6C5A63",
"Y  c #685866",
"T  c #735E69",
"R  c #715C66",
"E  c #75626C",
"W  c #7D6A69",
"Q  c #7B6672",
"!  c #7D6975",
"~  c #786775",
"^  c #6E6372",
"/  c #A0431B",
"(  c #B24818",
")  c #8B4329",
"_  c #9B4E2D",
"`  c #964929",
"'  c #844B3A",
"]  c #964B31",
"[  c #A54C25",
"{  c #A44D29",
"}  c #A54820",
"|  c #A6502A",
" . c #AC522B",
".. c #B5552D",
"X. c #BB5A2F",
"o. c #B7572D",
"O. c #A95432",
"+. c #B35933",
"@. c #BD5B31",
"#. c #B65A36",
"$. c #C5531E",
"%. c #C35D2E",
"&. c #C35E32",
"*. c #C46033",
"=. c #CB6333",
"-. c #CB6438",
";. c #CC6834",
":. c #D26634",
">. c #D2693A",
",. c #D56835",
"<. c #C8602D",
"1. c #817D45",
"2. c #817C49",
"3. c #9E6D5F",
"4. c #837D5B",
"5. c #94764C",
"6. c #816B77",
"7. c #866E7C",
"8. c #86727C",
"9. c #89727D",
"0. c #837861",
"q. c #AB7A72",
"w. c #7C8027",
"e. c #7E8129",
"r. c #81842B",
"t. c #81813C",
"y. c #808035",
"u. c #858444",
"i. c #85814A",
"p. c #89854D",
"a. c #8B8A4B",
"s. c #8E895A",
"d. c #8D8856",
"f. c #928E5A",
"g. c #96935C",
"h. c #A88050",
"j. c #B08251",
"k. c #938C64",
"l. c #91896E",
"z. c #9A936C",
"x. c #969165",
"c. c #958C72",
"v. c #94837A",
"b. c #9B9374",
"n. c #9F9871",
"m. c #9D947A",
"M. c #898167",
"N. c #A0977A",
"B. c #A49A7E",
"V. c #7C7284",
"C. c #8B7582",
"Z. c #8D7984",
"A. c #877786",
"S. c #917A85",
"D. c #947E8A",
"F. c #96818C",
"G. c #9A828F",
"H. c #9B8C83",
"J. c #9C8493",
"K. c #9E8995",
"L. c #968692",
"P. c #A39585",
"I. c #A6988A",
"U. c #A18695",
"Y. c #A28B96",
"T. c #A58D9C",
"R. c #A88F9D",
"E. c #A6919D",
"W. c #AA939E",
"Q. c #A99A92",
"!. c #ADA192",
"~. c #AFA199",
"^. c #B3A29A",
"/. c #ABA18F",
"(. c #A98FA0",
"). c #A592A1",
"_. c #AB94A2",
"`. c #AE99A5",
"'. c #AF99A8",
"]. c #AF96AA",
"[. c #B097A6",
"{. c #B19BA5",
"}. c #B39DAA",
"|. c #B197A9",
" X c #B79EB0",
".X c #B5A4A4",
"XX c #B6A1AD",
"oX c #B8A2AF",
"OX c #BBA8A8",
"+X c #B7A1B0",
"@X c #B8A2B1",
"#X c #BBA4B1",
"$X c #BEA9B4",
"%X c #C0AAB6",
"&X c #C1ABB6",
"*X c #C3ACB9",
"=X c #C5ADBA",
"-X c #C4ADBA",
";X c #C9AEBC",
":X c #C6B1BD",
">X c #C9B1BE",
",X c #CAB1BE",
"<X c #C9B1BE",
"1X c #CBB2C0",
"2X c #CDB4C1",
"3X c #CBB4C1",
"4X c #CFB9C5",
"5X c #CBB8C9",
"6X c #D1BAC6",
"7X c #D4BECA",
"8X c #D9C2CE",
"9X c #DCC4D1",
"0X c #E5CDDA",
/* pixels */
"a a a a a a a a a p d s a a s i a a a a a a a a a a a a a a a a a a a a a a a a a a a a a a a a a k p a e.s k a u l a a w.x p a ",
"s s a a a a a a a s s y a p s a a a a a a a a a a a a a a a a a a a a a a a a a a a a a a a a a y a k s r w.k a i p k w.p p j a ",
"p a a a a a a s a a l a s s a a a a a a a a a a a a a a a a a a a a a a a a a a a a a a a a a a k i a r.j u w.w.s i s w.u p k p ",
"a k a p s r.r.s s y l l a a s a a a a a a a a a a a a a a a a a a a a a a a a a a a a a a a a a p s a r e.j r l s p i u a j a p ",
"s a a i a s l w.l a u l a i w.a a a a a a a a a a a a a a a a a a a a a a a a a a a a a a a a a a p s a r w.p u y w.p u a a p w.",
"a p a s a y p d w.k u a s l i a a a a a a a a a a a a a a a a a a a a a a a a a a a a a a a a a a d a s j p a p p p w.a a a a p ",
"a k s i s r.k t k j j p j w.r a a a a a a a a a a a a a a a a a a a a a a a a a a a a a a a a a a y d i p a a a s p a s p s a p ",
"a i a a a y a l u w.a a i t j p a a a a a a a a a a a a a a a a a a a s a a a a a a a a a a a a a d y s a a a a a a a a s a a a ",
"a a a a a p a s u i p a a a p a a a a a a a a a a a a a a a a a a a a a a a a a a a a a a a a a a a a a a a a a a a a a a a a a ",
"a a a a s p a a p p a a a a a a a a a a a a a a a a a a a a a a a a a a a a a a a a a a a a a a a a a a a a a a a a a a a a a a ",
"a p a a a a a a a a a a a p a a a a k k.u.a a a a a a a a a a a a a a a a a a a a a a a a a a a a a a a a a a a a a a a a a a a ",
"a a a a a a a a a a a a a a a a a j f.$X-X.XP.a.c u.t.t.t.u.k a p a a a a a a a a a a a a a a a a a a a a a a a a a a a a a a a ",
"a a a a a a a a a a a a a a a s a x .X1X,X,X=X*X*X*X=X=X:X=X.X!.z.f.y.a a a s a a a a a a a a a a a a a a a a a a a a a a a a a ",
"a a p a a a a a a a a a a a a a a N.;X;X=X,X,X,X3X1X1X1X,X3X,X,X=X*X$X~.N.p.u.s a a a a a a a s a a a a a a a a a a a a a a a a ",
"a a a a a a a a a a a p a a a a z &X4X,X,X,X,X:X,X,X,X,X:X,X:X:X,X,X2X1X,X:X*X.XQ.z.a.1.a a a s a a a a a a a a a a a a a a a a ",
"a a p a a a a a a a a a a a a a N.@X*X=X;X,X,X,X3X,X,X3X,X3X3X3X,X2X2X3X3X4X2X2X,X;X=X$XI.P.g.t.w.a a a a a a a a a a a a a a a ",
"a a a a a a a a a a a a a a a a Y.XXXXXX#XoX#X#X$X$X$X$X*X*X$X:X:X$X*X*X*X$X&X$X#XoX#XXXXX`.}.|.H.s p s a a a a a a a a a a a a ",
"a a a a a a a a a a a a a a a a v.`.`.}.}.XXXXXX}.}.}.+X'.XX}.XXXX}.XX'.}.}.}.}.XXXXXXXXXXXXoX`.P.p s p a a a a a a a a a a a a ",
"a a a a a a a a a a a a a a a c Y.{.T.T.(.`.'.}.@X@X@X+XXXoXXXXXXXXXXXXXXXXXXXXX{.XXoXXXXXXX@XR.s.a p s a a a a a a a a a a a a ",
"a a a a a a a a a a a a a a a c 9.S.E.}.|.(.T.(._.'.}. X@X@XoXXXXXXXXXXX}.XXXX}.XX`.}.oXoXoX@XE.s.a a a a a a a a a a a a a a a ",
"a a a a a a a a a a a a a a a c C.9.I T D.`. X|._.T.).).`.|.}.}.oXoXXX}.}.}.XXXXoX}.T.}.#X X|.U.e.j a a a a a a a a a a a a a a ",
"a a a a a a a a a a a a a a j W :X8XW.Q V B T D.). X}._.T.(.).`.`.XX+X+X@XoXXXoX#X`.Y.`.}.(.T.E.x a a a a a a a a a a a a a a a ",
"a a a a a a a a a a a a a a 0.K.7X,X8X9X$XA.V 3 m E D.T.}.}.`.(.R.(.).[.}.XX@X@X}._.[.T.U.|.R.c.a a a a a a a a a a a a a a a a ",
"a a a a a a a a a a a p u.m.F.:X2X,X:X,X6X9X3XY.I : ; C ~ Z.Y.|. X|.).T.T.R.`.}.|.T.J.D.D.S.S.c.a a a a a a a a a a a a a a a a ",
"a a a a a a a a a a l P.XXT.Y.3X,X,X,X,X1X;X3X8X7X}.! v & 5 Z E C.J.].|.|._.|.|.J.6.R ! Z.U.oX:X^.m.l a a a s a a a a a a a a a ",
"a a a a a a a a a a a.{.$XK.Y.4X2X,X:X1X1X1X1X1X4X8X:XJ.Z ; : 5 n n F C.U.|.(.D B I 7.T.=X6X6X2X3X*Xn.j a p a s a a a a a a a a ",
"a a a a a a a a a p P..XoXJ.T.:X=X,X1X1X1X1X,X:X;X{.Y.XX`.V & - b G 6 ; 4 M 3 % C.#X6X8X,X:X,X,X3X3X!.a a a p p a a a a a a a a ",
"a a a a a a a a a z `.XXoXD.E.#XoX#X#X#X$X$XoX#X_.Z.).+XZ.b * @ 8 &.0 % % @ o T 4X8X3X:X,X,X:X,X3X:X$Xk a s a s a a a a a a a a ",
"a a a a a a a a a z.Y.E.{.D.T.{.`.XX}.XXXXXX}.$XC.Z.@X).A - $ 9 ...._ % % - % 6.$X*X-X:X,X,X2X,X$X;X$Xx.w.s i i a a a a a a a a ",
"a a a a a a a a k {.`.`.G.Z.F.W.'.W.`.|.}.XX$X}.I T.$X~ : & 0 +.[  .` 8 - $ * Z {.$XXXXXoX$XoX`.XX$X}.k.s i p l a a a a a a a a ",
"a a a a a a a a f.E.Y._.G.E.F.I 7.`.'.`.|.[.XXoXT E C.V > < ....{ ..) ) ) 8 - n G.-XXX{.XXoXJ.Y._.K.Y.k.k s p s a a a a a a a a ",
"a a a a a a a a v.F.K.W.oX,X:XJ.Y F 7.J.).|.}.#XQ v b b % 2 O.| { O.) ] ....0 < ^ $XXXXX*X`.6.J.K._.XX*X$Xs.a a a a a a a a a a ",
"a a p s a a a p.L.@X-X1X2X,X,X7X3XF.Y N N E F.E T E V : @ q +.[ | | _ {  .{ | ] g W.$X$X{.9.(.1X3X4X3X1X,X=Xn.a a a a d a a a a ",
"a a a p a p s.@X5X3X3X1X2X:X,X,X2X8X,XK.F ; 7 F A.E m v # 0  .{ { { { { { | |  ./ q.5X`.7.{.7X3X1X1X;X1X;X,X*Xn.a a a a a a a a ",
"a a p s a a !.3X1X1X1X1X,X,X:X,X:X:X2X8X4XK.D E I B V n % _ %.@.....{ { [ { { | } 3.).! `.2X;X1X1X;X;X:X,X:X;X=Xf.d a a a j a a ",
"a a s j p j W.1X1X1X;X1X;X:X,X:X:X,X:X2X0X).D E S b m n < @.,.*.&.&.o.&.o. .{ [  .g ~ K.#X#X@X$X;X:X1X;X;X,X;X1XOXk k s a a p a ",
"a a a a a e.$X3X1X1X*X1X,X>X:X:X,X:X4X4XF.T Z.F.G.S.I > 2 *.*.&.&.X.X.-.*.&.@. .} ' ).:XoX:X:X*X*X;X2X1X2X2X3X:XOXr.d a a a a a ",
"a a a a a u.1X1X-X1X=X%X,X,X:X,X3X2X,XA.! XX*X&X#X$XD.= 8 >.%.*.&.X.%.&.&.&.&.X.X.g L.:X}.}.XX$X$X$X*X*X*X$X$X@X`.g.a i a a a a ",
"a a a a p b.$X1X1X1X1X@X:X,X,X,X:X*XF.Z.;X#X@X}.E.{.A.= f ,.&.&.&.X.&.*.*.*.&.X.-.h ~ $XoXXX}.}.}.}.XX}.}.}.}.XX}.N.i a a a a a ",
"a a a a p !.1X;X;X:X1X;XoX,X*XoXoXW.U.#XXX@X}.Y.Y.XXA.* ] ,.&.&.&.X.*.&.&.&.X.%.@.7 Y {.$XoXXXXX+XXXXXXXoX`.`.XXoXW.a 1.j a a a ",
"a a a a a .X5X3X,X,X:X:X}.`.XX}.XX{.oXoXoX`.W.K.J. XA.4 O.*.&.&.%.X.*.*.&.&.@.*.O.% S U.>X$XOX#XoXoXoX$X`.E.@X#XoX{.a.d s a a a ",
"a a a a e.$X:X*X&X#XoXoX{.`.}.oX}.oXoX X`.T.(.T.D. XV.7 +.&.&.&.@.&.&.*.&.&.@.>.] @ S S.Y.E.`.XXXXXXXXoXL._.#XW.Y.9.x y a a a p ",
"a a a a a.}.XXXX}.}.}.oX}.W.oXoX#XoX}.(.(.(.`.`.D.].A.w X.%.&.*.&.&.&.*.&.&.%.>.q $ v T U W 8.9.S.G.G.G.S.K.J.J.Y.W.I.n.a a a s ",
"a a a a z.`.XXXXXXXXXXoXXX`.[.}. X`.R.R.(.K.D.}.A.L.D.q %.&.&.*.&.&.&.&.&.&.%.:.2 # b b B F E E 9.D.G.U.`.}.#X*X,X6X6X;Xz.a a a ",
"a a a a Q.{.XXXX X@XoX X$X@X].(.(.T.(.(.(.).D.C.I A Y ' <.=.<.*.&.&.&.&.&.&.&.@.< # N V 8.F.8.Y.oX&X;X,X4X2X2X3X:X:X:X:X1XB.a y ",
"a a a a `.XXXXXX X X@X@X}.|.(.(.T.(.(.(.(.].|.J.K.F : G +.;.:.*.&.&.&.@.X.&.:.+.O # 5 R Y.H.{.*XoX=X,X4X2X,X1X1X3X1X1X1X3X^.s s ",
"a a a u.XX@XoX+X X X X|.(.(.(.(.(.(.(.].(.].(._.*XZ.5 b 1 8 ] +.>.>.:...o.&.=.+.O @ 6 E Y.G.W.E.{.XXoX#X&X*X:X$X$X:X;X*X-XP.a s ",
"a a a s.T.T.E.T.T.U.D.D.U.D.D.U.U.D.U.U.D.D.J.U.G.A ; > . .   + e , } / ( $.%.(   X . F E.S.G..X{.`.#X{.`.XX`.`.oX+XoX}.}.I.a a ",
"a a a u.m.N.m.m.m.m.m.b.m.b.m.c.b.c.c.c.c.l.l.c.M.L 4.L K K K H H H J 5.h.j.j.h.J H K 4.2.2.i.1.k.z.1.d.x.1.z.z.u.p.p.p.p.u.a a ",
"a a a s a a a a a a a a p a j p a a a a a a a a a a a a a a p a p a s a p p p s a a s a a a a a a a a a a a a a a a a a a a a a ",
"a a a a a a a a a a a a a a a a a a a a a a a a a a a a a a a a a a a a a a a a a a a a a a a a a a a a a a a a a a a a a a a a ",
"a a a a a a a a a a a a a a a a a a a a a a a a a a a a a a a a a a a p a a a a a a a a a a a a a a a a a a a a a a a a a a a a ",
"a a a a a a a a a a a a a a a a a a a a a a a a a a a a a a a a a a a a a a a a a a a a a a a a a a a a a a a a a a a a a a a a ",
"a a a a a a a a a a a a a a a a a a a a a a a a a a a a a a a a a a a a a a a a a a a a a a a a a a a a a a a a a a a a a a a a ",
"a a a a a a a a a a a a a a a a a a a a a a a a a a a a a a a a a a a a a a a a a a a a a a a a a a a a a a a a a a a a a a a a ",
"a a a a a a a a a a a a a a a a a a a a a a a a a a a a a a a a a a a a a a a a a a a a a a a a a a a a a a a a a a a a a a a a ",
"a s a a a s i a a a a a a a a a a a a a a a a a a a a a a a a a i a s i s a a a a a a a a a a a a a a a a a a a p a a a a a a a ",
"a a a a s l s a a a a a a a a a a a a a a a a a a a a a a a a a s a s a a i a a a a a a a a a a a a a a a a a a s a a a a a a a ",
"a a s a a s w.a a a a a a a a a a a a a a a a a a a a a a a a a s a s l a a a a a a a a a i a a a a a a a a a s a a a a a a a a ",
"a a s p i a w.s a a a a a a a a a a a a a a a a a a a a a a a a a p a w.k s a a a a a a a a a a a a a a a p a a a a a a a a a a ",
"a a a i s p a s a a a a a a a a a a a a a a a a a a a a a a a a a a a k l d p a s s a a a a a a a a a a a a a a a a a s a a a a ",
"a a a a e.s i a a a a a a a a a a a a a a a a a a a a a a a a a a a i a l l s w.l s a a a a a a a a p a a s a a a a a a s a s a ",
"a a a s l s a p a a a a a a a a a a a a a a a a a a a a a a a a a a a i s s l r.s s a a a a a a a a a a s d a a s a a a a a a s ",
"a a a a u p a a a a a a a a a a a a a a a a a a a a a a a a a a s p s p y i k s i a a a a a a a a a a a k k s a r.l k a a a a a "
};
