/* XPM */
static char * ground_xpm[] = {
"64 64 6 1",
" 	c #72751B",
".	c #7F8226",
"+	c #787B21",
"@	c #656C17",
"#	c #7F8124",
"$	c #686F16",
"                                                    .++ @+  .   ",
"                                                    @+++@ ++@   ",
"          .                                        .+@++  ++@   ",
"     ..+  ++                                       @++@+  @@    ",
"      .++ @+  .                                     @+@@        ",
"      @+++@ ++@                                                 ",
"     .+@++  ++@                                                 ",
"     @++@+  @@                                                  ",
"      @+@@                                                      ",
"                                                                ",
"                                                                ",
"                                                                ",
"                                                                ",
"                                                                ",
"                                                                ",
"                                    ..                          ",
"                                     .++   ..                   ",
"                                     @++  +.                    ",
"                                      @@ +++                    ",
"                                         ++@                    ",
"                                         @@                     ",
"                                                                ",
"                                                                ",
"                                                                ",
"                                                                ",
"                                            +.                  ",
"                                             ..                 ",
"                                             +++                ",
"                                             @++@++..           ",
"                                              @@+++             ",
"                                                ++@             ",
"                  +.    ++                      +@              ",
"                   ..  ++                                       ",
"                   @++ ++                                       ",
"                   @++ @@                                       ",
"                    @@                                    .     ",
"                                                         .      ",
"                                                        ++      ",
"                                                        ++@     ",
"                                                        @@+.    ",
"                                                          ++    ",
"                                                          @@    ",
"                                                                ",
"                                     ..     .                   ",
"                                      .++ +.                    ",
"                                   +..@+@++@                    ",
"                                    .++@@++@                    ",
"                                    @++  +@                     ",
"                                     @+                         ",
"                                                                ",
"                                                                ",
"                                                                ",
"                                                                ",
"                                                                ",
"                                                                ",
"                                                                ",
"                                                                ",
"     #                                                          ",
"      #                           ++                            ",
"      ++                          $##                           ",
"     $++                           #++   +                      ",
"    #+$$                           $++ #+                       ",
"    ++                             $+++##            #          ",
"    $$                              $$++$           ++  ##+     "};
