/* XPM */
static char * ground_test_xpm[] = {
"64 64 15 1",
" 	c #72751B",
".	c #7F8226",
"+	c #787B21",
"@	c #656C17",
"#	c #3E734E",
"$	c #4D9262",
"%	c #7AB055",
"&	c #45283C",
"*	c #663931",
"=	c #606315",
"-	c #7F8124",
";	c #65681A",
">	c #585E11",
",	c #6B6D1D",
"'	c #686F16",
"                                                    .++ @+  .   ",
"                                                    @+++@ ++@   ",
"          .                                        .+@++  ++@   ",
"     ..+  ++                ######                 @++@+  @@    ",
"      .++ @+  .            #$$%%$$#                 @+@@        ",
"      @+++@ ++@           #$$%%%$$$#                            ",
"     .+@++  ++@          #$%%%$%$$$$#                           ",
"     @++@+  @@          #$%%%%%$%$$$$#                          ",
"      @+@@              #$%%%%$%$$$$$#                          ",
"                       #$%%%%$%$%$$$###                         ",
"                      #$$%$%%%$%$$$$$###                        ",
"                      #$$$%$%$%$$$$$$$##                        ",
"                      #$%$$%$$$$$$$$####                        ",
"                     #$%%%#$$$$$$$#######                       ",
"                     #$$%%%#######$$$####                       ",
"                     #$%%%$$$$$$$$$$$$###                       ",
"                    #$%%$%$%$$%%%%%%%#$### ..                   ",
"                   #$$%%%$$$$%%%%%%%#$#$###.                    ",
"                   #$%%%%%$%$$$%$%$#$#$###++                    ",
"                   #$$$$%%$$$$$$%$#$#$#$##+@                    ",
"                  #$$$$#$#$$$$$$$$$$$$$###@                     ",
"                  #$%$$$#$#$#$$$$$$$$$#$###                     ",
"                  #%$%$$$#$#$#$#$$$$$$$#####                    ",
"                  #%%$%$$$#####$#$$$$$$$$###                    ",
"                  #%%%$%$$$#####$$$$$$$$$###                    ",
"                  #$%%%$%$$$$$$$#$$$$$$#$$###.                  ",
"                  ##$%%%$%$$$$$%%%%%$$##$####..                 ",
"                 ####$#$%$$$$##########$#$####++                ",
"                #$%%##$#$#$$$$$#######$#$#$###++@++..           ",
"                #%%%######$$$$$$$###$$#$#$####@@+++             ",
"                #%%%%%$$$$$$$$$$$$$$$$$#$#####  ++@             ",
"                ##$%%$%$$$$$$$$$$$$$$$$$#$####  +@              ",
"                ##$$%%$%$$%%%%$$$$$$$$$#$##$##                  ",
"                ###$$%%$$%%%%%%$$$$$$$#$######                  ",
"                ####$$$$$$%%%$$$$$$$##########                  ",
"                ########$$$$$$$$$$$$$$$$$$$$###           .     ",
"                ##$$$$$$$$$$$$$$$$$$$$$%$$$$###          .      ",
"                $$%$#$$$$$$$$$####$%%%%$$$#####         ++      ",
"                %%$%$###$$$$#####$%%$$$$#######         ++@     ",
"                %%%$$########$$$$$$$$$$###$$###         @@+.    ",
"                %%%%$$##################$$$$$##           ++    ",
"                $%%%%%$##########$$$$$$%$%%$$##           @@    ",
"                $$%%%%%$$$$$$$$$$$$$%$$%%%$$$##                 ",
"                #$$%%%$$$$$%%%%$$$%%$$%$$$$####                 ",
"                 ###$$%%$$$$$$$$$$$$$$$$$#####                  ",
"                  ####$$$$$$$##$$$$$$$$######                   ",
"                   #####$$$$################                    ",
"                     ######################                     ",
"                       ######&&&&&&##@+                         ",
"                        ###&&&&&&&&                             ",
"                          ****&*&*&                             ",
"                          ****&*&*&==                           ",
"                      ====******&*&&=====                       ",
"                    =====*&*****&*&&=======                     ",
"                   =====*&&*****&*&&*=======                    ",
"                  =========**&**&&&&&*=======                   ",
"                  ========***&*&&&&*=========                   ",
"     -             =======*&&&&&&&&&*=======                    ",
"      -             ======*=======;&&======                     ",
"      ++              ============>,,====                       ",
"     '++                  =========,;+   +                      ",
"    -+''                           '++ -+                       ",
"    ++                             '+++--            -          ",
"    ''                              ''++'           ++  --+     "};
